<svg width="22" height="21" viewBox="0 0 22 21" fill="none" xmlns="http://www.w3.org/2000/svg">
<path d="M20.7276 1.27241C20.1538 0.698737 19.0031 1.02604 17.1062 2.30276C15.4947 3.38737 13.5617 5.03007 11.6633 6.92843C8.84901 9.74273 6.70932 12.5059 5.9969 14.2119C5.87963 14.1694 5.75803 14.1355 5.63256 14.1107C4.89537 13.9648 4.09471 14.1513 3.43576 14.6218C2.49018 15.2971 2.23975 16.2613 2.20338 16.4239C2.00432 17.1673 1.62733 17.8766 1.11272 18.4758C0.947209 18.6685 0.966115 18.9582 1.15529 19.1278C1.81651 19.7203 2.66233 20.0176 3.54209 20.0176C4.38998 20.0176 5.26944 19.7414 6.0451 19.1875C6.40881 18.9278 6.68416 18.6406 6.73748 18.5838C7.39654 17.8755 7.67639 16.9469 7.53756 16.0984C9.21139 15.4984 12.1295 13.2789 15.0716 10.3367C16.9699 8.43839 18.6127 6.50538 19.6972 4.89393C20.9739 2.9969 21.3013 1.8462 20.7276 1.27241ZM6.0544 17.9469C6.02932 17.9736 5.80069 18.2145 5.50244 18.4274C4.41916 19.2009 3.09291 19.2903 2.12959 18.6948C2.58072 18.0763 2.916 17.3791 3.10862 16.6536V16.6536C3.11076 16.6455 3.11272 16.6373 3.11444 16.629C3.11604 16.6216 3.27822 15.8818 3.97846 15.3818C4.42885 15.0602 4.96584 14.9308 5.45154 15.0268C5.85213 15.1059 6.18889 15.3346 6.39979 15.6705C6.81365 16.3298 6.66815 17.2874 6.0544 17.9469ZM7.21944 15.2222C7.20987 15.2062 7.06826 14.9187 6.80444 14.705C7.03174 14.0973 7.52108 13.2759 8.20311 12.3328L9.66619 13.7959C8.63694 14.5368 7.79354 15.0197 7.21944 15.2222ZM10.4218 13.2309L8.76944 11.5785C9.05498 11.2109 9.36393 10.8301 9.69319 10.4407L11.5606 12.3081C11.1654 12.6419 10.7847 12.9499 10.4218 13.2309ZM18.7797 4.58167C17.7279 6.10183 16.1764 7.91116 14.4112 9.67628C13.6701 10.4174 12.9516 11.0916 12.2689 11.6956L10.3057 9.73241C10.9284 9.02804 11.6073 8.30515 12.3237 7.58878C14.0889 5.82358 15.8982 4.27218 17.4183 3.22026C19.2901 1.92514 19.9359 1.92307 20.06 1.94003C20.077 2.06397 20.0747 2.71007 18.7797 4.58167Z" fill="#00FFF9" stroke="#00FFF9" stroke-width="0.2"/>
<path d="M5.65852 16.6854C5.43262 16.5611 5.14868 16.6434 5.0243 16.8693C5.01173 16.8922 4.99653 16.9135 4.97907 16.9328C4.94415 16.9691 4.82938 17.0801 4.71016 17.1653C4.5293 17.2944 4.33415 17.3869 4.13009 17.4403C3.88059 17.5056 3.7313 17.7607 3.79657 18.0102C3.85149 18.2201 4.04071 18.3591 4.24794 18.3591C4.28708 18.3591 4.32681 18.3541 4.36645 18.3438C4.68087 18.2615 4.97911 18.1207 5.2529 17.9253C5.42864 17.7998 5.66192 17.57 5.66352 17.5682C5.73294 17.493 5.79317 17.4093 5.84255 17.3196C5.96684 17.0936 5.88446 16.8097 5.65852 16.6854Z" fill="#00FFF9" stroke="#00FFF9" stroke-width="0.2"/>
</svg>
