<svg width="31" height="25" viewBox="0 0 31 25" fill="none" xmlns="http://www.w3.org/2000/svg">
<path d="M28.5497 4.85473H25.7474L25.1036 2.04125C24.8286 0.839398 23.7476 0 22.4748 0H12.7459C11.4731 0 10.3922 0.83934 10.1172 2.04119L9.47335 4.85473H8.80836V3.65426C8.80836 2.97778 8.23921 2.42736 7.53965 2.42736H3.43751C2.73795 2.42736 2.1688 2.97778 2.1688 3.65426V4.85473H2.07925C0.93275 4.85473 0 5.75678 0 6.8656V20.4847C0 21.5936 0.93275 22.4956 2.07931 22.4956H4.20581H11.7224C13.4198 23.559 15.4417 24.1772 17.6103 24.1772C19.7789 24.1772 21.8009 23.559 23.4982 22.4956H28.5497C29.6963 22.4956 30.629 21.5936 30.629 20.4847V6.8656C30.629 5.75678 29.6963 4.85473 28.5497 4.85473ZM11.2852 2.29118C11.4381 1.62343 12.0387 1.15701 12.7459 1.15701H22.4748C23.1819 1.15701 23.7826 1.62337 23.9353 2.29118L24.522 4.85473H23.4982C21.8008 3.79138 19.7789 3.1731 17.6103 3.1731C15.4417 3.1731 13.4198 3.79138 11.7224 4.85473H10.6986L11.2852 2.29118ZM3.36525 3.65426C3.36525 3.61573 3.39767 3.58443 3.43751 3.58443H7.53959C7.57943 3.58443 7.61186 3.61579 7.61186 3.65426V4.85473H3.36525V3.65426ZM4.80403 21.3385V15.0546C4.80403 14.7351 4.53621 14.4761 4.20581 14.4761C3.87541 14.4761 3.60759 14.7351 3.60759 15.0546V21.3385H2.07931C1.59253 21.3385 1.19645 20.9555 1.19645 20.4847V6.8656C1.19645 6.39479 1.59253 6.0118 2.07931 6.0118H2.76708H8.21008H9.9536H10.1934C8.0762 7.92941 6.75083 10.6552 6.75083 13.6751C6.75083 16.695 8.0762 19.4209 10.1934 21.3385H4.80403ZM23.1337 21.3385C22.4206 21.8207 21.6375 22.2121 20.8022 22.4956C19.8025 22.835 18.7284 23.0202 17.6103 23.0202C16.4922 23.0202 15.4181 22.8349 14.4184 22.4956C13.5831 22.2121 12.8001 21.8207 12.0869 21.3385C9.58629 19.6478 7.94728 16.8433 7.94728 13.6752C7.94728 10.5071 9.58629 7.70263 12.0869 6.01186C12.8 5.5297 13.5831 5.13832 14.4184 4.85478C15.4182 4.51541 16.4922 4.33023 17.6103 4.33023C18.7284 4.33023 19.8025 4.51547 20.8022 4.85478C21.6375 5.13832 22.4206 5.5297 23.1337 6.01186C25.6344 7.70263 27.2734 10.5071 27.2734 13.6752C27.2734 16.8433 25.6344 19.6478 23.1337 21.3385ZM29.4326 20.4847C29.4326 20.9555 29.0366 21.3385 28.5497 21.3385H25.0273C27.1445 19.4209 28.4698 16.695 28.4698 13.6751C28.4698 10.6552 27.1445 7.92941 25.0273 6.0118H25.267H28.5497C29.0366 6.0118 29.4326 6.39479 29.4326 6.8656V20.4847Z" fill="white"/>
<path d="M17.5089 8.40942C14.4473 8.40942 11.9565 10.8182 11.9565 13.7791C11.9565 16.7399 14.4473 19.1486 17.5089 19.1486C17.9549 19.1486 18.399 19.0973 18.8285 18.996C19.0555 18.9424 19.1945 18.7212 19.1392 18.5017C19.0839 18.2823 18.8551 18.1477 18.6282 18.2013C18.2641 18.2872 17.8875 18.3307 17.5089 18.3307C14.9137 18.3307 12.8024 16.2889 12.8024 13.7791C12.8024 11.2693 14.9137 9.22744 17.5089 9.22744C20.104 9.22744 22.2154 11.2693 22.2154 13.7791C22.2154 14.6938 21.9361 15.5758 21.4076 16.3297C21.2765 16.5167 21.327 16.771 21.5203 16.8978C21.7135 17.0245 21.9766 16.9757 22.1077 16.7887C22.7315 15.8989 23.0612 14.8582 23.0612 13.7791C23.0612 10.8182 20.5704 8.40942 17.5089 8.40942Z" fill="#00FFF9"/>
<path d="M4.20576 8.01172C2.97748 8.01172 1.97827 8.9781 1.97827 10.1659C1.97827 11.3537 2.97754 12.32 4.20576 12.32C5.43397 12.32 6.43324 11.3537 6.43324 10.1659C6.43324 8.9781 5.43397 8.01172 4.20576 8.01172ZM4.20576 11.163C3.63727 11.163 3.17472 10.7157 3.17472 10.1659C3.17472 9.61616 3.63727 9.16884 4.20576 9.16884C4.77425 9.16884 5.2368 9.61616 5.2368 10.1659C5.2368 10.7157 4.77431 11.163 4.20576 11.163Z" fill="#00FFF9"/>
</svg>
