<svg width="18" height="17" viewBox="0 0 18 17" fill="none" xmlns="http://www.w3.org/2000/svg">
<path d="M2.7826 16.739C2.17047 16.739 1.55797 16.5047 1.09181 16.0385C0.869533 15.8166 0.69319 15.5531 0.572873 15.2629C0.452555 14.9728 0.390625 14.6618 0.390625 14.3477C0.390625 14.0336 0.452555 13.7227 0.572873 13.4325C0.69319 13.1424 0.869533 12.8789 1.09181 12.6569L5.38002 8.36984L1.09254 4.08236C0.157662 3.14748 0.157662 1.63604 1.09254 0.701162C2.02743 -0.233721 3.53886 -0.233721 4.47375 0.701162L8.76122 4.98864L13.0487 0.701162C13.2706 0.478895 13.5341 0.302553 13.8242 0.182241C14.1143 0.0619287 14.4252 5.31971e-06 14.7393 5.31971e-06C15.0534 5.31971e-06 15.3643 0.0619287 15.6544 0.182241C15.9445 0.302553 16.208 0.478895 16.4299 0.701162C16.6522 0.923032 16.8285 1.18655 16.9488 1.47664C17.0691 1.76674 17.1311 2.07771 17.1311 2.39176C17.1311 2.70581 17.0691 3.01678 16.9488 3.30687C16.8285 3.59697 16.6522 3.86049 16.4299 4.08236L12.1424 8.36984L16.4299 12.6573C16.6522 12.8792 16.8285 13.1427 16.9488 13.4328C17.0691 13.7229 17.1311 14.0339 17.1311 14.3479C17.1311 14.662 17.0691 14.9729 16.9488 15.263C16.8285 15.5531 16.6522 15.8166 16.4299 16.0385C15.9634 16.5047 15.3516 16.739 14.7391 16.739C14.1266 16.739 13.5145 16.5047 13.0483 16.0385L8.76086 11.751L4.47338 16.0385C4.00685 16.5047 3.39473 16.739 2.7826 16.739Z" fill="white" fill-opacity="0.7"/>
</svg>
