<svg width="14" height="14" viewBox="0 0 14 14" fill="none" xmlns="http://www.w3.org/2000/svg">
<path fill-rule="evenodd" clip-rule="evenodd" d="M8.46269 7L13.6866 1.77612C14.1045 1.35821 14.1045 0.731343 13.6866 0.313433C13.2687 -0.104478 12.6418 -0.104478 12.2239 0.313433L7 5.53731L1.77612 0.313433C1.35821 -0.104478 0.731343 -0.104478 0.313433 0.313433C-0.104478 0.731343 -0.104478 1.35821 0.313433 1.77612L5.53731 7L0.313433 12.2239C-0.104478 12.6418 -0.104478 13.2687 0.313433 13.6866C0.731343 14.1045 1.35821 14.1045 1.77612 13.6866L7 8.46269L12.2239 13.6866C12.6418 14.1045 13.2687 14.1045 13.6866 13.6866C14.1045 13.2687 14.1045 12.6418 13.6866 12.2239L8.46269 7Z" fill="#2CFEFA"/>
</svg>
