<svg width="20" height="20" viewBox="0 0 20 20" fill="none" xmlns="http://www.w3.org/2000/svg">
<path d="M18.125 5H17.5V4.375C17.5 3.33945 16.6605 2.5 15.625 2.5H15V1.875C15 0.839453 14.1605 0 13.125 0H1.875C0.839453 0 0 0.839453 0 1.875V13.125C0 14.1605 0.839453 15 1.875 15H2.5V15.625C2.5 16.6605 3.33945 17.5 4.375 17.5H5V18.125C5 19.1605 5.83945 20 6.875 20H18.125C19.1605 20 20 19.1605 20 18.125V6.875C20 5.83945 19.1605 5 18.125 5ZM1.25 10.3687V1.875C1.25 1.5298 1.5298 1.25 1.875 1.25H13.125C13.4702 1.25 13.75 1.5298 13.75 1.875V7.86875L12.3187 6.4375C12.075 6.19516 11.6813 6.19516 11.4375 6.4375L8.75 9.11875L6.06875 6.43125C5.82496 6.18891 5.43129 6.18891 5.1875 6.43125L1.25 10.3687ZM4.375 16.25C4.0298 16.25 3.75 15.9702 3.75 15.625V15H13.125C14.1605 15 15 14.1605 15 13.125V3.75H15.625C15.9702 3.75 16.25 4.0298 16.25 4.375V15.625C16.25 15.9702 15.9702 16.25 15.625 16.25H4.375ZM18.75 18.125C18.75 18.4702 18.4702 18.75 18.125 18.75H6.875C6.5298 18.75 6.25 18.4702 6.25 18.125V17.5H15.625C16.6605 17.5 17.5 16.6605 17.5 15.625V6.25H18.125C18.4702 6.25 18.75 6.5298 18.75 6.875V18.125Z" fill="#2CFEFA"/>
</svg>
