<svg width="25" height="19" viewBox="0 0 25 19" fill="none" xmlns="http://www.w3.org/2000/svg">
<path d="M12.9498 13.0502C12.1873 12.2878 11.2799 11.7234 10.2897 11.3818C11.3502 10.6514 12.0469 9.42905 12.0469 8.04688C12.0469 5.81543 10.2314 4 8 4C5.76856 4 3.95312 5.81543 3.95312 8.04688C3.95312 9.42905 4.64982 10.6514 5.71029 11.3818C4.72017 11.7234 3.81269 12.2878 3.05026 13.0502C1.72814 14.3724 1 16.1302 1 18H2.09375C2.09375 14.7433 4.74328 12.0938 8 12.0938C11.2567 12.0938 13.9062 14.7433 13.9062 18H15C15 16.1302 14.2719 14.3724 12.9498 13.0502ZM8 11C6.37165 11 5.04688 9.67525 5.04688 8.04688C5.04688 6.4185 6.37165 5.09375 8 5.09375C9.62835 5.09375 10.9531 6.4185 10.9531 8.04688C10.9531 9.67525 9.62835 11 8 11Z" fill="#00FFF9" stroke="#00FFF9" stroke-width="0.5"/>
<path d="M22.2427 8.75734C21.5891 8.10386 20.8113 7.62009 19.9626 7.32723C20.8716 6.7012 21.4688 5.65347 21.4688 4.46875C21.4688 2.55609 19.9127 1 18 1C16.0873 1 14.5312 2.55609 14.5312 4.46875C14.5312 5.65347 15.1284 6.7012 16.0374 7.32723C15.1887 7.62009 14.4109 8.10386 13.7574 8.75734C12.6241 9.89062 12 11.3973 12 13H12.9375C12.9375 10.2085 15.2085 7.9375 18 7.9375C20.7915 7.9375 23.0625 10.2085 23.0625 13H24C24 11.3973 23.3759 9.89062 22.2427 8.75734ZM18 7C16.6043 7 15.4688 5.8645 15.4688 4.46875C15.4688 3.073 16.6043 1.9375 18 1.9375C19.3957 1.9375 20.5312 3.073 20.5312 4.46875C20.5312 5.8645 19.3957 7 18 7Z" fill="#00FFF9" stroke="#00FFF9" stroke-width="0.5"/>
</svg>
