<svg width="20" height="20" viewBox="0 0 20 20" fill="none" xmlns="http://www.w3.org/2000/svg">
<path d="M19.4141 14.413C19.0904 14.413 18.8281 14.6753 18.8281 14.9989C18.8281 15.5888 18.3482 16.0687 17.7583 16.0687C17.4727 16.0687 17.204 15.9575 17.002 15.7553C16.7999 15.5533 16.6887 15.2847 16.6887 14.9989C16.6887 13.2414 15.3261 11.7972 13.602 11.6646L15.5801 9.68628C15.5804 9.68597 15.5807 9.68582 15.5809 9.68552C15.5812 9.68536 15.5814 9.68506 15.5817 9.68475L17.7997 7.46658H17.7998C17.7998 7.46643 17.8 7.46643 17.8 7.46643L18.9091 6.35712C19.6127 5.65369 20 4.71863 20 3.72391C20 2.72934 19.6127 1.79413 18.9093 1.09085C18.206 0.387421 17.2708 0 16.2761 0C15.2814 0 14.3462 0.387421 13.6429 1.0907L10 4.73358L6.35727 1.09085C5.65384 0.387421 4.71878 0 3.72406 0C2.72934 0 1.79413 0.387421 1.0907 1.0907C-0.361176 2.54257 -0.361176 4.90509 1.0907 6.35727L4.73358 10L0.171661 14.5618C0.0616455 14.6716 0 14.8207 0 14.9762V18.309V18.3093V19.4139C0 19.7375 0.262299 19.9998 0.585938 19.9998H5.0238C5.17929 19.9998 5.32837 19.9382 5.43823 19.8283L10.0049 15.2615C10.1419 17.8975 12.3296 20 14.9991 20C17.7567 20 20 17.7565 20 14.9989C20 14.6753 19.7377 14.413 19.4141 14.413ZM5.0238 18.5854L1.41464 14.9762L10.7288 5.66208L12.119 7.05231L3.77167 15.3996C3.54279 15.6285 3.54279 15.9995 3.77167 16.2283C3.88611 16.3428 4.03595 16.4 4.18594 16.4C4.33594 16.4 4.48593 16.3428 4.60022 16.2283L12.9477 7.88101L14.3379 9.27124L5.0238 18.5854ZM1.93344 18.828L1.17188 18.0664V16.3907L3.60916 18.828H1.93344ZM12.9477 3.44315L16.5569 7.05231L15.1666 8.44269L13.3627 6.63864C13.3624 6.63849 13.3623 6.63818 13.362 6.63803C13.3618 6.63773 13.3615 6.63757 13.3614 6.63727L11.5573 4.83337L12.9477 3.44315ZM16.2761 1.17188C16.9577 1.17188 17.5986 1.43738 18.0806 1.9194C18.5626 2.40143 18.8281 3.0423 18.8281 3.72391C18.8281 4.40552 18.5626 5.04639 18.0806 5.52841L17.3856 6.2236L13.7762 2.61444L14.4714 1.9194C14.9535 1.43738 15.5943 1.17188 16.2761 1.17188ZM1.9194 5.52872C0.924377 4.53354 0.924225 2.91443 1.9194 1.9194C2.40143 1.43738 3.0423 1.17188 3.72406 1.17188C4.40567 1.17188 5.04654 1.43738 5.52856 1.9194L9.1713 5.56213L5.56213 9.1713L1.9194 5.52872ZM14.9991 18.828C12.8876 18.828 11.1699 17.1103 11.1699 14.9989C11.1699 14.4185 11.396 13.8727 11.8065 13.4621C12.2171 13.0515 12.7628 12.8255 13.3434 12.8255C14.5419 12.8255 15.5168 13.8005 15.5168 14.9989C15.5168 15.5977 15.75 16.1606 16.1734 16.584C16.5968 17.0074 17.1597 17.2406 17.7585 17.2406C17.8825 17.2406 18.0045 17.2304 18.123 17.2108C17.4286 18.1888 16.2871 18.828 14.9991 18.828Z" fill="white"/>
</svg>
