<svg width="36" height="36" viewBox="0 0 36 36" fill="none" xmlns="http://www.w3.org/2000/svg">
<path d="M34.7258 12.5645L24.2188 1.48959C23.0816 0.29089 21.1811 0.240885 19.9824 1.37812L2.69891 17.7754C2.0996 18.3441 1.7874 19.1035 1.76722 19.8706C1.74704 20.6377 2.01886 21.4125 2.58745 22.0119L5.22371 24.7906L2.17256 27.6853C2.03558 27.8153 1.96428 27.9884 1.95968 28.1633C1.95508 28.3382 2.01718 28.5148 2.14713 28.6518C2.40697 28.9256 2.83969 28.9371 3.11357 28.6772L6.16472 25.7825L7.37036 27.0534L0.231166 33.8266C0.094191 33.9565 0.0228896 34.1296 0.0182883 34.3045C0.0136869 34.4794 0.0757821 34.6561 0.205737 34.793C0.465577 35.0669 0.898296 35.0783 1.17225 34.8184L8.31151 28.0452L13.0944 33.0867C14.2317 34.2854 16.1322 34.3354 17.3309 33.1982L34.6143 16.8009C35.195 16.25 35.5264 15.5059 35.5474 14.7058C35.5685 13.9056 35.2767 13.1452 34.7258 12.5645ZM14.7311 32.5609C14.4933 32.4783 14.2711 32.3405 14.0862 32.1457L3.57932 21.0709C3.16471 20.6338 3.04175 20.0255 3.20128 19.4856L15.0669 19.7978L14.7311 32.5609ZM12.6326 18.366L14.7124 16.3929C14.9862 16.1331 14.9977 15.7004 14.7378 15.4265C14.4779 15.1526 14.0452 15.1411 13.7714 15.401L10.6997 18.3152L8.70862 18.2628L15.0494 12.2471C15.3232 11.9873 15.3346 11.5546 15.0748 11.2806C14.815 11.0068 14.3822 10.9954 14.1083 11.2552L6.77573 18.2119L4.29423 18.1466L20.2692 2.99075L19.9025 16.9273C19.8788 17.8255 19.1289 18.537 18.2307 18.5133L12.6326 18.366ZM33.6734 15.8091L16.3898 32.2063C16.3007 32.2909 16.2039 32.3623 16.1025 32.4228L16.4337 19.8338L18.1949 19.8801C19.8466 19.9236 21.2258 18.6151 21.2693 16.9633L21.3156 15.2022L29.1489 15.4083L25.0903 19.2588C24.9534 19.3887 24.882 19.5619 24.8774 19.7368C24.8728 19.9117 24.9349 20.0883 25.0648 20.2253C25.3247 20.4991 25.7574 20.5105 26.0313 20.2507L31.0813 15.4597C31.0814 15.4595 31.0816 15.4593 31.0817 15.4592L33.906 15.5335C33.8395 15.6325 33.762 15.725 33.6734 15.8091ZM21.3515 13.8354L21.6637 1.96979C22.2114 1.83888 22.8123 1.99365 23.2269 2.43067L33.7339 13.5055C33.9157 13.6971 34.0452 13.9247 34.1167 14.1713L21.3515 13.8354Z" fill="#2CFEFA"/>
<path d="M16.7921 9.65207C16.6684 9.52093 16.494 9.44385 16.3142 9.43912C16.1338 9.43438 15.9563 9.50219 15.8258 9.62664C15.6954 9.75041 15.6176 9.92411 15.6129 10.1045C15.6081 10.2843 15.6766 10.4625 15.8004 10.5929C15.9242 10.7234 16.0979 10.8011 16.2783 10.8059C16.458 10.8106 16.6362 10.7421 16.7667 10.6184C16.8972 10.4946 16.9749 10.3202 16.9796 10.1405C16.9844 9.96008 16.9159 9.78252 16.7921 9.65207Z" fill="white"/>
<path d="M1.31654 29.4392C1.19278 29.3087 1.01839 29.231 0.838657 29.2262C0.658927 29.2215 0.48069 29.29 0.350236 29.4138C0.219783 29.5375 0.142021 29.7119 0.137292 29.8916C0.132563 30.0714 0.201046 30.2496 0.324811 30.3801C0.448576 30.5105 0.622965 30.5883 0.802695 30.593C0.983109 30.5977 1.16066 30.5292 1.29112 30.4055C1.42225 30.2817 1.49933 30.1073 1.50406 29.9276C1.50879 29.7479 1.44099 29.5696 1.31654 29.4392Z" fill="white"/>
<path d="M8.79338 30.9453C8.53348 30.6714 8.10076 30.66 7.82687 30.9199L4.64155 33.9419C4.50465 34.0718 4.43328 34.245 4.42868 34.4198C4.42408 34.5947 4.48617 34.7714 4.61612 34.9084C4.87603 35.1823 5.30875 35.1937 5.58263 34.9338L8.76795 31.9118C9.04177 31.6519 9.05316 31.2192 8.79338 30.9453Z" fill="#2CFEFA"/>
</svg>
