<svg width="26" height="26" viewBox="0 0 26 26" fill="none" xmlns="http://www.w3.org/2000/svg">
<path d="M22.4962 0H3.50355C1.56863 0 0 1.56857 0 3.50355V22.4963C0 24.4313 1.56857 25.9999 3.50355 25.9999H12.8706L12.8866 16.7089H10.4728C10.1591 16.7089 9.90452 16.4553 9.90331 16.1416L9.89174 13.1467C9.89053 12.8313 10.1459 12.575 10.4613 12.575H12.8707V9.68121C12.8707 6.32299 14.9217 4.49442 17.9174 4.49442H20.3757C20.6902 4.49442 20.9452 4.7494 20.9452 5.06398V7.58926C20.9452 7.90371 20.6904 8.15863 20.376 8.15882L18.8674 8.15952C17.2382 8.15952 16.9228 8.93369 16.9228 10.0698V12.5751H20.5026C20.8437 12.5751 21.1084 12.8729 21.0682 13.2117L20.7132 16.2065C20.6793 16.4931 20.4362 16.7091 20.1477 16.7091H16.9387L16.9228 26H22.4963C24.4312 26 25.9998 24.4314 25.9998 22.4965V3.50355C25.9997 1.56857 24.4312 0 22.4962 0Z" fill="white"/>
</svg>
