<svg width="21" height="20" viewBox="0 0 21 20" fill="none" xmlns="http://www.w3.org/2000/svg">
<path d="M17.7382 19H12.8392C12.6135 19 12.4309 18.825 12.4309 18.6087V13.5217H9.16494V18.6087C9.16494 18.825 8.98235 19 8.75669 19H3.85773C3.63206 19 3.44947 18.825 3.44947 18.6087V10.7826C3.44947 10.5663 3.63206 10.3913 3.85773 10.3913C4.08339 10.3913 4.26598 10.5663 4.26598 10.7826V18.2174H8.34847V13.1305C8.34847 12.9142 8.53106 12.7391 8.75672 12.7391H12.8392C13.0649 12.7391 13.2475 12.9142 13.2475 13.1305V18.2174H17.3299V11.1739C17.3299 10.9576 17.5125 10.7826 17.7382 10.7826C17.9639 10.7826 18.1465 10.9576 18.1465 11.1739V18.6087C18.1464 18.825 17.9638 19 17.7382 19ZM20.1876 10.7826C20.0832 10.7826 19.9787 10.7444 19.899 10.668L10.7979 1.94465L1.69689 10.668C1.53742 10.8208 1.27907 10.8208 1.1196 10.668C0.960132 10.5151 0.960132 10.2675 1.1196 10.1147L10.5093 1.11464C10.6688 0.961787 10.9271 0.961787 11.0866 1.11464L20.4763 10.1147C20.6358 10.2675 20.6358 10.5151 20.4763 10.668C20.3965 10.7444 20.2921 10.7826 20.1876 10.7826ZM16.9217 5.30434C16.696 5.30434 16.5134 5.12933 16.5134 4.91303V2.56522H14.0639C13.8382 2.56522 13.6556 2.39021 13.6556 2.17391C13.6556 1.95761 13.8382 1.7826 14.0639 1.7826H16.9217C17.1473 1.7826 17.3299 1.95761 17.3299 2.17391V4.91303C17.3299 5.12933 17.1473 5.30434 16.9217 5.30434Z" fill="#00FFF9" stroke="#00FFF9" stroke-width="0.8"/>
</svg>
