<svg width="13" height="13" viewBox="0 0 13 13" fill="none" xmlns="http://www.w3.org/2000/svg">
<path fill-rule="evenodd" clip-rule="evenodd" d="M7.85821 6.5L12.709 1.64925C13.097 1.26119 13.097 0.679104 12.709 0.291045C12.3209 -0.0970149 11.7388 -0.0970149 11.3507 0.291045L6.5 5.14179L1.64925 0.291045C1.26119 -0.0970149 0.679104 -0.0970149 0.291045 0.291045C-0.0970149 0.679104 -0.0970149 1.26119 0.291045 1.64925L5.14179 6.5L0.291045 11.3507C-0.0970149 11.7388 -0.0970149 12.3209 0.291045 12.709C0.679104 13.097 1.26119 13.097 1.64925 12.709L6.5 7.85821L11.3507 12.709C11.7388 13.097 12.3209 13.097 12.709 12.709C13.097 12.3209 13.097 11.7388 12.709 11.3507L7.85821 6.5Z" fill="#FB7171"/>
</svg>
