<svg width="20" height="15" viewBox="0 0 20 15" fill="none" xmlns="http://www.w3.org/2000/svg">
<path d="M3.10382 8.34522H13.6362C14.1383 8.34522 14.5453 7.93819 14.5453 7.43613C14.5453 6.93407 14.1383 6.52704 13.6362 6.52704H3.10382L4.27921 5.35171C4.63424 4.99674 4.63424 4.42111 4.27921 4.06608C3.9243 3.71105 3.34867 3.71105 2.99358 4.06608L0.266485 6.79317C0.245394 6.8142 0.225515 6.8362 0.206606 6.85923C0.202 6.86486 0.198061 6.87092 0.193576 6.87668C0.179697 6.89432 0.166061 6.91201 0.153576 6.93068C0.149939 6.93613 0.14697 6.94189 0.143394 6.94741C0.130909 6.96692 0.118667 6.98662 0.107636 7.00716C0.105515 7.01122 0.103758 7.01553 0.101636 7.01959C0.0901818 7.04183 0.0791515 7.06438 0.0695152 7.08765C0.068303 7.0905 0.0674545 7.09353 0.066303 7.09644C0.0564242 7.12092 0.0472727 7.14571 0.0395152 7.17122C0.0384848 7.17444 0.0379394 7.17777 0.0370303 7.18104C0.029697 7.20607 0.0229697 7.23135 0.0178182 7.25723C0.016303 7.26492 0.0156364 7.27286 0.0142424 7.28062C0.0104848 7.30207 0.00672727 7.32353 0.00460606 7.34541C0.00151515 7.37541 0 7.40571 0 7.43613C0 7.46656 0.00151515 7.49686 0.00460606 7.52692C0.00672727 7.5491 0.0106061 7.57074 0.014303 7.59238C0.0156364 7.59989 0.016303 7.60759 0.0178182 7.61504C0.0230303 7.64116 0.029697 7.66668 0.0370909 7.69195C0.038 7.69492 0.0385455 7.69807 0.0394545 7.70104C0.0472727 7.72668 0.0564242 7.75171 0.0664242 7.77644C0.0675151 7.7791 0.068303 7.78195 0.0694546 7.78462C0.0791515 7.80807 0.0902424 7.83074 0.101818 7.8531C0.103818 7.85704 0.105515 7.86116 0.107576 7.8651C0.118727 7.88577 0.13103 7.90565 0.143697 7.92535C0.147091 7.93068 0.15 7.93632 0.153515 7.94153C0.166061 7.96025 0.179818 7.97807 0.193636 7.99577C0.198061 8.00147 0.202 8.00747 0.206545 8.01304C0.225515 8.03601 0.245394 8.05807 0.266424 8.0791L2.99352 10.8062C3.17103 10.9838 3.4037 11.0725 3.63636 11.0725C3.86903 11.0725 4.1017 10.9838 4.27915 10.8062C4.63418 10.4512 4.63418 9.87559 4.27915 9.52056L3.10382 8.34522Z" fill="#00FFF9"/>
<path d="M12.5638 0C10.0823 0 7.77359 1.23103 6.38783 3.29291C6.10783 3.70957 6.21862 4.27442 6.63529 4.55448C7.05201 4.83448 7.6168 4.72381 7.89692 4.30702C8.94426 2.74854 10.6889 1.81812 12.5638 1.81812C15.6617 1.81818 18.182 4.33848 18.182 7.43641C18.182 10.5344 15.6617 13.0546 12.5638 13.0546C10.6944 13.0546 8.95262 12.1284 7.9045 10.577C7.62335 10.161 7.05838 10.0516 6.64226 10.3327C6.22626 10.6137 6.1168 11.1788 6.39789 11.5948C7.78462 13.6474 10.0896 14.8728 12.5638 14.8728C16.6642 14.8728 20.0002 11.5369 20.0002 7.43641C20.0002 3.33594 16.6642 0 12.5638 0Z" fill="#00FFF9"/>
</svg>
