<svg width="23" height="19" viewBox="0 0 23 19" fill="none" xmlns="http://www.w3.org/2000/svg">
<path d="M17.8631 18H4.70997C4.09277 18 3.58156 17.5368 3.52046 16.9227L2.65763 8.27634C2.64891 8.18844 2.67758 8.10116 2.73681 8.03632C2.79604 7.97086 2.87958 7.93345 2.9681 7.93345H19.6062C19.6941 7.93345 19.7783 7.97086 19.8375 8.03632C19.8967 8.10116 19.9254 8.18906 19.9167 8.27634L19.0545 16.9227C18.9922 17.5368 18.4803 18 17.8631 18ZM3.31161 8.55751L4.14015 16.861C4.16945 17.1552 4.41384 17.3766 4.70935 17.3766H17.8631C18.1586 17.3766 18.4036 17.1552 18.4329 16.861L19.2615 8.55751H3.31161Z" fill="#00FFF9"/>
<path d="M5.74044 4.89075C5.65129 4.89075 5.56276 4.85272 5.50167 4.77915C5.39007 4.64761 5.40753 4.4506 5.5397 4.34026L9.43365 1.07348C9.56644 0.96313 9.76282 0.979962 9.87254 1.11213C9.98351 1.24367 9.96606 1.44068 9.83389 1.55103L5.93994 4.8178C5.88196 4.86643 5.81089 4.89075 5.74044 4.89075Z" fill="#00FFF9"/>
<path d="M16.833 4.89049C16.7625 4.89049 16.6914 4.86618 16.6328 4.81755L12.7383 1.55077C12.6067 1.4398 12.5893 1.24342 12.6996 1.11125C12.8112 0.979709 13.007 0.962253 13.1391 1.0726L17.0337 4.33938C17.1652 4.45035 17.1827 4.64673 17.0724 4.7789C17.0106 4.85246 16.9221 4.89049 16.833 4.89049Z" fill="#00FFF9"/>
<path d="M20.4978 8.55752H2.07542C1.48254 8.55752 1 8.07498 1 7.4821V5.48837C1 4.89548 1.48254 4.41295 2.07542 4.41295H20.4978C21.0907 4.41295 21.5732 4.89548 21.5732 5.48837V7.4821C21.5732 8.07498 21.0913 8.55752 20.4978 8.55752ZM2.07542 5.03576C1.82605 5.03576 1.62343 5.23837 1.62343 5.48774V7.48148C1.62343 7.73085 1.82605 7.93346 2.07542 7.93346H20.4978C20.7466 7.93346 20.9498 7.73085 20.9498 7.48148V5.48774C20.9498 5.23837 20.7472 5.03576 20.4978 5.03576H2.07542Z" fill="#00FFF9"/>
<path d="M6.76978 15.4527C6.59772 15.4527 6.45807 15.313 6.45807 15.1409V10.6211C6.45807 10.449 6.59772 10.3094 6.76978 10.3094C6.94185 10.3094 7.0815 10.449 7.0815 10.6211V15.1409C7.0815 15.3136 6.94247 15.4527 6.76978 15.4527Z" fill="#00FFF9"/>
<path d="M9.78107 15.4527C9.609 15.4527 9.46935 15.313 9.46935 15.1409V10.6211C9.46935 10.449 9.609 10.3094 9.78107 10.3094C9.95313 10.3094 10.0928 10.449 10.0928 10.6211V15.1409C10.0928 15.3136 9.95376 15.4527 9.78107 15.4527Z" fill="#00FFF9"/>
<path d="M12.7923 15.4527C12.6202 15.4527 12.4806 15.313 12.4806 15.1409V10.6211C12.4806 10.449 12.6202 10.3094 12.7923 10.3094C12.9644 10.3094 13.104 10.449 13.104 10.6211V15.1409C13.104 15.3136 12.9644 15.4527 12.7923 15.4527Z" fill="#00FFF9"/>
<path d="M15.8035 15.4527C15.6314 15.4527 15.4918 15.313 15.4918 15.1409V10.6211C15.4918 10.449 15.6314 10.3094 15.8035 10.3094C15.9756 10.3094 16.1152 10.449 16.1152 10.6211V15.1409C16.1152 15.3136 15.9756 15.4527 15.8035 15.4527Z" fill="#00FFF9"/>
<path d="M17.8631 18H4.70997C4.09277 18 3.58156 17.5368 3.52046 16.9227L2.65763 8.27634C2.64891 8.18844 2.67758 8.10116 2.73681 8.03632C2.79604 7.97086 2.87958 7.93345 2.9681 7.93345H19.6062C19.6941 7.93345 19.7783 7.97086 19.8375 8.03632C19.8967 8.10116 19.9254 8.18906 19.9167 8.27634L19.0545 16.9227C18.9922 17.5368 18.4803 18 17.8631 18ZM3.31161 8.55751L4.14015 16.861C4.16945 17.1552 4.41384 17.3766 4.70935 17.3766H17.8631C18.1586 17.3766 18.4036 17.1552 18.4329 16.861L19.2615 8.55751H3.31161Z" stroke="#00FFF9"/>
<path d="M5.74044 4.89075C5.65129 4.89075 5.56276 4.85272 5.50167 4.77915C5.39007 4.64761 5.40753 4.4506 5.5397 4.34026L9.43365 1.07348C9.56644 0.96313 9.76282 0.979962 9.87254 1.11213C9.98351 1.24367 9.96606 1.44068 9.83389 1.55103L5.93994 4.8178C5.88196 4.86643 5.81089 4.89075 5.74044 4.89075Z" stroke="#00FFF9"/>
<path d="M16.833 4.89049C16.7625 4.89049 16.6914 4.86618 16.6328 4.81755L12.7383 1.55077C12.6067 1.4398 12.5893 1.24342 12.6996 1.11125C12.8112 0.979709 13.007 0.962253 13.1391 1.0726L17.0337 4.33938C17.1652 4.45035 17.1827 4.64673 17.0724 4.7789C17.0106 4.85246 16.9221 4.89049 16.833 4.89049Z" stroke="#00FFF9"/>
<path d="M20.4978 8.55752H2.07542C1.48254 8.55752 1 8.07498 1 7.4821V5.48837C1 4.89548 1.48254 4.41295 2.07542 4.41295H20.4978C21.0907 4.41295 21.5732 4.89548 21.5732 5.48837V7.4821C21.5732 8.07498 21.0913 8.55752 20.4978 8.55752ZM2.07542 5.03576C1.82605 5.03576 1.62343 5.23837 1.62343 5.48774V7.48148C1.62343 7.73085 1.82605 7.93346 2.07542 7.93346H20.4978C20.7466 7.93346 20.9498 7.73085 20.9498 7.48148V5.48774C20.9498 5.23837 20.7472 5.03576 20.4978 5.03576H2.07542Z" stroke="#00FFF9"/>
<path d="M6.76978 15.4527C6.59772 15.4527 6.45807 15.313 6.45807 15.1409V10.6211C6.45807 10.449 6.59772 10.3094 6.76978 10.3094C6.94185 10.3094 7.0815 10.449 7.0815 10.6211V15.1409C7.0815 15.3136 6.94247 15.4527 6.76978 15.4527Z" stroke="#00FFF9"/>
<path d="M9.78107 15.4527C9.609 15.4527 9.46935 15.313 9.46935 15.1409V10.6211C9.46935 10.449 9.609 10.3094 9.78107 10.3094C9.95313 10.3094 10.0928 10.449 10.0928 10.6211V15.1409C10.0928 15.3136 9.95376 15.4527 9.78107 15.4527Z" stroke="#00FFF9"/>
<path d="M12.7923 15.4527C12.6202 15.4527 12.4806 15.313 12.4806 15.1409V10.6211C12.4806 10.449 12.6202 10.3094 12.7923 10.3094C12.9644 10.3094 13.104 10.449 13.104 10.6211V15.1409C13.104 15.3136 12.9644 15.4527 12.7923 15.4527Z" stroke="#00FFF9"/>
<path d="M15.8035 15.4527C15.6314 15.4527 15.4918 15.313 15.4918 15.1409V10.6211C15.4918 10.449 15.6314 10.3094 15.8035 10.3094C15.9756 10.3094 16.1152 10.449 16.1152 10.6211V15.1409C16.1152 15.3136 15.9756 15.4527 15.8035 15.4527Z" stroke="#00FFF9"/>
</svg>
