<svg width="23" height="20" viewBox="0 0 23 20" fill="none" xmlns="http://www.w3.org/2000/svg">
<path d="M18.6825 18.8266H4.89003C4.24284 18.8266 3.70678 18.3409 3.64271 17.6969L2.73794 8.63031C2.72879 8.53813 2.75886 8.44661 2.82097 8.37862C2.88307 8.30998 2.97067 8.27075 3.0635 8.27075H20.5104C20.6025 8.27075 20.6908 8.30998 20.7529 8.37862C20.815 8.44661 20.8451 8.53878 20.8359 8.63031L19.9318 17.6969C19.8664 18.3409 19.3297 18.8266 18.6825 18.8266ZM3.42371 8.92514L4.29252 17.6322C4.32325 17.9408 4.57951 18.1729 4.88938 18.1729H18.6825C18.9924 18.1729 19.2493 17.9408 19.28 17.6322L20.1488 8.92514H3.42371Z" fill="white" stroke="white" stroke-width="0.75"/>
<path d="M5.97109 5.08013C5.8776 5.08013 5.78477 5.04026 5.72071 4.96312C5.60369 4.82518 5.62199 4.6186 5.76059 4.50289L9.84381 1.07732C9.98305 0.961609 10.189 0.97926 10.304 1.11785C10.4204 1.25579 10.4021 1.46237 10.2635 1.57808L6.18028 5.00365C6.11949 5.05464 6.04496 5.08013 5.97109 5.08013Z" fill="white" stroke="white" stroke-width="0.75"/>
<path d="M17.6028 5.0796C17.5289 5.0796 17.4544 5.0541 17.3929 5.00311L13.309 1.57754C13.1711 1.46118 13.1528 1.25525 13.2685 1.11666C13.3855 0.978723 13.5908 0.960418 13.7294 1.07613L17.8133 4.5017C17.9512 4.61806 17.9695 4.82399 17.8538 4.96258C17.7891 5.03972 17.6963 5.0796 17.6028 5.0796Z" fill="white" stroke="white" stroke-width="0.75"/>
<path d="M21.4455 8.92513H2.12769C1.50599 8.92513 1 8.41914 1 7.79743V5.70679C1 5.08509 1.50599 4.5791 2.12769 4.5791H21.4455C22.0672 4.5791 22.5732 5.08509 22.5732 5.70679V7.79743C22.5732 8.41914 22.0679 8.92513 21.4455 8.92513ZM2.12769 5.23218C1.8662 5.23218 1.65373 5.44465 1.65373 5.70614V7.79678C1.65373 8.05827 1.8662 8.27074 2.12769 8.27074H21.4455C21.7064 8.27074 21.9195 8.05827 21.9195 7.79678V5.70614C21.9195 5.44465 21.707 5.23218 21.4455 5.23218H2.12769Z" fill="white" stroke="white" stroke-width="0.75"/>
<path d="M7.0505 16.1555C6.87007 16.1555 6.72363 16.0091 6.72363 15.8286V11.0891C6.72363 10.9086 6.87007 10.7622 7.0505 10.7622C7.23093 10.7622 7.37737 10.9086 7.37737 11.0891V15.8286C7.37737 16.0097 7.23158 16.1555 7.0505 16.1555Z" fill="white" stroke="white" stroke-width="0.75"/>
<path d="M10.2087 16.1558C10.0283 16.1558 9.88184 16.0093 9.88184 15.8289V11.0893C9.88184 10.9089 10.0283 10.7625 10.2087 10.7625C10.3891 10.7625 10.5356 10.9089 10.5356 11.0893V15.8289C10.5356 16.01 10.3898 16.1558 10.2087 16.1558Z" fill="white" stroke="white" stroke-width="0.75"/>
<path d="M13.3659 16.1558C13.1855 16.1558 13.0391 16.0093 13.0391 15.8289V11.0893C13.0391 10.9089 13.1855 10.7625 13.3659 10.7625C13.5464 10.7625 13.6928 10.9089 13.6928 11.0893V15.8289C13.6928 16.01 13.5464 16.1558 13.3659 16.1558Z" fill="white" stroke="white" stroke-width="0.75"/>
<path d="M16.5232 16.1558C16.3427 16.1558 16.1963 16.0093 16.1963 15.8289V11.0893C16.1963 10.9089 16.3427 10.7625 16.5232 10.7625C16.7036 10.7625 16.85 10.9089 16.85 11.0893V15.8289C16.85 16.01 16.7036 16.1558 16.5232 16.1558Z" fill="white" stroke="white" stroke-width="0.75"/>
</svg>
