<svg width="22" height="19" viewBox="0 0 22 19" fill="none" xmlns="http://www.w3.org/2000/svg">
<path d="M1.00176 9.61596C1.02624 10.028 1.29955 10.3747 1.69524 10.493L9.02164 12.7081L9.29087 17.7582C9.30311 17.9581 9.43772 18.1335 9.62945 18.1988C9.68248 18.2192 9.73959 18.2273 9.79262 18.2273C9.9354 18.2273 10.07 18.1702 10.1679 18.0601L12.7583 15.1923L16.4296 17.7337C16.5928 17.848 16.7845 17.9091 16.9844 17.9091C17.4454 17.9091 17.8451 17.5828 17.943 17.1259L20.9903 1.59607C21.027 1.41659 20.9576 1.22894 20.8189 1.11472C20.6762 0.996419 20.4844 0.967864 20.3131 1.03721L1.58918 8.65732C1.2098 8.82865 0.977285 9.20395 1.00176 9.61596ZM10.2209 16.5059L10.0537 13.3199L11.9302 14.6172L10.2209 16.5059ZM16.9681 16.8934L10.2862 12.2675L19.6563 3.20331L16.9681 16.8934ZM18.6284 2.80354L9.3643 11.7657L2.04606 9.55477L18.6284 2.80354Z" fill="#00FFF9" stroke="#00FFF9" stroke-width="0.4"/>
</svg>
