<svg width="23" height="21" viewBox="0 0 23 21" fill="none" xmlns="http://www.w3.org/2000/svg">
<path fill-rule="evenodd" clip-rule="evenodd" d="M15 17H2V16.1961L3.6315 9.75192C4.19143 7.54275 6.19343 6 8.5 6C10.8066 6 12.8086 7.54275 13.3685 9.75192L15 16.1961V17ZM16.9717 16.0483L15.2839 9.29644C14.5038 6.17789 11.7139 4 8.5 4C5.28606 4 2.49617 6.17789 1.71606 9.29644L0.0283333 16.0483C0.00944444 16.1238 0 16.2003 0 16.2778V18.1667C0 18.688 0.422167 19.1111 0.944444 19.1111H5.84044C6.2305 20.2095 7.2675 21 8.5 21C9.7325 21 10.7695 20.2095 11.1596 19.1111H16.0556C16.5778 19.1111 17 18.688 17 18.1667V16.2778C17 16.2003 16.9906 16.1238 16.9717 16.0483Z" fill="white"/>
<circle cx="19.5" cy="3.5" r="3.5" fill="#00FFF9"/>
</svg>
