<svg width="36" height="37" viewBox="0 0 36 37" fill="none" xmlns="http://www.w3.org/2000/svg">
<path d="M6.80276 2.01277C7.03207 1.78082 7.03207 1.40591 6.80276 1.17396C6.57344 0.942013 6.20279 0.942013 5.97348 1.17396C-0.657825 7.88147 -0.657825 18.7955 5.97348 25.503C6.08843 25.6187 6.23856 25.6768 6.38812 25.6768C6.53767 25.6768 6.68839 25.6187 6.80276 25.503C7.03207 25.2711 7.03207 24.8961 6.80276 24.6642C0.628906 18.4188 0.628906 8.25757 6.80276 2.01277Z" fill="#FB7171" stroke="#FB7171" stroke-width="0.5"/>
<path d="M30.0257 1.17396C29.7964 0.942013 29.4257 0.942013 29.1964 1.17396C28.9671 1.40591 28.9671 1.78082 29.1964 2.01277C32.1827 5.03284 33.8272 9.05486 33.8272 13.3385C33.8272 17.6221 32.1827 21.6441 29.1964 24.6642C28.9671 24.8961 28.9671 25.2711 29.1964 25.503C29.3108 25.6187 29.4609 25.6768 29.611 25.6768C29.7612 25.6768 29.9113 25.6187 30.0257 25.503C33.2337 22.2587 34.9996 17.9389 34.9996 13.3385C34.9996 8.73808 33.2337 4.41827 30.0257 1.17396Z" fill="#FB7171" stroke="#FB7171" stroke-width="0.5"/>
<path d="M9.2915 4.52913C9.52082 4.29718 9.52082 3.92227 9.2915 3.69032C9.06219 3.45837 8.69154 3.45837 8.46223 3.69032C3.2027 9.0103 3.2027 17.6665 8.46223 22.9859C8.57659 23.1016 8.72673 23.1597 8.87687 23.1597C9.027 23.1597 9.17714 23.1016 9.2915 22.9859C9.52082 22.754 9.52082 22.3791 9.2915 22.1471C4.48943 17.2898 4.48943 9.38699 9.2915 4.52913Z" fill="#FB7171" stroke="#FB7171" stroke-width="0.5"/>
<path d="M27.5384 3.69032C27.3091 3.45837 26.9384 3.45837 26.7091 3.69032C26.4798 3.92227 26.4798 4.29718 26.7091 4.52913C31.5112 9.3864 31.5112 17.2898 26.7091 22.1471C26.4798 22.3791 26.4798 22.754 26.7091 22.9859C26.8235 23.1016 26.9736 23.1597 27.1237 23.1597C27.2739 23.1597 27.424 23.1016 27.5384 22.9859C32.7979 17.6665 32.7979 9.0103 27.5384 3.69032Z" fill="#FB7171" stroke="#FB7171" stroke-width="0.5"/>
<path d="M11.7794 6.20741C11.5501 5.97546 11.1795 5.97546 10.9501 6.20741C9.0699 8.10926 8.03418 10.6417 8.03418 13.3385C8.03418 16.0352 9.0699 18.5671 10.9501 20.4696C11.0645 20.5852 11.2146 20.6434 11.3648 20.6434C11.5149 20.6434 11.6651 20.5852 11.7794 20.4696C12.0087 20.2376 12.0087 19.8627 11.7794 19.6307C8.34912 16.161 8.34912 10.5165 11.7794 7.04681C12.0082 6.81486 12.0082 6.43936 11.7794 6.20741Z" fill="#FB7171" stroke="#FB7171" stroke-width="0.5"/>
<path d="M25.0501 6.20741C24.8208 5.97546 24.4501 5.97546 24.2208 6.20741C23.9915 6.43936 23.9915 6.81427 24.2208 7.04622C27.6511 10.5159 27.6511 16.1604 24.2208 19.6301C23.9915 19.8621 23.9915 20.237 24.2208 20.469C24.3352 20.5846 24.4853 20.6428 24.6355 20.6428C24.7856 20.6428 24.9357 20.5846 25.0501 20.469C26.9303 18.5671 27.9661 16.0347 27.9661 13.3379C27.9661 10.6411 26.9303 8.10926 25.0501 6.20741Z" fill="#FB7171" stroke="#FB7171" stroke-width="0.5"/>
<path d="M17.9999 9.30518C15.7367 9.30518 13.8945 11.1685 13.8945 13.4577C13.8945 15.5452 15.4276 17.2733 17.4134 17.5628V35.4068C17.4134 35.7348 17.6756 36 17.9999 36C18.3242 36 18.5863 35.7348 18.5863 35.4068V17.5628C20.5722 17.2733 22.1052 15.5452 22.1052 13.4577C22.1052 11.1685 20.2637 9.30518 17.9999 9.30518ZM17.9999 16.4238C16.383 16.4238 15.0675 15.0932 15.0675 13.4577C15.0675 11.8222 16.383 10.4916 17.9999 10.4916C19.6168 10.4916 20.9323 11.8222 20.9323 13.4577C20.9323 15.0932 19.6168 16.4238 17.9999 16.4238Z" fill="white" stroke="white" stroke-width="0.5"/>
</svg>
