<svg width="20" height="20" viewBox="0 0 20 20" fill="none" xmlns="http://www.w3.org/2000/svg">
<g clip-path="url(#clip0)">
<path d="M14.8187 5.47119C14.8187 5.80255 14.5501 6.07118 14.2187 6.07118C13.8874 6.07118 13.6187 5.80255 13.6187 5.47119C13.6187 5.13982 13.8874 4.87119 14.2187 4.87119C14.5501 4.87119 14.8187 5.13982 14.8187 5.47119Z" fill="white" stroke="white" stroke-width="1.3"/>
<path d="M16.8681 3.07884L16.8681 3.07881C15.6853 1.90151 14.2603 1.19926 13.2589 0.816468C12.3468 0.467885 11.3093 0.68792 10.6176 1.37633L7.54976 4.42983L7.54975 4.42984C6.83039 5.1458 6.62373 6.25048 7.03289 7.17065L7.03291 7.17069C7.18681 7.51686 7.35406 7.85518 7.53254 8.18166L7.76606 8.60883L7.42182 8.95307L0.688445 15.6864C0.663832 15.711 0.65 15.7444 0.65 15.7792V19.2167C0.65 19.2892 0.708749 19.348 0.781247 19.348H4.21873C4.29123 19.348 4.34998 19.2892 4.34998 19.2167V17.8105V17.1605L4.99996 17.1605L6.40622 17.1604C6.47872 17.1604 6.53747 17.1017 6.53747 17.0292V15.623V14.973H7.18747H8.59372C8.66621 14.973 8.72496 14.9142 8.72496 14.8417C8.72496 14.7692 8.66621 14.7105 8.59372 14.7105H6.40622C6.33373 14.7105 6.27498 14.7692 6.27498 14.8417V16.2479V16.8979L5.625 16.8979L4.21873 16.898C4.14624 16.898 4.08749 16.9567 4.08749 17.0292V18.4355V19.0855H3.43749H1.56249H0.912494V18.4355V16.1028V15.8336L1.10288 15.6432L8.03078 8.71535C8.07357 8.67256 8.08158 8.60612 8.0502 8.5544C7.7647 8.08382 7.50334 7.58248 7.27283 7.06399L16.8681 3.07884ZM16.8681 3.07884C18.0557 4.26081 18.7797 5.7027 19.1792 6.72004C19.5385 7.6349 19.3205 8.67395 18.6234 9.36778L19.0819 9.82848L18.6234 9.36778L15.5185 12.4581C15.5185 12.4581 15.5185 12.4581 15.5185 12.4581C14.8042 13.169 13.7407 13.3783 12.805 12.989L12.805 12.989C12.2723 12.7675 11.7563 12.5042 11.2718 12.2068C11.2101 12.1689 11.1907 12.0881 11.2287 12.0263C11.2666 11.9644 11.3474 11.9452 11.4091 11.983L11.4091 11.983C11.883 12.2739 12.3864 12.5306 12.9058 12.7467L12.9058 12.7467C13.7389 13.0932 14.6936 12.9087 15.3333 12.2721L15.3333 12.2721L18.4382 9.18169C19.0606 8.56221 19.2559 7.63341 18.9349 6.81596L18.9349 6.81593C18.5556 5.85021 17.8553 4.43162 16.683 3.26483C15.517 2.1043 14.1171 1.42548 13.1653 1.06167L13.1652 1.06165C12.3488 0.749726 11.4224 0.945837 10.8029 1.56232L10.8029 1.56235L7.73502 4.61581L7.73502 4.61582M16.8681 3.07884L7.73502 4.61582M7.73502 4.61582C7.09279 5.25506 6.90439 6.23532 7.27281 7.06395L7.73502 4.61582Z" fill="white" stroke="white" stroke-width="1.3"/>
</g>
<defs>
<clipPath id="clip0">
<rect width="20" height="20" fill="white" transform="matrix(1 0 0 -1 0 20)"/>
</clipPath>
</defs>
</svg>
