<svg width="16" height="16" viewBox="0 0 16 16" fill="none" xmlns="http://www.w3.org/2000/svg">
<path fill-rule="evenodd" clip-rule="evenodd" d="M7.11126 14.2225C3.18382 14.2225 0 11.0387 0 7.11126C0 3.18382 3.18382 0 7.11126 0C11.0387 0 14.2225 3.18382 14.2225 7.11126C14.2225 8.75459 13.6651 10.2677 12.729 11.4719L15.7397 14.4826C16.0868 14.8297 16.0868 15.3925 15.7397 15.7397C15.3925 16.0868 14.8297 16.0868 14.4826 15.7397L11.4719 12.729C10.2677 13.6651 8.75459 14.2225 7.11126 14.2225ZM7.111 12.4447C10.0566 12.4447 12.4444 10.0568 12.4444 7.11122C12.4444 4.16564 10.0566 1.77777 7.111 1.77777C4.16542 1.77777 1.77756 4.16564 1.77756 7.11122C1.77756 10.0568 4.16542 12.4447 7.111 12.4447Z" fill="white"/>
</svg>
