<svg width="17" height="11" viewBox="0 0 17 11" fill="none" xmlns="http://www.w3.org/2000/svg">
<path d="M8.5 0C5.25197 0 2.30648 1.8495 0.133016 4.85357C-0.0443388 5.09969 -0.0443388 5.44353 0.133016 5.68965C2.30648 8.69734 5.25197 10.5468 8.5 10.5468C11.748 10.5468 14.6935 8.69734 16.867 5.69327C17.0443 5.44715 17.0443 5.10331 16.867 4.85719C14.6935 1.8495 11.748 0 8.5 0ZM8.733 8.98689C6.57691 9.12805 4.79641 7.27855 4.93203 5.03092C5.04332 3.17781 6.4865 1.67577 8.267 1.55995C10.4231 1.41879 12.2036 3.26829 12.068 5.51592C11.9532 7.36541 10.51 8.86745 8.733 8.98689ZM8.62519 7.27131C7.46369 7.34732 6.50389 6.35199 6.58039 5.14312C6.63951 4.14418 7.41848 3.33706 8.37829 3.27191C9.53979 3.1959 10.4996 4.19123 10.4231 5.4001C10.3605 6.40266 9.58152 7.20978 8.62519 7.27131Z" fill="#2CFEFA"/>
</svg>
