<svg width="20" height="20" viewBox="0 0 20 20" fill="none" xmlns="http://www.w3.org/2000/svg">
<path d="M15.8594 2.525H15.2594V3.125V3.90625C15.2594 4.0064 15.1783 4.0875 15.0781 4.0875C14.978 4.0875 14.8969 4.0064 14.8969 3.90625V3.125V2.525H14.2969H10.7422H10.1422V3.125V3.90625C10.1422 4.0064 10.0611 4.0875 9.96094 4.0875C9.86079 4.0875 9.77969 4.0064 9.77969 3.90625V3.125V2.525H9.17969H5.66406H5.06406V3.125V3.90625C5.06406 4.0064 4.98296 4.0875 4.88281 4.0875C4.78266 4.0875 4.70156 4.0064 4.70156 3.90625V3.125V2.525H4.10156H3.125C1.93212 2.525 0.9625 3.49462 0.9625 4.6875V16.875C0.9625 18.0679 1.93212 19.0375 3.125 19.0375H16.875C18.0679 19.0375 19.0375 18.0679 19.0375 16.875C19.0375 16.7749 19.1186 16.6938 19.2188 16.6938C19.3189 16.6938 19.4 16.7749 19.4 16.875C19.4 18.2668 18.2668 19.4 16.875 19.4H3.125C1.7332 19.4 0.6 18.2668 0.6 16.875V4.6875C0.6 3.2957 1.7332 2.1625 3.125 2.1625H4.10156H4.70156V1.5625V0.78125C4.70156 0.681102 4.78266 0.6 4.88281 0.6C4.98296 0.6 5.06406 0.681102 5.06406 0.78125V1.5625V2.1625H5.66406H9.17969H9.77969V1.5625V0.78125C9.77969 0.681102 9.86079 0.6 9.96094 0.6C10.0611 0.6 10.1422 0.681102 10.1422 0.78125V1.5625V2.1625H10.7422H14.2969H14.8969V1.5625V0.78125C14.8969 0.681102 14.978 0.6 15.0781 0.6C15.1783 0.6 15.2594 0.681102 15.2594 0.78125V1.5625V2.1625H15.8594H16.875C18.2668 2.1625 19.4 3.2957 19.4 4.6875V12.9688C19.4 13.0689 19.3189 13.15 19.2188 13.15C19.1186 13.15 19.0375 13.0689 19.0375 12.9688V4.6875C19.0375 3.49462 18.0679 2.525 16.875 2.525H15.8594ZM9.96094 7.67031C10.0611 7.67031 10.1422 7.75141 10.1422 7.85156V12.8906C10.1422 12.9908 10.0611 13.0719 9.96094 13.0719C9.86079 13.0719 9.77969 12.9908 9.77969 12.8906V7.85156C9.77969 7.75141 9.86079 7.67031 9.96094 7.67031ZM9.77969 15.625C9.77969 15.5249 9.86079 15.4438 9.96094 15.4438C10.0611 15.4438 10.1422 15.5249 10.1422 15.625C10.1422 15.7251 10.0611 15.8062 9.96094 15.8062C9.86079 15.8062 9.77969 15.7251 9.77969 15.625Z" fill="#00FFF9" stroke="#00FFF9" stroke-width="1.2"/>
</svg>
