<svg width="20" height="20" viewBox="0 0 20 20" fill="none" xmlns="http://www.w3.org/2000/svg">
<path d="M16.364 12.636C15.3837 11.6558 14.217 10.9301 12.9439 10.4909C14.3074 9.55179 15.2031 7.9802 15.2031 6.20312C15.2031 3.33413 12.869 1 10 1C7.131 1 4.79688 3.33413 4.79688 6.20312C4.79688 7.9802 5.69262 9.55179 7.05609 10.4909C5.78308 10.9301 4.61631 11.6558 3.63605 12.636C1.93618 14.3359 1 16.596 1 19H2.40625C2.40625 14.8128 5.81279 11.4062 10 11.4062C14.1872 11.4062 17.5938 14.8128 17.5938 19H19C19 16.596 18.0638 14.3359 16.364 12.636ZM10 10C7.90641 10 6.20312 8.29675 6.20312 6.20312C6.20312 4.1095 7.90641 2.40625 10 2.40625C12.0936 2.40625 13.7969 4.1095 13.7969 6.20312C13.7969 8.29675 12.0936 10 10 10Z" fill="#00FFF9" stroke="#00FFF9" stroke-width="0.5"/>
</svg>
