<svg width="21" height="21" viewBox="0 0 21 21" fill="none" xmlns="http://www.w3.org/2000/svg">
<path d="M19.7344 9.26562H19.2461V5.96875C19.2461 5.19531 18.6367 4.58594 17.9023 4.58594H17.5352V2.38281C17.5352 1.60938 16.9648 1 16.2734 1C16.2734 1 16.2344 1 16.1914 1L2.26172 4.58203C2.25781 4.58203 2.25 4.58594 2.24609 4.58594C1.55859 4.64062 1 5.23047 1 5.96875V18.7578C1 19.5312 1.60938 20.1406 2.34375 20.1406H17.9023C18.6758 20.1406 19.2852 19.5312 19.2852 18.7578V15.375H19.7344C19.9805 15.375 20.1406 15.2109 20.1406 14.9688V9.67578C20.1406 9.42969 19.9375 9.26562 19.7344 9.26562ZM16.3516 1.77344C16.5547 1.8125 16.7578 2.05859 16.7578 2.38281V4.58203H5.51953L16.3516 1.77344ZM18.4727 18.7578C18.4727 19.082 18.2266 19.3672 17.9023 19.3672H2.34375C2.01953 19.3672 1.77344 19.082 1.77344 18.7578V5.96875C1.77344 5.64453 2.01953 5.35938 2.34375 5.35938H17.8594C18.1836 5.35938 18.4297 5.64453 18.4297 5.96875V9.26562H14.3984C12.6875 9.26562 11.3438 10.6094 11.3438 12.3203C11.3438 14.0312 12.7266 15.375 14.3984 15.375H18.4727V18.7578ZM19.3242 14.6016H14.3984C13.1758 14.6016 12.1602 13.582 12.1602 12.3633C12.1602 11.1445 13.1797 10.125 14.3984 10.125H19.3242V14.6016Z" fill="#00FFF9" stroke="#00FFF9" stroke-width="0.7"/>
<path d="M13.9492 12.4023C13.9492 12.6484 14.1523 12.8086 14.3555 12.8086H14.7227C14.9258 12.8086 15.1289 12.6445 15.1289 12.4023C15.1289 12.1562 14.9258 11.9961 14.7227 11.9961H14.3594C14.1133 11.9961 13.9492 12.1602 13.9492 12.4023Z" fill="#00FFF9" stroke="#00FFF9" stroke-width="0.7"/>
</svg>
