<svg width="139" height="43" viewBox="0 0 139 43" fill="none" xmlns="http://www.w3.org/2000/svg">
<path d="M75 6.875H71.25V4.375C71.25 3.685 71.81 3.125 72.5 3.125H73.75V0H71.25C69.1788 0 67.5 1.67875 67.5 3.75V6.875H65V10H67.5V20H71.25V10H73.75L75 6.875Z" fill="#2CFEFA"/>
<path d="M28.1504 39V30.1172H33.3711V31.2832H29.375V33.791H32.6855V34.9453H29.375V39H28.1504ZM38.3457 37.5176C38.7051 37.1465 38.8848 36.7012 38.8848 36.1816C38.8848 35.6621 38.7051 35.2148 38.3457 34.8398C37.9863 34.4648 37.5391 34.2793 37.0039 34.2832C36.4727 34.2832 36.0273 34.4668 35.668 34.834C35.3047 35.2051 35.123 35.6562 35.123 36.1875C35.123 36.7188 35.3027 37.166 35.6621 37.5293C36.0215 37.8926 36.4668 38.0742 36.998 38.0742C37.5371 38.0742 37.9863 37.8887 38.3457 37.5176ZM38.9082 39V38.3262C38.4355 38.877 37.7871 39.1523 36.9629 39.1523C36.1348 39.1523 35.4316 38.8672 34.8535 38.2969C34.2754 37.7188 33.9863 37.0117 33.9863 36.1758C33.9863 35.3398 34.2773 34.6328 34.8594 34.0547C35.4453 33.4805 36.1445 33.1934 36.957 33.1934C37.7695 33.1934 38.4199 33.4727 38.9082 34.0312V33.2988H40.0566V39H38.9082ZM44.4863 39.1582C43.6621 39.1543 42.957 38.8633 42.3711 38.2852C41.7852 37.707 41.4941 37.0059 41.498 36.1816C41.498 35.3574 41.7871 34.6523 42.3652 34.0664C42.9434 33.4805 43.6504 33.1895 44.4863 33.1934C45.0137 33.1895 45.502 33.3164 45.9512 33.5742C46.4004 33.832 46.7598 34.1719 47.0293 34.5938L46.0566 35.1504C45.8887 34.8848 45.666 34.6738 45.3887 34.5176C45.1113 34.3613 44.8105 34.2832 44.4863 34.2832C43.9746 34.2832 43.5391 34.4707 43.1797 34.8457C42.8164 35.2246 42.6348 35.6719 42.6348 36.1875C42.6348 36.7031 42.8184 37.1465 43.1855 37.5176C43.5527 37.8887 43.9941 38.0742 44.5098 38.0742C45.2051 38.0742 45.7324 37.7754 46.0918 37.1777L47.0527 37.7402C46.7871 38.1738 46.4277 38.5195 45.9746 38.7773C45.5215 39.0352 45.0254 39.1621 44.4863 39.1582ZM51.916 34.6523C51.5879 34.3828 51.2051 34.248 50.7676 34.248C50.3301 34.248 49.9551 34.3789 49.6426 34.6406C49.3262 34.9023 49.1172 35.2402 49.0156 35.6543H52.4961C52.4375 35.2559 52.2441 34.9219 51.916 34.6523ZM48.7051 38.2969C48.127 37.7266 47.8379 37.0273 47.8379 36.1992C47.8379 35.3711 48.1152 34.6621 48.6699 34.0723C49.2246 33.4824 49.9199 33.1875 50.7559 33.1875C51.5918 33.1875 52.2852 33.4805 52.8359 34.0664C53.3906 34.6523 53.668 35.3535 53.668 36.1699C53.668 36.2754 53.6602 36.4062 53.6445 36.5625H48.9746C49.0527 37.0117 49.2598 37.3828 49.5957 37.6758C49.9316 37.9688 50.3418 38.1133 50.8262 38.1094C51.5215 38.1094 52.0527 37.8496 52.4199 37.3301L53.2402 37.957C52.9746 38.332 52.627 38.625 52.1973 38.8359C51.7676 39.0469 51.3105 39.1543 50.8262 39.1582C49.9902 39.1543 49.2832 38.8672 48.7051 38.2969ZM56.8086 34.8398C56.4492 35.207 56.2695 35.6543 56.2695 36.1816C56.2695 36.709 56.4434 37.1562 56.791 37.5234C57.1387 37.8906 57.582 38.0742 58.1211 38.0742C58.6602 38.0742 59.1094 37.8926 59.4688 37.5293C59.832 37.166 60.0137 36.7188 60.0137 36.1875C60.0137 35.6562 59.834 35.207 59.4746 34.8398C59.1152 34.4727 58.6699 34.2871 58.1387 34.2832C57.6113 34.2871 57.168 34.4727 56.8086 34.8398ZM55.0801 39V30.1172H56.2285V34.0312C56.709 33.4727 57.3574 33.1934 58.1738 33.1934C58.9902 33.1934 59.6914 33.4805 60.2773 34.0547C60.8594 34.6328 61.1504 35.3398 61.1504 36.1758C61.1504 37.0117 60.8613 37.7168 60.2832 38.291C59.7051 38.8652 59.002 39.1523 58.1738 39.1523C57.3457 39.1523 56.6973 38.877 56.2285 38.3262V39H55.0801ZM66.4297 37.5117C66.7891 37.1367 66.9688 36.6895 66.9688 36.1699C66.9688 35.6504 66.7871 35.207 66.4238 34.8398C66.0605 34.4727 65.6191 34.2871 65.0996 34.2832C64.5801 34.2832 64.1426 34.4727 63.7871 34.8516C63.4277 35.2266 63.248 35.6719 63.248 36.1875C63.248 36.7031 63.4277 37.1465 63.7871 37.5176C64.1465 37.8887 64.5879 38.0742 65.1113 38.0742C65.6309 38.0742 66.0703 37.8867 66.4297 37.5117ZM67.2324 34.0664C67.8184 34.6523 68.1113 35.3555 68.1113 36.1758C68.1113 36.9961 67.8145 37.6992 67.2207 38.2852C66.627 38.8711 65.9199 39.1621 65.0996 39.1582C64.2793 39.1543 63.5742 38.8633 62.9844 38.2852C62.3984 37.707 62.1074 37.0059 62.1113 36.1816C62.1113 35.3574 62.4004 34.6523 62.9785 34.0664C63.5566 33.4805 64.2637 33.1875 65.0996 33.1875C65.9355 33.1875 66.6465 33.4805 67.2324 34.0664ZM73.3906 37.5117C73.75 37.1367 73.9297 36.6895 73.9297 36.1699C73.9297 35.6504 73.748 35.207 73.3848 34.8398C73.0215 34.4727 72.5801 34.2871 72.0605 34.2832C71.541 34.2832 71.1035 34.4727 70.748 34.8516C70.3887 35.2266 70.209 35.6719 70.209 36.1875C70.209 36.7031 70.3887 37.1465 70.748 37.5176C71.1074 37.8887 71.5488 38.0742 72.0723 38.0742C72.5918 38.0742 73.0312 37.8867 73.3906 37.5117ZM74.1934 34.0664C74.7793 34.6523 75.0723 35.3555 75.0723 36.1758C75.0723 36.9961 74.7754 37.6992 74.1816 38.2852C73.5879 38.8711 72.8809 39.1621 72.0605 39.1582C71.2402 39.1543 70.5352 38.8633 69.9453 38.2852C69.3594 37.707 69.0684 37.0059 69.0723 36.1816C69.0723 35.3574 69.3613 34.6523 69.9395 34.0664C70.5176 33.4805 71.2246 33.1875 72.0605 33.1875C72.8965 33.1875 73.6074 33.4805 74.1934 34.0664ZM77.6621 39H76.5137V30.1172H77.6621V35.6543L79.8594 33.2988H81.3828L78.875 35.918L81.5996 39H80.0879L77.6621 36.2754V39Z" fill="white"/>
<path d="M87.541 38.1094C87.8457 38.1094 88.0801 38.0508 88.2441 37.9336C88.4082 37.8164 88.4902 37.6602 88.4902 37.4648C88.4902 37.2656 88.3887 37.1035 88.1855 36.9785C87.9824 36.8535 87.7363 36.7559 87.4473 36.6855C87.1582 36.6152 86.8691 36.5293 86.5801 36.4277C86.291 36.3262 86.043 36.1543 85.8359 35.9121C85.6328 35.6699 85.5293 35.3594 85.5254 34.9805C85.5254 34.4531 85.7051 34.0234 86.0645 33.6914C86.4238 33.3594 86.8965 33.1934 87.4824 33.1934C88.2441 33.1934 88.8887 33.4082 89.416 33.8379L88.8066 34.6934C88.4082 34.3965 87.9707 34.248 87.4941 34.248C87.2207 34.248 87.0137 34.3066 86.873 34.4238C86.7324 34.5371 86.6641 34.6836 86.668 34.8633C86.668 35.1758 87.0156 35.4316 87.7109 35.6309C88 35.709 88.2891 35.8047 88.5781 35.918C88.8672 36.0312 89.1133 36.2109 89.3164 36.457C89.5195 36.7031 89.6211 37.0156 89.6211 37.3945C89.625 37.9375 89.4355 38.3672 89.0527 38.6836C88.6699 39 88.1152 39.1582 87.3887 39.1582C86.6621 39.1582 85.9746 38.9102 85.3262 38.4141L85.9473 37.5234C86.4277 37.9141 86.959 38.1094 87.541 38.1094ZM92.8203 39.1582C92.1797 39.1582 91.7441 38.9863 91.5137 38.6426C91.2832 38.2988 91.166 37.834 91.1621 37.248V34.3945H90.2656V33.2988H91.1621V31.3652H92.3281V33.2988H93.875V34.3945H92.3281V37.1133C92.3281 37.457 92.3809 37.7031 92.4863 37.8516C92.5957 38 92.7949 38.0742 93.084 38.0742C93.373 38.0742 93.5859 38.0469 93.7227 37.9922V39.0234C93.5078 39.1133 93.207 39.1582 92.8203 39.1582ZM98.8672 37.5117C99.2266 37.1367 99.4062 36.6895 99.4062 36.1699C99.4062 35.6504 99.2246 35.207 98.8613 34.8398C98.498 34.4727 98.0566 34.2871 97.5371 34.2832C97.0176 34.2832 96.5801 34.4727 96.2246 34.8516C95.8652 35.2266 95.6855 35.6719 95.6855 36.1875C95.6855 36.7031 95.8652 37.1465 96.2246 37.5176C96.584 37.8887 97.0254 38.0742 97.5488 38.0742C98.0684 38.0742 98.5078 37.8867 98.8672 37.5117ZM99.6699 34.0664C100.256 34.6523 100.549 35.3555 100.549 36.1758C100.549 36.9961 100.252 37.6992 99.6582 38.2852C99.0645 38.8711 98.3574 39.1621 97.5371 39.1582C96.7168 39.1543 96.0117 38.8633 95.4219 38.2852C94.8359 37.707 94.5449 37.0059 94.5488 36.1816C94.5488 35.3574 94.8379 34.6523 95.416 34.0664C95.9941 33.4805 96.7012 33.1875 97.5371 33.1875C98.373 33.1875 99.084 33.4805 99.6699 34.0664ZM101.99 39V33.2988H103.139V33.9844C103.404 33.6641 103.697 33.4512 104.018 33.3457C104.338 33.2402 104.785 33.1895 105.359 33.1934V34.2949C104.488 34.2949 103.9 34.4453 103.596 34.7461C103.291 35.0469 103.139 35.4805 103.139 36.0469V39H101.99ZM107.451 42.0352L108.494 39.1055L106.162 33.2988H107.428L109.057 37.582L110.592 33.2988H111.746L108.588 42.0352H107.451Z" fill="#00FFF9"/>
</svg>
