<svg width="139" height="43" viewBox="0 0 139 43" fill="none" xmlns="http://www.w3.org/2000/svg">
<path d="M75 6.875H71.25V4.375C71.25 3.685 71.81 3.125 72.5 3.125H73.75V0H71.25C69.1788 0 67.5 1.67875 67.5 3.75V6.875H65V10H67.5V20H71.25V10H73.75L75 6.875Z" fill="#2CFEFA"/>
<path d="M25.4492 39V30.1172H30.6699V31.2832H26.6738V33.791H29.9844V34.9453H26.6738V39H25.4492ZM35.6445 37.5176C36.0039 37.1465 36.1836 36.7012 36.1836 36.1816C36.1836 35.6621 36.0039 35.2148 35.6445 34.8398C35.2852 34.4648 34.8379 34.2793 34.3027 34.2832C33.7715 34.2832 33.3262 34.4668 32.9668 34.834C32.6035 35.2051 32.4219 35.6562 32.4219 36.1875C32.4219 36.7188 32.6016 37.166 32.9609 37.5293C33.3203 37.8926 33.7656 38.0742 34.2969 38.0742C34.8359 38.0742 35.2852 37.8887 35.6445 37.5176ZM36.207 39V38.3262C35.7344 38.877 35.0859 39.1523 34.2617 39.1523C33.4336 39.1523 32.7305 38.8672 32.1523 38.2969C31.5742 37.7188 31.2852 37.0117 31.2852 36.1758C31.2852 35.3398 31.5762 34.6328 32.1582 34.0547C32.7441 33.4805 33.4434 33.1934 34.2559 33.1934C35.0684 33.1934 35.7188 33.4727 36.207 34.0312V33.2988H37.3555V39H36.207ZM41.7852 39.1582C40.9609 39.1543 40.2559 38.8633 39.6699 38.2852C39.084 37.707 38.793 37.0059 38.7969 36.1816C38.7969 35.3574 39.0859 34.6523 39.6641 34.0664C40.2422 33.4805 40.9492 33.1895 41.7852 33.1934C42.3125 33.1895 42.8008 33.3164 43.25 33.5742C43.6992 33.832 44.0586 34.1719 44.3281 34.5938L43.3555 35.1504C43.1875 34.8848 42.9648 34.6738 42.6875 34.5176C42.4102 34.3613 42.1094 34.2832 41.7852 34.2832C41.2734 34.2832 40.8379 34.4707 40.4785 34.8457C40.1152 35.2246 39.9336 35.6719 39.9336 36.1875C39.9336 36.7031 40.1172 37.1465 40.4844 37.5176C40.8516 37.8887 41.293 38.0742 41.8086 38.0742C42.5039 38.0742 43.0312 37.7754 43.3906 37.1777L44.3516 37.7402C44.0859 38.1738 43.7266 38.5195 43.2734 38.7773C42.8203 39.0352 42.3242 39.1621 41.7852 39.1582ZM49.2148 34.6523C48.8867 34.3828 48.5039 34.248 48.0664 34.248C47.6289 34.248 47.2539 34.3789 46.9414 34.6406C46.625 34.9023 46.416 35.2402 46.3145 35.6543H49.7949C49.7363 35.2559 49.543 34.9219 49.2148 34.6523ZM46.0039 38.2969C45.4258 37.7266 45.1367 37.0273 45.1367 36.1992C45.1367 35.3711 45.4141 34.6621 45.9688 34.0723C46.5234 33.4824 47.2188 33.1875 48.0547 33.1875C48.8906 33.1875 49.584 33.4805 50.1348 34.0664C50.6895 34.6523 50.9668 35.3535 50.9668 36.1699C50.9668 36.2754 50.959 36.4062 50.9434 36.5625H46.2734C46.3516 37.0117 46.5586 37.3828 46.8945 37.6758C47.2305 37.9688 47.6406 38.1133 48.125 38.1094C48.8203 38.1094 49.3516 37.8496 49.7188 37.3301L50.5391 37.957C50.2734 38.332 49.9258 38.625 49.4961 38.8359C49.0664 39.0469 48.6094 39.1543 48.125 39.1582C47.2891 39.1543 46.582 38.8672 46.0039 38.2969ZM54.1074 34.8398C53.748 35.207 53.5684 35.6543 53.5684 36.1816C53.5684 36.709 53.7422 37.1562 54.0898 37.5234C54.4375 37.8906 54.8809 38.0742 55.4199 38.0742C55.959 38.0742 56.4082 37.8926 56.7676 37.5293C57.1309 37.166 57.3125 36.7188 57.3125 36.1875C57.3125 35.6562 57.1328 35.207 56.7734 34.8398C56.4141 34.4727 55.9688 34.2871 55.4375 34.2832C54.9102 34.2871 54.4668 34.4727 54.1074 34.8398ZM52.3789 39V30.1172H53.5273V34.0312C54.0078 33.4727 54.6562 33.1934 55.4727 33.1934C56.2891 33.1934 56.9902 33.4805 57.5762 34.0547C58.1582 34.6328 58.4492 35.3398 58.4492 36.1758C58.4492 37.0117 58.1602 37.7168 57.582 38.291C57.0039 38.8652 56.3008 39.1523 55.4727 39.1523C54.6445 39.1523 53.9961 38.877 53.5273 38.3262V39H52.3789ZM63.7285 37.5117C64.0879 37.1367 64.2676 36.6895 64.2676 36.1699C64.2676 35.6504 64.0859 35.207 63.7227 34.8398C63.3594 34.4727 62.918 34.2871 62.3984 34.2832C61.8789 34.2832 61.4414 34.4727 61.0859 34.8516C60.7266 35.2266 60.5469 35.6719 60.5469 36.1875C60.5469 36.7031 60.7266 37.1465 61.0859 37.5176C61.4453 37.8887 61.8867 38.0742 62.4102 38.0742C62.9297 38.0742 63.3691 37.8867 63.7285 37.5117ZM64.5312 34.0664C65.1172 34.6523 65.4102 35.3555 65.4102 36.1758C65.4102 36.9961 65.1133 37.6992 64.5195 38.2852C63.9258 38.8711 63.2188 39.1621 62.3984 39.1582C61.5781 39.1543 60.873 38.8633 60.2832 38.2852C59.6973 37.707 59.4062 37.0059 59.4102 36.1816C59.4102 35.3574 59.6992 34.6523 60.2773 34.0664C60.8555 33.4805 61.5625 33.1875 62.3984 33.1875C63.2344 33.1875 63.9453 33.4805 64.5312 34.0664ZM70.6895 37.5117C71.0488 37.1367 71.2285 36.6895 71.2285 36.1699C71.2285 35.6504 71.0469 35.207 70.6836 34.8398C70.3203 34.4727 69.8789 34.2871 69.3594 34.2832C68.8398 34.2832 68.4023 34.4727 68.0469 34.8516C67.6875 35.2266 67.5078 35.6719 67.5078 36.1875C67.5078 36.7031 67.6875 37.1465 68.0469 37.5176C68.4062 37.8887 68.8477 38.0742 69.3711 38.0742C69.8906 38.0742 70.3301 37.8867 70.6895 37.5117ZM71.4922 34.0664C72.0781 34.6523 72.3711 35.3555 72.3711 36.1758C72.3711 36.9961 72.0742 37.6992 71.4805 38.2852C70.8867 38.8711 70.1797 39.1621 69.3594 39.1582C68.5391 39.1543 67.834 38.8633 67.2441 38.2852C66.6582 37.707 66.3672 37.0059 66.3711 36.1816C66.3711 35.3574 66.6602 34.6523 67.2383 34.0664C67.8164 33.4805 68.5234 33.1875 69.3594 33.1875C70.1953 33.1875 70.9062 33.4805 71.4922 34.0664ZM74.9609 39H73.8125V30.1172H74.9609V35.6543L77.1582 33.2988H78.6816L76.1738 35.918L78.8984 39H77.3867L74.9609 36.2754V39Z" fill="white"/>
<path d="M84.916 34.8398C84.5566 35.207 84.377 35.6543 84.377 36.1816C84.377 36.709 84.5508 37.1562 84.8984 37.5234C85.2461 37.8906 85.6895 38.0742 86.2285 38.0742C86.7676 38.0742 87.2168 37.8926 87.5762 37.5293C87.9395 37.166 88.1211 36.7188 88.1211 36.1875C88.1211 35.6562 87.9414 35.207 87.582 34.8398C87.2227 34.4727 86.7773 34.2871 86.2461 34.2832C85.7188 34.2871 85.2754 34.4727 84.916 34.8398ZM83.1875 42.0352V33.2988H84.3359V34.0312C84.8164 33.4727 85.4648 33.1934 86.2812 33.1934C87.0977 33.1934 87.7988 33.4805 88.3848 34.0547C88.9668 34.6328 89.2578 35.3398 89.2578 36.1758C89.2578 37.0117 88.9688 37.7168 88.3906 38.291C87.8125 38.8652 87.1094 39.1523 86.2812 39.1523C85.4531 39.1523 84.8047 38.877 84.3359 38.3262V42.0352H83.1875ZM94.6953 39V36.0117C94.6953 34.8594 94.2305 34.2832 93.3008 34.2832C92.332 34.2832 91.8477 34.8867 91.8477 36.0938V39H90.6992V30.1172H91.8477V33.9141C92.2734 33.4336 92.834 33.1934 93.5293 33.1934C94.2246 33.1973 94.7871 33.4141 95.2168 33.8438C95.6465 34.2734 95.8594 34.916 95.8555 35.7715V39H94.6953ZM101.498 37.5117C101.857 37.1367 102.037 36.6895 102.037 36.1699C102.037 35.6504 101.855 35.207 101.492 34.8398C101.129 34.4727 100.688 34.2871 100.168 34.2832C99.6484 34.2832 99.2109 34.4727 98.8555 34.8516C98.4961 35.2266 98.3164 35.6719 98.3164 36.1875C98.3164 36.7031 98.4961 37.1465 98.8555 37.5176C99.2148 37.8887 99.6562 38.0742 100.18 38.0742C100.699 38.0742 101.139 37.8867 101.498 37.5117ZM102.301 34.0664C102.887 34.6523 103.18 35.3555 103.18 36.1758C103.18 36.9961 102.883 37.6992 102.289 38.2852C101.695 38.8711 100.988 39.1621 100.168 39.1582C99.3477 39.1543 98.6426 38.8633 98.0527 38.2852C97.4668 37.707 97.1758 37.0059 97.1797 36.1816C97.1797 35.3574 97.4688 34.6523 98.0469 34.0664C98.625 33.4805 99.332 33.1875 100.168 33.1875C101.004 33.1875 101.715 33.4805 102.301 34.0664ZM106.361 39.1582C105.721 39.1582 105.285 38.9863 105.055 38.6426C104.824 38.2988 104.707 37.834 104.703 37.248V34.3945H103.807V33.2988H104.703V31.3652H105.869V33.2988H107.416V34.3945H105.869V37.1133C105.869 37.457 105.922 37.7031 106.027 37.8516C106.137 38 106.336 38.0742 106.625 38.0742C106.914 38.0742 107.127 38.0469 107.264 37.9922V39.0234C107.049 39.1133 106.748 39.1582 106.361 39.1582ZM112.408 37.5117C112.768 37.1367 112.947 36.6895 112.947 36.1699C112.947 35.6504 112.766 35.207 112.402 34.8398C112.039 34.4727 111.598 34.2871 111.078 34.2832C110.559 34.2832 110.121 34.4727 109.766 34.8516C109.406 35.2266 109.227 35.6719 109.227 36.1875C109.227 36.7031 109.406 37.1465 109.766 37.5176C110.125 37.8887 110.566 38.0742 111.09 38.0742C111.609 38.0742 112.049 37.8867 112.408 37.5117ZM113.211 34.0664C113.797 34.6523 114.09 35.3555 114.09 36.1758C114.09 36.9961 113.793 37.6992 113.199 38.2852C112.605 38.8711 111.898 39.1621 111.078 39.1582C110.258 39.1543 109.553 38.8633 108.963 38.2852C108.377 37.707 108.086 37.0059 108.09 36.1816C108.09 35.3574 108.379 34.6523 108.957 34.0664C109.535 33.4805 110.242 33.1875 111.078 33.1875C111.914 33.1875 112.625 33.4805 113.211 34.0664Z" fill="#00FFF9"/>
</svg>
