<svg width="139" height="45" viewBox="0 0 139 45" fill="none" xmlns="http://www.w3.org/2000/svg">
<path d="M73.8615 0H65.2098C61.2285 0 58 3.22854 58 7.20978V15.8615C58 19.8428 61.2285 23.0713 65.2098 23.0713H73.8615C77.8428 23.0713 81.0713 19.8428 81.0713 15.8615V7.20978C81.0713 3.22854 77.8428 0 73.8615 0ZM78.9084 15.8615C78.9084 18.6445 76.6445 20.9084 73.8615 20.9084H65.2098C62.4268 20.9084 60.1629 18.6445 60.1629 15.8615V7.20978C60.1629 4.42681 62.4268 2.16293 65.2098 2.16293H73.8615C76.6445 2.16293 78.9084 4.42681 78.9084 7.20978V15.8615Z" fill="#00FFF9"/>
<path d="M69.5356 5.76782C66.3504 5.76782 63.7678 8.35037 63.7678 11.5356C63.7678 14.7209 66.3504 17.3035 69.5356 17.3035C72.7209 17.3035 75.3035 14.7209 75.3035 11.5356C75.3035 8.35037 72.7209 5.76782 69.5356 5.76782ZM69.5356 15.1405C67.5486 15.1405 65.9308 13.5227 65.9308 11.5356C65.9308 9.54719 67.5486 7.93076 69.5356 7.93076C71.5227 7.93076 73.1405 9.54719 73.1405 11.5356C73.1405 13.5227 71.5227 15.1405 69.5356 15.1405Z" fill="#00FFF9"/>
<path d="M75.7362 6.10353C76.1607 6.10353 76.5048 5.75943 76.5048 5.33497C76.5048 4.9105 76.1607 4.56641 75.7362 4.56641C75.3117 4.56641 74.9677 4.9105 74.9677 5.33497C74.9677 5.75943 75.3117 6.10353 75.7362 6.10353Z" fill="#00FFF9"/>
<path d="M27.1543 41V32.1172H28.3789V41H27.1543ZM34.3613 41V38.0117C34.3613 36.8594 33.8965 36.2832 32.9668 36.2832C31.998 36.2832 31.5137 36.8867 31.5137 38.0938V41H30.3652V35.2988H31.5137V35.9141C31.9395 35.4336 32.5 35.1934 33.1953 35.1934C33.8906 35.1973 34.4531 35.4141 34.8828 35.8438C35.3125 36.2734 35.5254 36.916 35.5215 37.7715V41H34.3613ZM38.9785 40.1094C39.2832 40.1094 39.5176 40.0508 39.6816 39.9336C39.8457 39.8164 39.9277 39.6602 39.9277 39.4648C39.9277 39.2656 39.8262 39.1035 39.623 38.9785C39.4199 38.8535 39.1738 38.7559 38.8848 38.6855C38.5957 38.6152 38.3066 38.5293 38.0176 38.4277C37.7285 38.3262 37.4805 38.1543 37.2734 37.9121C37.0703 37.6699 36.9668 37.3594 36.9629 36.9805C36.9629 36.4531 37.1426 36.0234 37.502 35.6914C37.8613 35.3594 38.334 35.1934 38.9199 35.1934C39.6816 35.1934 40.3262 35.4082 40.8535 35.8379L40.2441 36.6934C39.8457 36.3965 39.4082 36.248 38.9316 36.248C38.6582 36.248 38.4512 36.3066 38.3105 36.4238C38.1699 36.5371 38.1016 36.6836 38.1055 36.8633C38.1055 37.1758 38.4531 37.4316 39.1484 37.6309C39.4375 37.709 39.7266 37.8047 40.0156 37.918C40.3047 38.0312 40.5508 38.2109 40.7539 38.457C40.957 38.7031 41.0586 39.0156 41.0586 39.3945C41.0625 39.9375 40.873 40.3672 40.4902 40.6836C40.1074 41 39.5527 41.1582 38.8262 41.1582C38.0996 41.1582 37.4121 40.9102 36.7637 40.4141L37.3848 39.5234C37.8652 39.9141 38.3965 40.1094 38.9785 40.1094ZM44.2578 41.1582C43.6172 41.1582 43.1816 40.9863 42.9512 40.6426C42.7207 40.2988 42.6035 39.834 42.5996 39.248V36.3945H41.7031V35.2988H42.5996V33.3652H43.7656V35.2988H45.3125V36.3945H43.7656V39.1133C43.7656 39.457 43.8184 39.7031 43.9238 39.8516C44.0332 40 44.2324 40.0742 44.5215 40.0742C44.8105 40.0742 45.0234 40.0469 45.1602 39.9922V41.0234C44.9453 41.1133 44.6445 41.1582 44.2578 41.1582ZM50.3457 39.5176C50.7051 39.1465 50.8848 38.7012 50.8848 38.1816C50.8848 37.6621 50.7051 37.2148 50.3457 36.8398C49.9863 36.4648 49.5391 36.2793 49.0039 36.2832C48.4727 36.2832 48.0273 36.4668 47.668 36.834C47.3047 37.2051 47.123 37.6562 47.123 38.1875C47.123 38.7188 47.3027 39.166 47.6621 39.5293C48.0215 39.8926 48.4668 40.0742 48.998 40.0742C49.5371 40.0742 49.9863 39.8887 50.3457 39.5176ZM50.9082 41V40.3262C50.4355 40.877 49.7871 41.1523 48.9629 41.1523C48.1348 41.1523 47.4316 40.8672 46.8535 40.2969C46.2754 39.7188 45.9863 39.0117 45.9863 38.1758C45.9863 37.3398 46.2773 36.6328 46.8594 36.0547C47.4453 35.4805 48.1445 35.1934 48.957 35.1934C49.7695 35.1934 50.4199 35.4727 50.9082 36.0312V35.2988H52.0566V41H50.9082ZM57.8574 39.5176C58.2168 39.1465 58.3965 38.7012 58.3965 38.1816C58.3965 37.6621 58.2168 37.2148 57.8574 36.8398C57.498 36.4648 57.0508 36.2793 56.5156 36.2832C55.9844 36.2832 55.5391 36.4668 55.1797 36.834C54.8164 37.2051 54.6348 37.6562 54.6348 38.1875C54.6348 38.7188 54.8145 39.166 55.1738 39.5293C55.5332 39.8926 55.9785 40.0742 56.5098 40.0742C57.0488 40.0742 57.498 39.8887 57.8574 39.5176ZM54.3652 40.2969C53.7871 39.7188 53.498 39.0117 53.498 38.1758C53.498 37.3398 53.7891 36.6328 54.3711 36.0547C54.957 35.4805 55.6562 35.1934 56.4688 35.1934C57.2812 35.1934 57.9316 35.4727 58.4199 36.0312V35.2988H59.5684V40.5312C59.5684 42.0391 59.0996 43.0684 58.1621 43.6191C57.6934 43.8965 57.1641 44.0352 56.5742 44.0352C55.9883 44.0352 55.4688 43.9141 55.0156 43.6719C54.5625 43.4297 54.2012 43.0879 53.9316 42.6465L54.998 42.1895C55.3574 42.7012 55.8418 42.957 56.4512 42.957C57.0605 42.957 57.5391 42.7832 57.8867 42.4355C58.2383 42.0879 58.416 41.5215 58.4199 40.7363V40.3262C57.9473 40.877 57.2988 41.1523 56.4746 41.1523C55.6465 41.1523 54.9434 40.8672 54.3652 40.2969ZM61.4902 41V35.2988H62.6387V35.9844C62.9043 35.6641 63.1973 35.4512 63.5176 35.3457C63.8379 35.2402 64.2852 35.1895 64.8594 35.1934V36.2949C63.9883 36.2949 63.4004 36.4453 63.0957 36.7461C62.791 37.0469 62.6387 37.4805 62.6387 38.0469V41H61.4902ZM69.6582 39.5176C70.0176 39.1465 70.1973 38.7012 70.1973 38.1816C70.1973 37.6621 70.0176 37.2148 69.6582 36.8398C69.2988 36.4648 68.8516 36.2793 68.3164 36.2832C67.7852 36.2832 67.3398 36.4668 66.9805 36.834C66.6172 37.2051 66.4355 37.6562 66.4355 38.1875C66.4355 38.7188 66.6152 39.166 66.9746 39.5293C67.334 39.8926 67.7793 40.0742 68.3105 40.0742C68.8496 40.0742 69.2988 39.8887 69.6582 39.5176ZM70.2207 41V40.3262C69.748 40.877 69.0996 41.1523 68.2754 41.1523C67.4473 41.1523 66.7441 40.8672 66.166 40.2969C65.5879 39.7188 65.2988 39.0117 65.2988 38.1758C65.2988 37.3398 65.5898 36.6328 66.1719 36.0547C66.7578 35.4805 67.457 35.1934 68.2695 35.1934C69.082 35.1934 69.7324 35.4727 70.2207 36.0312V35.2988H71.3691V41H70.2207ZM80.6914 41V38.0117C80.6914 37.4258 80.6035 36.9922 80.4277 36.7109C80.252 36.4297 79.9492 36.2871 79.5195 36.2832C78.6094 36.2832 78.1523 36.8867 78.1484 38.0938V41H76.9883V38.0117C76.9883 37.418 76.9004 36.9805 76.7246 36.6992C76.5488 36.418 76.2441 36.2793 75.8105 36.2832C74.9004 36.2832 74.4434 36.8867 74.4395 38.0938V41H73.291V35.2988H74.4395V35.9141C74.873 35.4336 75.3945 35.1934 76.0039 35.1934C76.8906 35.1934 77.498 35.5449 77.8262 36.248C78.291 35.5449 78.9238 35.1934 79.7246 35.1934C80.3887 35.1895 80.9082 35.4023 81.2832 35.832C81.6582 36.2617 81.8457 36.9082 81.8457 37.7715V41H80.6914Z" fill="white"/>
<path d="M88.5371 40.1094C88.8418 40.1094 89.0762 40.0508 89.2402 39.9336C89.4043 39.8164 89.4863 39.6602 89.4863 39.4648C89.4863 39.2656 89.3848 39.1035 89.1816 38.9785C88.9785 38.8535 88.7324 38.7559 88.4434 38.6855C88.1543 38.6152 87.8652 38.5293 87.5762 38.4277C87.2871 38.3262 87.0391 38.1543 86.832 37.9121C86.6289 37.6699 86.5254 37.3594 86.5215 36.9805C86.5215 36.4531 86.7012 36.0234 87.0605 35.6914C87.4199 35.3594 87.8926 35.1934 88.4785 35.1934C89.2402 35.1934 89.8848 35.4082 90.4121 35.8379L89.8027 36.6934C89.4043 36.3965 88.9668 36.248 88.4902 36.248C88.2168 36.248 88.0098 36.3066 87.8691 36.4238C87.7285 36.5371 87.6602 36.6836 87.6641 36.8633C87.6641 37.1758 88.0117 37.4316 88.707 37.6309C88.9961 37.709 89.2852 37.8047 89.5742 37.918C89.8633 38.0312 90.1094 38.2109 90.3125 38.457C90.5156 38.7031 90.6172 39.0156 90.6172 39.3945C90.6211 39.9375 90.4316 40.3672 90.0488 40.6836C89.666 41 89.1113 41.1582 88.3848 41.1582C87.6582 41.1582 86.9707 40.9102 86.3223 40.4141L86.9434 39.5234C87.4238 39.9141 87.9551 40.1094 88.5371 40.1094ZM93.8164 41.1582C93.1758 41.1582 92.7402 40.9863 92.5098 40.6426C92.2793 40.2988 92.1621 39.834 92.1582 39.248V36.3945H91.2617V35.2988H92.1582V33.3652H93.3242V35.2988H94.8711V36.3945H93.3242V39.1133C93.3242 39.457 93.377 39.7031 93.4824 39.8516C93.5918 40 93.791 40.0742 94.0801 40.0742C94.3691 40.0742 94.582 40.0469 94.7188 39.9922V41.0234C94.5039 41.1133 94.2031 41.1582 93.8164 41.1582ZM99.8633 39.5117C100.223 39.1367 100.402 38.6895 100.402 38.1699C100.402 37.6504 100.221 37.207 99.8574 36.8398C99.4941 36.4727 99.0527 36.2871 98.5332 36.2832C98.0137 36.2832 97.5762 36.4727 97.2207 36.8516C96.8613 37.2266 96.6816 37.6719 96.6816 38.1875C96.6816 38.7031 96.8613 39.1465 97.2207 39.5176C97.5801 39.8887 98.0215 40.0742 98.5449 40.0742C99.0645 40.0742 99.5039 39.8867 99.8633 39.5117ZM100.666 36.0664C101.252 36.6523 101.545 37.3555 101.545 38.1758C101.545 38.9961 101.248 39.6992 100.654 40.2852C100.061 40.8711 99.3535 41.1621 98.5332 41.1582C97.7129 41.1543 97.0078 40.8633 96.418 40.2852C95.832 39.707 95.541 39.0059 95.5449 38.1816C95.5449 37.3574 95.834 36.6523 96.4121 36.0664C96.9902 35.4805 97.6973 35.1875 98.5332 35.1875C99.3691 35.1875 100.08 35.4805 100.666 36.0664ZM102.986 41V35.2988H104.135V35.9844C104.4 35.6641 104.693 35.4512 105.014 35.3457C105.334 35.2402 105.781 35.1895 106.355 35.1934V36.2949C105.484 36.2949 104.896 36.4453 104.592 36.7461C104.287 37.0469 104.135 37.4805 104.135 38.0469V41H102.986ZM108.447 44.0352L109.49 41.1055L107.158 35.2988H108.424L110.053 39.582L111.588 35.2988H112.742L109.584 44.0352H108.447Z" fill="#00FFF9"/>
</svg>
