<svg width="139" height="45" viewBox="0 0 139 45" fill="none" xmlns="http://www.w3.org/2000/svg">
<path d="M73.8615 0H65.2098C61.2285 0 58 3.22854 58 7.20978V15.8615C58 19.8428 61.2285 23.0713 65.2098 23.0713H73.8615C77.8428 23.0713 81.0713 19.8428 81.0713 15.8615V7.20978C81.0713 3.22854 77.8428 0 73.8615 0ZM78.9084 15.8615C78.9084 18.6445 76.6445 20.9084 73.8615 20.9084H65.2098C62.4268 20.9084 60.1629 18.6445 60.1629 15.8615V7.20978C60.1629 4.42681 62.4268 2.16293 65.2098 2.16293H73.8615C76.6445 2.16293 78.9084 4.42681 78.9084 7.20978V15.8615Z" fill="#00FFF9"/>
<path d="M69.5356 5.76782C66.3504 5.76782 63.7678 8.35037 63.7678 11.5356C63.7678 14.7209 66.3504 17.3035 69.5356 17.3035C72.7209 17.3035 75.3035 14.7209 75.3035 11.5356C75.3035 8.35037 72.7209 5.76782 69.5356 5.76782ZM69.5356 15.1405C67.5486 15.1405 65.9308 13.5227 65.9308 11.5356C65.9308 9.54719 67.5486 7.93076 69.5356 7.93076C71.5227 7.93076 73.1405 9.54719 73.1405 11.5356C73.1405 13.5227 71.5227 15.1405 69.5356 15.1405Z" fill="#00FFF9"/>
<path d="M75.7362 6.10353C76.1607 6.10353 76.5048 5.75943 76.5048 5.33497C76.5048 4.9105 76.1607 4.56641 75.7362 4.56641C75.3117 4.56641 74.9677 4.9105 74.9677 5.33497C74.9677 5.75943 75.3117 6.10353 75.7362 6.10353Z" fill="#00FFF9"/>
<path d="M28.7246 41V32.1172H29.9492V41H28.7246ZM35.9316 41V38.0117C35.9316 36.8594 35.4668 36.2832 34.5371 36.2832C33.5684 36.2832 33.084 36.8867 33.084 38.0938V41H31.9355V35.2988H33.084V35.9141C33.5098 35.4336 34.0703 35.1934 34.7656 35.1934C35.4609 35.1973 36.0234 35.4141 36.4531 35.8438C36.8828 36.2734 37.0957 36.916 37.0918 37.7715V41H35.9316ZM40.5488 40.1094C40.8535 40.1094 41.0879 40.0508 41.252 39.9336C41.416 39.8164 41.498 39.6602 41.498 39.4648C41.498 39.2656 41.3965 39.1035 41.1934 38.9785C40.9902 38.8535 40.7441 38.7559 40.4551 38.6855C40.166 38.6152 39.877 38.5293 39.5879 38.4277C39.2988 38.3262 39.0508 38.1543 38.8438 37.9121C38.6406 37.6699 38.5371 37.3594 38.5332 36.9805C38.5332 36.4531 38.7129 36.0234 39.0723 35.6914C39.4316 35.3594 39.9043 35.1934 40.4902 35.1934C41.252 35.1934 41.8965 35.4082 42.4238 35.8379L41.8145 36.6934C41.416 36.3965 40.9785 36.248 40.502 36.248C40.2285 36.248 40.0215 36.3066 39.8809 36.4238C39.7402 36.5371 39.6719 36.6836 39.6758 36.8633C39.6758 37.1758 40.0234 37.4316 40.7188 37.6309C41.0078 37.709 41.2969 37.8047 41.5859 37.918C41.875 38.0312 42.1211 38.2109 42.3242 38.457C42.5273 38.7031 42.6289 39.0156 42.6289 39.3945C42.6328 39.9375 42.4434 40.3672 42.0605 40.6836C41.6777 41 41.123 41.1582 40.3965 41.1582C39.6699 41.1582 38.9824 40.9102 38.334 40.4141L38.9551 39.5234C39.4355 39.9141 39.9668 40.1094 40.5488 40.1094ZM45.8281 41.1582C45.1875 41.1582 44.752 40.9863 44.5215 40.6426C44.291 40.2988 44.1738 39.834 44.1699 39.248V36.3945H43.2734V35.2988H44.1699V33.3652H45.3359V35.2988H46.8828V36.3945H45.3359V39.1133C45.3359 39.457 45.3887 39.7031 45.4941 39.8516C45.6035 40 45.8027 40.0742 46.0918 40.0742C46.3809 40.0742 46.5938 40.0469 46.7305 39.9922V41.0234C46.5156 41.1133 46.2148 41.1582 45.8281 41.1582ZM51.916 39.5176C52.2754 39.1465 52.4551 38.7012 52.4551 38.1816C52.4551 37.6621 52.2754 37.2148 51.916 36.8398C51.5566 36.4648 51.1094 36.2793 50.5742 36.2832C50.043 36.2832 49.5977 36.4668 49.2383 36.834C48.875 37.2051 48.6934 37.6562 48.6934 38.1875C48.6934 38.7188 48.873 39.166 49.2324 39.5293C49.5918 39.8926 50.0371 40.0742 50.5684 40.0742C51.1074 40.0742 51.5566 39.8887 51.916 39.5176ZM52.4785 41V40.3262C52.0059 40.877 51.3574 41.1523 50.5332 41.1523C49.7051 41.1523 49.002 40.8672 48.4238 40.2969C47.8457 39.7188 47.5566 39.0117 47.5566 38.1758C47.5566 37.3398 47.8477 36.6328 48.4297 36.0547C49.0156 35.4805 49.7148 35.1934 50.5273 35.1934C51.3398 35.1934 51.9902 35.4727 52.4785 36.0312V35.2988H53.627V41H52.4785ZM59.4277 39.5176C59.7871 39.1465 59.9668 38.7012 59.9668 38.1816C59.9668 37.6621 59.7871 37.2148 59.4277 36.8398C59.0684 36.4648 58.6211 36.2793 58.0859 36.2832C57.5547 36.2832 57.1094 36.4668 56.75 36.834C56.3867 37.2051 56.2051 37.6562 56.2051 38.1875C56.2051 38.7188 56.3848 39.166 56.7441 39.5293C57.1035 39.8926 57.5488 40.0742 58.0801 40.0742C58.6191 40.0742 59.0684 39.8887 59.4277 39.5176ZM55.9355 40.2969C55.3574 39.7188 55.0684 39.0117 55.0684 38.1758C55.0684 37.3398 55.3594 36.6328 55.9414 36.0547C56.5273 35.4805 57.2266 35.1934 58.0391 35.1934C58.8516 35.1934 59.502 35.4727 59.9902 36.0312V35.2988H61.1387V40.5312C61.1387 42.0391 60.6699 43.0684 59.7324 43.6191C59.2637 43.8965 58.7344 44.0352 58.1445 44.0352C57.5586 44.0352 57.0391 43.9141 56.5859 43.6719C56.1328 43.4297 55.7715 43.0879 55.502 42.6465L56.5684 42.1895C56.9277 42.7012 57.4121 42.957 58.0215 42.957C58.6309 42.957 59.1094 42.7832 59.457 42.4355C59.8086 42.0879 59.9863 41.5215 59.9902 40.7363V40.3262C59.5176 40.877 58.8691 41.1523 58.0449 41.1523C57.2168 41.1523 56.5137 40.8672 55.9355 40.2969ZM63.0605 41V35.2988H64.209V35.9844C64.4746 35.6641 64.7676 35.4512 65.0879 35.3457C65.4082 35.2402 65.8555 35.1895 66.4297 35.1934V36.2949C65.5586 36.2949 64.9707 36.4453 64.666 36.7461C64.3613 37.0469 64.209 37.4805 64.209 38.0469V41H63.0605ZM71.2285 39.5176C71.5879 39.1465 71.7676 38.7012 71.7676 38.1816C71.7676 37.6621 71.5879 37.2148 71.2285 36.8398C70.8691 36.4648 70.4219 36.2793 69.8867 36.2832C69.3555 36.2832 68.9102 36.4668 68.5508 36.834C68.1875 37.2051 68.0059 37.6562 68.0059 38.1875C68.0059 38.7188 68.1855 39.166 68.5449 39.5293C68.9043 39.8926 69.3496 40.0742 69.8809 40.0742C70.4199 40.0742 70.8691 39.8887 71.2285 39.5176ZM71.791 41V40.3262C71.3184 40.877 70.6699 41.1523 69.8457 41.1523C69.0176 41.1523 68.3145 40.8672 67.7363 40.2969C67.1582 39.7188 66.8691 39.0117 66.8691 38.1758C66.8691 37.3398 67.1602 36.6328 67.7422 36.0547C68.3281 35.4805 69.0273 35.1934 69.8398 35.1934C70.6523 35.1934 71.3027 35.4727 71.791 36.0312V35.2988H72.9395V41H71.791ZM82.2617 41V38.0117C82.2617 37.4258 82.1738 36.9922 81.998 36.7109C81.8223 36.4297 81.5195 36.2871 81.0898 36.2832C80.1797 36.2832 79.7227 36.8867 79.7188 38.0938V41H78.5586V38.0117C78.5586 37.418 78.4707 36.9805 78.2949 36.6992C78.1191 36.418 77.8145 36.2793 77.3809 36.2832C76.4707 36.2832 76.0137 36.8867 76.0098 38.0938V41H74.8613V35.2988H76.0098V35.9141C76.4434 35.4336 76.9648 35.1934 77.5742 35.1934C78.4609 35.1934 79.0684 35.5449 79.3965 36.248C79.8613 35.5449 80.4941 35.1934 81.2949 35.1934C81.959 35.1895 82.4785 35.4023 82.8535 35.832C83.2285 36.2617 83.416 36.9082 83.416 37.7715V41H82.2617Z" fill="white"/>
<path d="M90.1836 36.8398C89.8242 37.207 89.6445 37.6543 89.6445 38.1816C89.6445 38.709 89.8184 39.1562 90.166 39.5234C90.5137 39.8906 90.957 40.0742 91.4961 40.0742C92.0352 40.0742 92.4844 39.8926 92.8438 39.5293C93.207 39.166 93.3887 38.7188 93.3887 38.1875C93.3887 37.6562 93.209 37.207 92.8496 36.8398C92.4902 36.4727 92.0449 36.2871 91.5137 36.2832C90.9863 36.2871 90.543 36.4727 90.1836 36.8398ZM88.4551 44.0352V35.2988H89.6035V36.0312C90.084 35.4727 90.7324 35.1934 91.5488 35.1934C92.3652 35.1934 93.0664 35.4805 93.6523 36.0547C94.2344 36.6328 94.5254 37.3398 94.5254 38.1758C94.5254 39.0117 94.2363 39.7168 93.6582 40.291C93.0801 40.8652 92.377 41.1523 91.5488 41.1523C90.7207 41.1523 90.0723 40.877 89.6035 40.3262V44.0352H88.4551ZM99.8047 39.5117C100.164 39.1367 100.344 38.6895 100.344 38.1699C100.344 37.6504 100.162 37.207 99.7988 36.8398C99.4355 36.4727 98.9941 36.2871 98.4746 36.2832C97.9551 36.2832 97.5176 36.4727 97.1621 36.8516C96.8027 37.2266 96.623 37.6719 96.623 38.1875C96.623 38.7031 96.8027 39.1465 97.1621 39.5176C97.5215 39.8887 97.9629 40.0742 98.4863 40.0742C99.0059 40.0742 99.4453 39.8867 99.8047 39.5117ZM100.607 36.0664C101.193 36.6523 101.486 37.3555 101.486 38.1758C101.486 38.9961 101.189 39.6992 100.596 40.2852C100.002 40.8711 99.2949 41.1621 98.4746 41.1582C97.6543 41.1543 96.9492 40.8633 96.3594 40.2852C95.7734 39.707 95.4824 39.0059 95.4863 38.1816C95.4863 37.3574 95.7754 36.6523 96.3535 36.0664C96.9316 35.4805 97.6387 35.1875 98.4746 35.1875C99.3105 35.1875 100.021 35.4805 100.607 36.0664ZM104.58 40.1094C104.885 40.1094 105.119 40.0508 105.283 39.9336C105.447 39.8164 105.529 39.6602 105.529 39.4648C105.529 39.2656 105.428 39.1035 105.225 38.9785C105.021 38.8535 104.775 38.7559 104.486 38.6855C104.197 38.6152 103.908 38.5293 103.619 38.4277C103.33 38.3262 103.082 38.1543 102.875 37.9121C102.672 37.6699 102.568 37.3594 102.564 36.9805C102.564 36.4531 102.744 36.0234 103.104 35.6914C103.463 35.3594 103.936 35.1934 104.521 35.1934C105.283 35.1934 105.928 35.4082 106.455 35.8379L105.846 36.6934C105.447 36.3965 105.01 36.248 104.533 36.248C104.26 36.248 104.053 36.3066 103.912 36.4238C103.771 36.5371 103.703 36.6836 103.707 36.8633C103.707 37.1758 104.055 37.4316 104.75 37.6309C105.039 37.709 105.328 37.8047 105.617 37.918C105.906 38.0312 106.152 38.2109 106.355 38.457C106.559 38.7031 106.66 39.0156 106.66 39.3945C106.664 39.9375 106.475 40.3672 106.092 40.6836C105.709 41 105.154 41.1582 104.428 41.1582C103.701 41.1582 103.014 40.9102 102.365 40.4141L102.986 39.5234C103.467 39.9141 103.998 40.1094 104.58 40.1094ZM109.859 41.1582C109.219 41.1582 108.783 40.9863 108.553 40.6426C108.322 40.2988 108.205 39.834 108.201 39.248V36.3945H107.305V35.2988H108.201V33.3652H109.367V35.2988H110.914V36.3945H109.367V39.1133C109.367 39.457 109.42 39.7031 109.525 39.8516C109.635 40 109.834 40.0742 110.123 40.0742C110.412 40.0742 110.625 40.0469 110.762 39.9922V41.0234C110.547 41.1133 110.246 41.1582 109.859 41.1582Z" fill="#00FFF9"/>
</svg>
