<svg width="193" height="44" viewBox="0 0 193 44" fill="none" xmlns="http://www.w3.org/2000/svg">
<path d="M102.782 2.36423C101.193 0.839672 98.9957 0 96.5931 0C92.9232 0 90.666 1.50437 89.4187 2.76631C87.8814 4.32152 87 6.38654 87 8.43196C87 11.0001 88.0742 12.9713 89.8731 13.7046C89.9939 13.7541 90.1154 13.779 90.2345 13.779C90.6141 13.779 90.9147 13.5307 91.0189 13.1324C91.0797 12.9039 91.2204 12.3401 91.2815 12.0954C91.4125 11.6121 91.3067 11.3796 91.0211 11.0431C90.5008 10.4275 90.2585 9.69949 90.2585 8.75208C90.2585 5.93795 92.354 2.94714 96.2377 2.94714C99.3192 2.94714 101.233 4.69859 101.233 7.51789C101.233 9.297 100.85 10.9446 100.154 12.1575C99.6705 13.0002 98.8199 14.0047 97.5142 14.0047C96.9496 14.0047 96.4424 13.7728 96.1224 13.3684C95.8201 12.9862 95.7204 12.4924 95.842 11.9777C95.9794 11.3963 96.1667 10.7898 96.348 10.2034C96.6786 9.13249 96.9911 8.12099 96.9911 7.31399C96.9911 5.93367 96.1425 5.00618 94.8797 5.00618C93.2748 5.00618 92.0174 6.63622 92.0174 8.71716C92.0174 9.73771 92.2887 10.501 92.4115 10.7941C92.2093 11.6507 91.0077 16.7436 90.7797 17.7039C90.6479 18.2645 89.854 22.6924 91.1681 23.0455C92.6445 23.4422 93.9642 19.1297 94.0985 18.6424C94.2074 18.2461 94.5883 16.7475 94.8217 15.8263C95.5344 16.5128 96.682 16.9769 97.7986 16.9769C99.9037 16.9769 101.797 16.0297 103.129 14.3098C104.422 12.6416 105.133 10.3166 105.133 7.76321C105.133 5.76708 104.276 3.79916 102.782 2.36423Z" fill="#00FFF9"/>
<path d="M52.8008 35.6934C53.4102 35.6934 53.8906 35.5527 54.2422 35.2715C54.5938 34.9902 54.7695 34.5703 54.7695 34.0117C54.7695 33.4531 54.6035 33.0254 54.2715 32.7285C53.9395 32.4316 53.4492 32.2832 52.8008 32.2832H51.3477V35.6934H52.8008ZM50.123 40V31.1172H52.8242C53.8008 31.1172 54.5723 31.3652 55.1387 31.8613C55.709 32.3574 55.9941 33.0625 55.9941 33.9766C55.9941 34.8906 55.7168 35.5977 55.1621 36.0977C54.6074 36.6016 53.8281 36.8535 52.8242 36.8535H51.3477V40H50.123ZM57.3418 40V34.2988H58.502V40H57.3418ZM58.4727 33.0098C58.3242 33.1582 58.1406 33.2324 57.9219 33.2324C57.7031 33.2324 57.5176 33.1582 57.3652 33.0098C57.2129 32.8613 57.1367 32.6777 57.1367 32.459C57.1367 32.2402 57.2129 32.0566 57.3652 31.9082C57.5176 31.7598 57.7031 31.6855 57.9219 31.6855C58.1406 31.6855 58.3242 31.7578 58.4727 31.9023C58.6211 32.0469 58.6953 32.2305 58.6953 32.4531C58.6953 32.6758 58.6211 32.8613 58.4727 33.0098ZM64.4199 40V37.0117C64.4199 35.8594 63.9551 35.2832 63.0254 35.2832C62.0566 35.2832 61.5723 35.8867 61.5723 37.0938V40H60.4238V34.2988H61.5723V34.9141C61.998 34.4336 62.5586 34.1934 63.2539 34.1934C63.9492 34.1973 64.5117 34.4141 64.9414 34.8438C65.3711 35.2734 65.584 35.916 65.5801 36.7715V40H64.4199ZM69.0664 40.1582C68.4258 40.1582 67.9902 39.9863 67.7598 39.6426C67.5293 39.2988 67.4121 38.834 67.4082 38.248V35.3945H66.5117V34.2988H67.4082V32.3652H68.5742V34.2988H70.1211V35.3945H68.5742V38.1133C68.5742 38.457 68.627 38.7031 68.7324 38.8516C68.8418 39 69.041 39.0742 69.3301 39.0742C69.6191 39.0742 69.832 39.0469 69.9688 38.9922V40.0234C69.7539 40.1133 69.4531 40.1582 69.0664 40.1582ZM74.873 35.6523C74.5449 35.3828 74.1621 35.248 73.7246 35.248C73.2871 35.248 72.9121 35.3789 72.5996 35.6406C72.2832 35.9023 72.0742 36.2402 71.9727 36.6543H75.4531C75.3945 36.2559 75.2012 35.9219 74.873 35.6523ZM71.6621 39.2969C71.084 38.7266 70.7949 38.0273 70.7949 37.1992C70.7949 36.3711 71.0723 35.6621 71.627 35.0723C72.1816 34.4824 72.877 34.1875 73.7129 34.1875C74.5488 34.1875 75.2422 34.4805 75.793 35.0664C76.3477 35.6523 76.625 36.3535 76.625 37.1699C76.625 37.2754 76.6172 37.4062 76.6016 37.5625H71.9316C72.0098 38.0117 72.2168 38.3828 72.5527 38.6758C72.8887 38.9688 73.2988 39.1133 73.7832 39.1094C74.4785 39.1094 75.0098 38.8496 75.377 38.3301L76.1973 38.957C75.9316 39.332 75.584 39.625 75.1543 39.8359C74.7246 40.0469 74.2676 40.1543 73.7832 40.1582C72.9473 40.1543 72.2402 39.8672 71.6621 39.2969ZM78.0371 40V34.2988H79.1855V34.9844C79.4512 34.6641 79.7441 34.4512 80.0645 34.3457C80.3848 34.2402 80.832 34.1895 81.4062 34.1934V35.2949C80.5352 35.2949 79.9473 35.4453 79.6426 35.7461C79.3379 36.0469 79.1855 36.4805 79.1855 37.0469V40H78.0371ZM85.9238 35.6523C85.5957 35.3828 85.2129 35.248 84.7754 35.248C84.3379 35.248 83.9629 35.3789 83.6504 35.6406C83.334 35.9023 83.125 36.2402 83.0234 36.6543H86.5039C86.4453 36.2559 86.252 35.9219 85.9238 35.6523ZM82.7129 39.2969C82.1348 38.7266 81.8457 38.0273 81.8457 37.1992C81.8457 36.3711 82.123 35.6621 82.6777 35.0723C83.2324 34.4824 83.9277 34.1875 84.7637 34.1875C85.5996 34.1875 86.293 34.4805 86.8438 35.0664C87.3984 35.6523 87.6758 36.3535 87.6758 37.1699C87.6758 37.2754 87.668 37.4062 87.6523 37.5625H82.9824C83.0605 38.0117 83.2676 38.3828 83.6035 38.6758C83.9395 38.9688 84.3496 39.1133 84.834 39.1094C85.5293 39.1094 86.0605 38.8496 86.4277 38.3301L87.248 38.957C86.9824 39.332 86.6348 39.625 86.2051 39.8359C85.7754 40.0469 85.3184 40.1543 84.834 40.1582C83.998 40.1543 83.291 39.8672 82.7129 39.2969ZM90.7402 39.1094C91.0449 39.1094 91.2793 39.0508 91.4434 38.9336C91.6074 38.8164 91.6895 38.6602 91.6895 38.4648C91.6895 38.2656 91.5879 38.1035 91.3848 37.9785C91.1816 37.8535 90.9355 37.7559 90.6465 37.6855C90.3574 37.6152 90.0684 37.5293 89.7793 37.4277C89.4902 37.3262 89.2422 37.1543 89.0352 36.9121C88.832 36.6699 88.7285 36.3594 88.7246 35.9805C88.7246 35.4531 88.9043 35.0234 89.2637 34.6914C89.623 34.3594 90.0957 34.1934 90.6816 34.1934C91.4434 34.1934 92.0879 34.4082 92.6152 34.8379L92.0059 35.6934C91.6074 35.3965 91.1699 35.248 90.6934 35.248C90.4199 35.248 90.2129 35.3066 90.0723 35.4238C89.9316 35.5371 89.8633 35.6836 89.8672 35.8633C89.8672 36.1758 90.2148 36.4316 90.9102 36.6309C91.1992 36.709 91.4883 36.8047 91.7773 36.918C92.0664 37.0312 92.3125 37.2109 92.5156 37.457C92.7188 37.7031 92.8203 38.0156 92.8203 38.3945C92.8242 38.9375 92.6348 39.3672 92.252 39.6836C91.8691 40 91.3145 40.1582 90.5879 40.1582C89.8613 40.1582 89.1738 39.9102 88.5254 39.4141L89.1465 38.5234C89.627 38.9141 90.1582 39.1094 90.7402 39.1094ZM96.0195 40.1582C95.3789 40.1582 94.9434 39.9863 94.7129 39.6426C94.4824 39.2988 94.3652 38.834 94.3613 38.248V35.3945H93.4648V34.2988H94.3613V32.3652H95.5273V34.2988H97.0742V35.3945H95.5273V38.1133C95.5273 38.457 95.5801 38.7031 95.6855 38.8516C95.7949 39 95.9941 39.0742 96.2832 39.0742C96.5723 39.0742 96.7852 39.0469 96.9219 38.9922V40.0234C96.707 40.1133 96.4062 40.1582 96.0195 40.1582Z" fill="white"/>
<path d="M105.529 38.5176C105.889 38.1465 106.068 37.7012 106.068 37.1816C106.068 36.6621 105.889 36.2148 105.529 35.8398C105.17 35.4648 104.723 35.2793 104.188 35.2832C103.656 35.2832 103.211 35.4668 102.852 35.834C102.488 36.2051 102.307 36.6562 102.307 37.1875C102.307 37.7188 102.486 38.166 102.846 38.5293C103.205 38.8926 103.65 39.0742 104.182 39.0742C104.721 39.0742 105.17 38.8887 105.529 38.5176ZM102.037 39.2969C101.459 38.7188 101.17 38.0117 101.17 37.1758C101.17 36.3398 101.461 35.6328 102.043 35.0547C102.629 34.4805 103.328 34.1934 104.141 34.1934C104.953 34.1934 105.604 34.4727 106.092 35.0312V34.2988H107.24V39.5312C107.24 41.0391 106.771 42.0684 105.834 42.6191C105.365 42.8965 104.836 43.0352 104.246 43.0352C103.66 43.0352 103.141 42.9141 102.688 42.6719C102.234 42.4297 101.873 42.0879 101.604 41.6465L102.67 41.1895C103.029 41.7012 103.514 41.957 104.123 41.957C104.732 41.957 105.211 41.7832 105.559 41.4355C105.91 41.0879 106.088 40.5215 106.092 39.7363V39.3262C105.619 39.877 104.971 40.1523 104.146 40.1523C103.318 40.1523 102.615 39.8672 102.037 39.2969ZM109.162 40V34.2988H110.311V34.9844C110.576 34.6641 110.869 34.4512 111.189 34.3457C111.51 34.2402 111.957 34.1895 112.531 34.1934V35.2949C111.66 35.2949 111.072 35.4453 110.768 35.7461C110.463 36.0469 110.311 36.4805 110.311 37.0469V40H109.162ZM117.33 38.5176C117.689 38.1465 117.869 37.7012 117.869 37.1816C117.869 36.6621 117.689 36.2148 117.33 35.8398C116.971 35.4648 116.523 35.2793 115.988 35.2832C115.457 35.2832 115.012 35.4668 114.652 35.834C114.289 36.2051 114.107 36.6562 114.107 37.1875C114.107 37.7188 114.287 38.166 114.646 38.5293C115.006 38.8926 115.451 39.0742 115.982 39.0742C116.521 39.0742 116.971 38.8887 117.33 38.5176ZM117.893 40V39.3262C117.42 39.877 116.771 40.1523 115.947 40.1523C115.119 40.1523 114.416 39.8672 113.838 39.2969C113.26 38.7188 112.971 38.0117 112.971 37.1758C112.971 36.3398 113.262 35.6328 113.844 35.0547C114.43 34.4805 115.129 34.1934 115.941 34.1934C116.754 34.1934 117.404 34.4727 117.893 35.0312V34.2988H119.041V40H117.893ZM122.691 35.8398C122.332 36.207 122.152 36.6543 122.152 37.1816C122.152 37.709 122.326 38.1562 122.674 38.5234C123.021 38.8906 123.465 39.0742 124.004 39.0742C124.543 39.0742 124.992 38.8926 125.352 38.5293C125.715 38.166 125.896 37.7188 125.896 37.1875C125.896 36.6562 125.717 36.207 125.357 35.8398C124.998 35.4727 124.553 35.2871 124.021 35.2832C123.494 35.2871 123.051 35.4727 122.691 35.8398ZM120.963 43.0352V34.2988H122.111V35.0312C122.592 34.4727 123.24 34.1934 124.057 34.1934C124.873 34.1934 125.574 34.4805 126.16 35.0547C126.742 35.6328 127.033 36.3398 127.033 37.1758C127.033 38.0117 126.744 38.7168 126.166 39.291C125.588 39.8652 124.885 40.1523 124.057 40.1523C123.229 40.1523 122.58 39.877 122.111 39.3262V43.0352H120.963ZM132.471 40V37.0117C132.471 35.8594 132.006 35.2832 131.076 35.2832C130.107 35.2832 129.623 35.8867 129.623 37.0938V40H128.475V31.1172H129.623V34.9141C130.049 34.4336 130.609 34.1934 131.305 34.1934C132 34.1973 132.562 34.4141 132.992 34.8438C133.422 35.2734 133.635 35.916 133.631 36.7715V40H132.471ZM135.436 40V34.2988H136.596V40H135.436ZM136.566 33.0098C136.418 33.1582 136.234 33.2324 136.016 33.2324C135.797 33.2324 135.611 33.1582 135.459 33.0098C135.307 32.8613 135.23 32.6777 135.23 32.459C135.23 32.2402 135.307 32.0566 135.459 31.9082C135.611 31.7598 135.797 31.6855 136.016 31.6855C136.234 31.6855 136.418 31.7578 136.566 31.9023C136.715 32.0469 136.789 32.2305 136.789 32.4531C136.789 32.6758 136.715 32.8613 136.566 33.0098ZM141.025 40.1582C140.201 40.1543 139.496 39.8633 138.91 39.2852C138.324 38.707 138.033 38.0059 138.037 37.1816C138.037 36.3574 138.326 35.6523 138.904 35.0664C139.482 34.4805 140.189 34.1895 141.025 34.1934C141.553 34.1895 142.041 34.3164 142.49 34.5742C142.939 34.832 143.299 35.1719 143.568 35.5938L142.596 36.1504C142.428 35.8848 142.205 35.6738 141.928 35.5176C141.65 35.3613 141.35 35.2832 141.025 35.2832C140.514 35.2832 140.078 35.4707 139.719 35.8457C139.355 36.2246 139.174 36.6719 139.174 37.1875C139.174 37.7031 139.357 38.1465 139.725 38.5176C140.092 38.8887 140.533 39.0742 141.049 39.0742C141.744 39.0742 142.271 38.7754 142.631 38.1777L143.592 38.7402C143.326 39.1738 142.967 39.5195 142.514 39.7773C142.061 40.0352 141.564 40.1621 141.025 40.1582Z" fill="#00FFF9"/>
</svg>
