<svg width="139" height="44" viewBox="0 0 139 44" fill="none" xmlns="http://www.w3.org/2000/svg">
<path d="M69.4898 1.22774C72.5767 1.22877 75.148 3.79869 75.1518 6.89304C75.1527 7.6178 75.175 8.2852 75.2159 8.90001C75.2411 9.27933 75.5566 9.56044 75.9184 9.56044C75.9717 9.56044 76.026 9.55435 76.0805 9.54158L77.0475 9.31489C77.0887 9.30521 77.13 9.3006 77.1708 9.3006C77.4164 9.3006 77.6425 9.4684 77.6977 9.71695C77.7756 10.0682 77.5788 10.423 77.2385 10.5424L75.7706 11.1349C75.4 11.2845 75.201 11.6879 75.3053 12.0737C76.483 16.4274 79.7723 15.9747 79.7723 16.5419C79.7723 17.2542 77.293 17.3547 77.069 17.5788C76.845 17.8028 77.0593 18.8901 76.5588 19.1005C76.4645 19.1402 76.3305 19.154 76.167 19.154C75.79 19.154 75.2569 19.0805 74.695 19.0805C74.2075 19.0805 73.6985 19.1358 73.2509 19.3426C72.0637 19.891 70.919 20.9154 69.5 20.9154C68.081 20.9154 66.9364 19.891 65.7491 19.3426C65.3015 19.1358 64.7926 19.0805 64.3051 19.0805C63.7432 19.0805 63.21 19.154 62.8331 19.154C62.6697 19.154 62.5355 19.1402 62.4412 19.1005C61.9408 18.8901 62.155 17.8028 61.931 17.5788C61.707 17.3547 59.2277 17.2541 59.2277 16.5418C59.2277 15.9746 62.5171 16.4274 63.6947 12.0736C63.7991 11.6879 63.6 11.2845 63.2294 11.1349L61.7615 10.5423C61.4211 10.423 61.2243 10.0681 61.3023 9.7169C61.3575 9.46831 61.5836 9.3005 61.8292 9.30055C61.87 9.30055 61.9113 9.30516 61.9525 9.31484L62.9195 9.54153C62.974 9.5543 63.0283 9.56039 63.0816 9.56039C63.4433 9.56039 63.7589 9.27923 63.7841 8.89996C63.825 8.28515 63.8474 7.61775 63.8483 6.89299C63.852 3.79869 66.4029 1.22882 69.4898 1.22774ZM69.4902 0H69.4898H69.4893C68.5679 0.000294658 67.6703 0.185438 66.8216 0.550324C66.0069 0.900525 65.2737 1.39987 64.6424 2.03452C64.0119 2.66833 63.5157 3.40414 63.1676 4.22152C62.8056 5.07146 62.6216 5.96978 62.6204 6.89152C62.6199 7.34406 62.6105 7.78325 62.5924 8.20383L62.2327 8.11946C62.1007 8.08852 61.9649 8.0728 61.8293 8.07276C61.4378 8.07271 61.0515 8.20506 60.7417 8.4454C60.4186 8.69615 60.1919 9.05323 60.1037 9.45087C59.8936 10.3974 60.4162 11.3529 61.3219 11.6889L62.3992 12.1238C61.6859 14.3134 60.3705 14.733 59.4847 15.0156C59.2496 15.0906 59.0466 15.1554 58.8533 15.2513C58.0831 15.6335 58 16.2812 58 16.5418C58 17.0411 58.2363 17.4968 58.6655 17.8248C58.8792 17.9881 59.1439 18.1229 59.4747 18.2367C59.9255 18.392 60.4482 18.4905 60.873 18.5695C60.8935 18.7269 60.9236 18.8959 60.9744 19.0664C61.185 19.7741 61.6295 20.091 61.9653 20.2322C62.2839 20.3662 62.6132 20.3817 62.8331 20.3817C63.0482 20.3817 63.2756 20.3648 63.5163 20.347C63.7746 20.3278 64.0416 20.3081 64.3051 20.3081C64.7134 20.3081 65.0173 20.3568 65.2343 20.457C65.5321 20.5946 65.848 20.7801 66.1824 20.9765C67.1134 21.5233 68.1687 22.1431 69.5 22.1431C70.8314 22.1431 71.8866 21.5233 72.8176 20.9765C73.152 20.7801 73.4679 20.5946 73.7658 20.457C73.9827 20.3568 74.2867 20.3081 74.695 20.3081C74.9584 20.3081 75.2255 20.3279 75.4837 20.347C75.7244 20.3648 75.9518 20.3817 76.1669 20.3817C76.3868 20.3817 76.716 20.3662 77.0347 20.2322C77.3705 20.091 77.815 19.7741 78.0256 19.0664C78.0764 18.8959 78.1065 18.7269 78.127 18.5695C78.5518 18.4905 79.0745 18.392 79.5253 18.2367C79.8562 18.1229 80.1208 17.9881 80.3345 17.8248C80.7636 17.4968 81 17.0411 81 16.5418C81 16.2812 80.9169 15.6335 80.1466 15.2513C79.9533 15.1554 79.7503 15.0906 79.5152 15.0156C78.6294 14.7331 77.314 14.3134 76.6007 12.1238L77.6779 11.6889C78.5836 11.3529 79.1063 10.3974 78.8962 9.45087C78.808 9.05323 78.5813 8.69615 78.2582 8.4454C77.9484 8.20511 77.5622 8.07276 77.1708 8.07276C77.0352 8.07276 76.8994 8.08847 76.7673 8.11941L76.4075 8.20378C76.3894 7.78325 76.3801 7.34407 76.3795 6.89147C76.3784 5.96899 76.1928 5.06979 75.828 4.21872C75.4778 3.40173 74.9789 2.66612 74.3452 2.03226C73.7115 1.39845 72.9763 0.899641 72.1599 0.549734C71.3096 0.185291 70.4114 0.000343768 69.4902 0Z" fill="#2CFEFA"/>
<path d="M20.9727 39.0391C21.4688 39.0391 21.8691 38.8945 22.1738 38.6055C22.4785 38.3164 22.6309 37.9941 22.6309 37.6387C22.6309 37.2832 22.5293 36.9961 22.3262 36.7773C22.123 36.5586 21.8711 36.3906 21.5703 36.2734C21.2695 36.1562 20.9414 36.0176 20.5859 35.8574C20.2305 35.6973 19.9023 35.5332 19.6016 35.3652C19.3008 35.1973 19.0488 34.9492 18.8457 34.6211C18.6426 34.293 18.541 33.9023 18.541 33.4492C18.541 32.7148 18.7871 32.1172 19.2793 31.6562C19.7715 31.1953 20.4453 30.9648 21.3008 30.9648C22.1562 30.9648 22.9238 31.2441 23.6035 31.8027L22.918 32.7402C22.4219 32.3066 21.8672 32.0898 21.2539 32.0898C20.7812 32.0898 20.4141 32.2031 20.1523 32.4297C19.8945 32.6562 19.7656 32.9375 19.7656 33.2734C19.7656 33.6133 19.8672 33.8926 20.0703 34.1113C20.2734 34.3301 20.5254 34.498 20.8262 34.6152C21.127 34.7324 21.4551 34.8691 21.8105 35.0254C22.166 35.1816 22.4941 35.3438 22.7949 35.5117C23.0957 35.6797 23.3477 35.9316 23.5508 36.2676C23.7539 36.6035 23.8555 37.0078 23.8555 37.4805C23.8555 38.2812 23.5918 38.9277 23.0645 39.4199C22.5371 39.9121 21.8535 40.1582 21.0137 40.1582C20.4277 40.1582 19.8789 40.0293 19.3672 39.7715C18.8555 39.5137 18.4316 39.1426 18.0957 38.6582L18.8633 37.8027C19.5273 38.627 20.2305 39.0391 20.9727 39.0391ZM29.2695 40V37.0117C29.2695 35.8594 28.8047 35.2832 27.875 35.2832C26.9062 35.2832 26.4219 35.8867 26.4219 37.0938V40H25.2734V34.2988H26.4219V34.9141C26.8477 34.4336 27.4082 34.1934 28.1035 34.1934C28.7988 34.1973 29.3613 34.4141 29.791 34.8438C30.2207 35.2734 30.4336 35.916 30.4297 36.7715V40H29.2695ZM36.1133 38.5176C36.4727 38.1465 36.6523 37.7012 36.6523 37.1816C36.6523 36.6621 36.4727 36.2148 36.1133 35.8398C35.7539 35.4648 35.3066 35.2793 34.7715 35.2832C34.2402 35.2832 33.7949 35.4668 33.4355 35.834C33.0723 36.2051 32.8906 36.6562 32.8906 37.1875C32.8906 37.7188 33.0703 38.166 33.4297 38.5293C33.7891 38.8926 34.2344 39.0742 34.7656 39.0742C35.3047 39.0742 35.7539 38.8887 36.1133 38.5176ZM36.6758 40V39.3262C36.2031 39.877 35.5547 40.1523 34.7305 40.1523C33.9023 40.1523 33.1992 39.8672 32.6211 39.2969C32.043 38.7188 31.7539 38.0117 31.7539 37.1758C31.7539 36.3398 32.0449 35.6328 32.627 35.0547C33.2129 34.4805 33.9121 34.1934 34.7246 34.1934C35.5371 34.1934 36.1875 34.4727 36.6758 35.0312V34.2988H37.8242V40H36.6758ZM41.4746 35.8398C41.1152 36.207 40.9355 36.6543 40.9355 37.1816C40.9355 37.709 41.1094 38.1562 41.457 38.5234C41.8047 38.8906 42.248 39.0742 42.7871 39.0742C43.3262 39.0742 43.7754 38.8926 44.1348 38.5293C44.498 38.166 44.6797 37.7188 44.6797 37.1875C44.6797 36.6562 44.5 36.207 44.1406 35.8398C43.7812 35.4727 43.3359 35.2871 42.8047 35.2832C42.2773 35.2871 41.834 35.4727 41.4746 35.8398ZM39.7461 43.0352V34.2988H40.8945V35.0312C41.375 34.4727 42.0234 34.1934 42.8398 34.1934C43.6562 34.1934 44.3574 34.4805 44.9434 35.0547C45.5254 35.6328 45.8164 36.3398 45.8164 37.1758C45.8164 38.0117 45.5273 38.7168 44.9492 39.291C44.3711 39.8652 43.668 40.1523 42.8398 40.1523C42.0117 40.1523 41.3633 39.877 40.8945 39.3262V43.0352H39.7461ZM49.7656 40.1582C48.9414 40.1543 48.2363 39.8633 47.6504 39.2852C47.0645 38.707 46.7734 38.0059 46.7773 37.1816C46.7773 36.3574 47.0664 35.6523 47.6445 35.0664C48.2227 34.4805 48.9297 34.1895 49.7656 34.1934C50.293 34.1895 50.7812 34.3164 51.2305 34.5742C51.6797 34.832 52.0391 35.1719 52.3086 35.5938L51.3359 36.1504C51.168 35.8848 50.9453 35.6738 50.668 35.5176C50.3906 35.3613 50.0898 35.2832 49.7656 35.2832C49.2539 35.2832 48.8184 35.4707 48.459 35.8457C48.0957 36.2246 47.9141 36.6719 47.9141 37.1875C47.9141 37.7031 48.0977 38.1465 48.4648 38.5176C48.832 38.8887 49.2734 39.0742 49.7891 39.0742C50.4844 39.0742 51.0117 38.7754 51.3711 38.1777L52.332 38.7402C52.0664 39.1738 51.707 39.5195 51.2539 39.7773C50.8008 40.0352 50.3047 40.1621 49.7656 40.1582ZM57.5938 40V37.0117C57.5938 35.8594 57.1289 35.2832 56.1992 35.2832C55.2305 35.2832 54.7461 35.8867 54.7461 37.0938V40H53.5977V31.1172H54.7461V34.9141C55.1719 34.4336 55.7324 34.1934 56.4277 34.1934C57.123 34.1973 57.6855 34.4141 58.1152 34.8438C58.5449 35.2734 58.7578 35.916 58.7539 36.7715V40H57.5938ZM64.4375 38.5176C64.7969 38.1465 64.9766 37.7012 64.9766 37.1816C64.9766 36.6621 64.7969 36.2148 64.4375 35.8398C64.0781 35.4648 63.6309 35.2793 63.0957 35.2832C62.5645 35.2832 62.1191 35.4668 61.7598 35.834C61.3965 36.2051 61.2148 36.6562 61.2148 37.1875C61.2148 37.7188 61.3945 38.166 61.7539 38.5293C62.1133 38.8926 62.5586 39.0742 63.0898 39.0742C63.6289 39.0742 64.0781 38.8887 64.4375 38.5176ZM65 40V39.3262C64.5273 39.877 63.8789 40.1523 63.0547 40.1523C62.2266 40.1523 61.5234 39.8672 60.9453 39.2969C60.3672 38.7188 60.0781 38.0117 60.0781 37.1758C60.0781 36.3398 60.3691 35.6328 60.9512 35.0547C61.5371 34.4805 62.2363 34.1934 63.0488 34.1934C63.8613 34.1934 64.5117 34.4727 65 35.0312V34.2988H66.1484V40H65ZM69.8691 40.1582C69.2285 40.1582 68.793 39.9863 68.5625 39.6426C68.332 39.2988 68.2148 38.834 68.2109 38.248V35.3945H67.3145V34.2988H68.2109V32.3652H69.377V34.2988H70.9238V35.3945H69.377V38.1133C69.377 38.457 69.4297 38.7031 69.5352 38.8516C69.6445 39 69.8438 39.0742 70.1328 39.0742C70.4219 39.0742 70.6348 39.0469 70.7715 38.9922V40.0234C70.5566 40.1133 70.2559 40.1582 69.8691 40.1582Z" fill="white"/>
<path d="M79.3789 38.5176C79.7383 38.1465 79.918 37.7012 79.918 37.1816C79.918 36.6621 79.7383 36.2148 79.3789 35.8398C79.0195 35.4648 78.5723 35.2793 78.0371 35.2832C77.5059 35.2832 77.0605 35.4668 76.7012 35.834C76.3379 36.2051 76.1562 36.6562 76.1562 37.1875C76.1562 37.7188 76.3359 38.166 76.6953 38.5293C77.0547 38.8926 77.5 39.0742 78.0312 39.0742C78.5703 39.0742 79.0195 38.8887 79.3789 38.5176ZM75.8867 39.2969C75.3086 38.7188 75.0195 38.0117 75.0195 37.1758C75.0195 36.3398 75.3105 35.6328 75.8926 35.0547C76.4785 34.4805 77.1777 34.1934 77.9902 34.1934C78.8027 34.1934 79.4531 34.4727 79.9414 35.0312V34.2988H81.0898V39.5312C81.0898 41.0391 80.6211 42.0684 79.6836 42.6191C79.2148 42.8965 78.6855 43.0352 78.0957 43.0352C77.5098 43.0352 76.9902 42.9141 76.5371 42.6719C76.084 42.4297 75.7227 42.0879 75.4531 41.6465L76.5195 41.1895C76.8789 41.7012 77.3633 41.957 77.9727 41.957C78.582 41.957 79.0605 41.7832 79.4082 41.4355C79.7598 41.0879 79.9375 40.5215 79.9414 39.7363V39.3262C79.4688 39.877 78.8203 40.1523 77.9961 40.1523C77.168 40.1523 76.4648 39.8672 75.8867 39.2969ZM86.6094 35.6523C86.2812 35.3828 85.8984 35.248 85.4609 35.248C85.0234 35.248 84.6484 35.3789 84.3359 35.6406C84.0195 35.9023 83.8105 36.2402 83.709 36.6543H87.1895C87.1309 36.2559 86.9375 35.9219 86.6094 35.6523ZM83.3984 39.2969C82.8203 38.7266 82.5312 38.0273 82.5312 37.1992C82.5312 36.3711 82.8086 35.6621 83.3633 35.0723C83.918 34.4824 84.6133 34.1875 85.4492 34.1875C86.2852 34.1875 86.9785 34.4805 87.5293 35.0664C88.084 35.6523 88.3613 36.3535 88.3613 37.1699C88.3613 37.2754 88.3535 37.4062 88.3379 37.5625H83.668C83.7461 38.0117 83.9531 38.3828 84.2891 38.6758C84.625 38.9688 85.0352 39.1133 85.5195 39.1094C86.2148 39.1094 86.7461 38.8496 87.1133 38.3301L87.9336 38.957C87.668 39.332 87.3203 39.625 86.8906 39.8359C86.4609 40.0469 86.0039 40.1543 85.5195 40.1582C84.6836 40.1543 83.9766 39.8672 83.3984 39.2969ZM93.6113 38.5117C93.9707 38.1367 94.1504 37.6895 94.1504 37.1699C94.1504 36.6504 93.9688 36.207 93.6055 35.8398C93.2422 35.4727 92.8008 35.2871 92.2812 35.2832C91.7617 35.2832 91.3242 35.4727 90.9688 35.8516C90.6094 36.2266 90.4297 36.6719 90.4297 37.1875C90.4297 37.7031 90.6094 38.1465 90.9688 38.5176C91.3281 38.8887 91.7695 39.0742 92.293 39.0742C92.8125 39.0742 93.252 38.8867 93.6113 38.5117ZM94.4141 35.0664C95 35.6523 95.293 36.3555 95.293 37.1758C95.293 37.9961 94.9961 38.6992 94.4023 39.2852C93.8086 39.8711 93.1016 40.1621 92.2812 40.1582C91.4609 40.1543 90.7559 39.8633 90.166 39.2852C89.5801 38.707 89.2891 38.0059 89.293 37.1816C89.293 36.3574 89.582 35.6523 90.1602 35.0664C90.7383 34.4805 91.4453 34.1875 92.2812 34.1875C93.1172 34.1875 93.8281 34.4805 94.4141 35.0664ZM101.58 32.957C101.436 33.1016 101.26 33.1738 101.053 33.1738C100.846 33.1738 100.67 33.1016 100.525 32.957C100.381 32.8125 100.309 32.6367 100.309 32.4297C100.309 32.2227 100.381 32.0469 100.525 31.9023C100.67 31.7578 100.846 31.6855 101.053 31.6855C101.26 31.6855 101.436 31.7578 101.58 31.9023C101.725 32.0469 101.797 32.2227 101.797 32.4297C101.797 32.6367 101.725 32.8125 101.58 32.957ZM98.7734 32.2012C98.207 32.2012 97.9238 32.5215 97.9238 33.1621V34.2988H101.633V40H100.479V35.3945H97.9238V40H96.7578V35.3945H95.9199V34.2988H96.7578V32.9805C96.7578 32.4102 96.9004 31.957 97.1855 31.6211C97.4707 31.2852 97.9121 31.1172 98.5098 31.1172C98.8535 31.1172 99.1699 31.1621 99.459 31.252V32.2832C99.2754 32.2285 99.0469 32.2012 98.7734 32.2012ZM103.566 31.1172H104.715V38.1895C104.715 38.5137 104.766 38.7422 104.867 38.875C104.969 39.0078 105.154 39.0742 105.424 39.0742C105.545 39.0742 105.641 39.0703 105.711 39.0625V40.0703C105.488 40.125 105.277 40.1543 105.078 40.1582C104.605 40.1582 104.234 40.0195 103.965 39.7422C103.695 39.4648 103.562 39.0664 103.566 38.5469V31.1172ZM108.6 40.1582C107.959 40.1582 107.523 39.9863 107.293 39.6426C107.062 39.2988 106.945 38.834 106.941 38.248V35.3945H106.045V34.2988H106.941V32.3652H108.107V34.2988H109.654V35.3945H108.107V38.1133C108.107 38.457 108.16 38.7031 108.266 38.8516C108.375 39 108.574 39.0742 108.863 39.0742C109.152 39.0742 109.365 39.0469 109.502 38.9922V40.0234C109.287 40.1133 108.986 40.1582 108.6 40.1582ZM114.406 35.6523C114.078 35.3828 113.695 35.248 113.258 35.248C112.82 35.248 112.445 35.3789 112.133 35.6406C111.816 35.9023 111.607 36.2402 111.506 36.6543H114.986C114.928 36.2559 114.734 35.9219 114.406 35.6523ZM111.195 39.2969C110.617 38.7266 110.328 38.0273 110.328 37.1992C110.328 36.3711 110.605 35.6621 111.16 35.0723C111.715 34.4824 112.41 34.1875 113.246 34.1875C114.082 34.1875 114.775 34.4805 115.326 35.0664C115.881 35.6523 116.158 36.3535 116.158 37.1699C116.158 37.2754 116.15 37.4062 116.135 37.5625H111.465C111.543 38.0117 111.75 38.3828 112.086 38.6758C112.422 38.9688 112.832 39.1133 113.316 39.1094C114.012 39.1094 114.543 38.8496 114.91 38.3301L115.73 38.957C115.465 39.332 115.117 39.625 114.688 39.8359C114.258 40.0469 113.801 40.1543 113.316 40.1582C112.48 40.1543 111.773 39.8672 111.195 39.2969ZM117.57 40V34.2988H118.719V34.9844C118.984 34.6641 119.277 34.4512 119.598 34.3457C119.918 34.2402 120.365 34.1895 120.939 34.1934V35.2949C120.068 35.2949 119.48 35.4453 119.176 35.7461C118.871 36.0469 118.719 36.4805 118.719 37.0469V40H117.57Z" fill="#00FFF9"/>
</svg>
