<svg width="139" height="45" viewBox="0 0 139 45" fill="none" xmlns="http://www.w3.org/2000/svg">
<path d="M61.6115 2.58885C60.6133 3.4246 59.583 4.45458 59.1641 5.71088C58.681 7.19171 59.3566 8.70461 60.0019 10.0233C60.6454 11.374 61.3531 12.6945 61.9645 14.0773C62.4476 15.1714 63.1232 16.458 62.9627 17.6822C62.8344 18.5518 62.5438 19.3876 62.3834 20.2572C62.2551 20.8363 62.8023 20.2572 62.9948 20.0968C64.1214 19.131 65.3443 18.0368 65.7953 16.556C66.0199 15.8165 65.8915 15.1393 65.6348 14.4319C65.3782 13.7565 65.0876 13.1132 64.797 12.4361C64.1856 11.0836 63.5421 9.73281 62.8968 8.38029C62.6401 7.89737 62.3816 7.38238 62.157 6.86739C61.9324 6.32032 61.8023 5.74118 61.7702 5.12996C61.7381 4.64704 61.7381 4.1962 61.8023 3.71328C61.8344 3.35867 61.9306 3.03791 61.9627 2.68329C61.9966 2.49262 61.8362 2.42669 61.6115 2.58885ZM76.3553 2.58885C75.3571 3.42638 74.3267 4.45637 73.9078 5.71088C73.4248 7.19171 74.1004 8.70461 74.7457 10.0233C75.3892 11.3758 76.0986 12.6945 76.7101 14.0791C77.1932 15.1732 77.8688 16.4598 77.7083 17.684C77.58 18.5536 77.2894 19.3894 77.129 20.259C77.0006 20.8381 77.5479 20.259 77.7404 20.0986C78.867 19.1328 80.0899 18.0386 80.5409 16.5578C80.7655 15.8183 80.6371 15.1411 80.3804 14.4337C80.1237 13.7583 79.8332 13.115 79.5426 12.4379C78.9312 11.0853 78.2877 9.7346 77.6424 8.38207C77.3857 7.89916 77.1272 7.38416 76.9026 6.86917C76.678 6.3221 76.5479 5.74296 76.5158 5.13174C76.4837 4.64882 76.4837 4.19798 76.5479 3.71506C76.5799 3.36045 76.6762 3.03969 76.7083 2.68508C76.7422 2.49262 76.5817 2.42669 76.3553 2.58885Z" fill="#2CFEFA"/>
<path d="M68.758 0.142246C67.6314 1.076 66.4086 2.20222 65.7312 3.52088C65.2481 4.45464 65.1839 5.42047 65.4406 6.38453C65.7633 7.54281 66.2125 8.7011 66.6956 9.82732C67.6296 11.9835 68.8525 14.0114 69.7545 16.1997C70.0771 16.9713 70.4301 17.8409 70.4943 18.7105C70.5584 19.7726 70.2037 20.8988 69.9149 21.8967C69.8507 22.1871 69.6582 22.572 69.6903 22.8625C69.7224 23.087 69.8507 22.9908 69.9809 22.8946C70.5281 22.4758 71.0754 21.9929 71.5585 21.51C72.8776 20.2555 74.391 18.5804 74.2627 16.6184C74.1985 15.813 73.8117 15.0414 73.4908 14.3019C73.1361 13.434 72.751 12.5983 72.3642 11.7608C71.6565 10.1837 70.9149 8.63873 70.1431 7.09376C69.8864 6.54669 69.5637 6.03169 69.3712 5.48463C69.0807 4.7451 68.9523 3.97172 68.9202 3.20013C68.8881 2.62098 68.9202 2.00976 68.9844 1.43062C69.0165 1.04393 69.1448 0.691096 69.1448 0.304406C69.2411 -0.0502085 69.0486 -0.0822842 68.758 0.142246Z" fill="#2CFEFA"/>
<path d="M42.0488 40.0391C42.5449 40.0391 42.9453 39.8945 43.25 39.6055C43.5547 39.3164 43.707 38.9941 43.707 38.6387C43.707 38.2832 43.6055 37.9961 43.4023 37.7773C43.1992 37.5586 42.9473 37.3906 42.6465 37.2734C42.3457 37.1562 42.0176 37.0176 41.6621 36.8574C41.3066 36.6973 40.9785 36.5332 40.6777 36.3652C40.377 36.1973 40.125 35.9492 39.9219 35.6211C39.7188 35.293 39.6172 34.9023 39.6172 34.4492C39.6172 33.7148 39.8633 33.1172 40.3555 32.6562C40.8477 32.1953 41.5215 31.9648 42.377 31.9648C43.2324 31.9648 44 32.2441 44.6797 32.8027L43.9941 33.7402C43.498 33.3066 42.9434 33.0898 42.3301 33.0898C41.8574 33.0898 41.4902 33.2031 41.2285 33.4297C40.9707 33.6562 40.8418 33.9375 40.8418 34.2734C40.8418 34.6133 40.9434 34.8926 41.1465 35.1113C41.3496 35.3301 41.6016 35.498 41.9023 35.6152C42.2031 35.7324 42.5312 35.8691 42.8867 36.0254C43.2422 36.1816 43.5703 36.3438 43.8711 36.5117C44.1719 36.6797 44.4238 36.9316 44.627 37.2676C44.8301 37.6035 44.9316 38.0078 44.9316 38.4805C44.9316 39.2812 44.668 39.9277 44.1406 40.4199C43.6133 40.9121 42.9297 41.1582 42.0898 41.1582C41.5039 41.1582 40.9551 41.0293 40.4434 40.7715C39.9316 40.5137 39.5078 40.1426 39.1719 39.6582L39.9395 38.8027C40.6035 39.627 41.3066 40.0391 42.0488 40.0391ZM47.9023 41.1582C47.2617 41.1582 46.8262 40.9863 46.5957 40.6426C46.3652 40.2988 46.248 39.834 46.2441 39.248V36.3945H45.3477V35.2988H46.2441V33.3652H47.4102V35.2988H48.957V36.3945H47.4102V39.1133C47.4102 39.457 47.4629 39.7031 47.5684 39.8516C47.6777 40 47.877 40.0742 48.166 40.0742C48.4551 40.0742 48.668 40.0469 48.8047 39.9922V41.0234C48.5898 41.1133 48.2891 41.1582 47.9023 41.1582ZM53.709 36.6523C53.3809 36.3828 52.998 36.248 52.5605 36.248C52.123 36.248 51.748 36.3789 51.4355 36.6406C51.1191 36.9023 50.9102 37.2402 50.8086 37.6543H54.2891C54.2305 37.2559 54.0371 36.9219 53.709 36.6523ZM50.498 40.2969C49.9199 39.7266 49.6309 39.0273 49.6309 38.1992C49.6309 37.3711 49.9082 36.6621 50.4629 36.0723C51.0176 35.4824 51.7129 35.1875 52.5488 35.1875C53.3848 35.1875 54.0781 35.4805 54.6289 36.0664C55.1836 36.6523 55.4609 37.3535 55.4609 38.1699C55.4609 38.2754 55.4531 38.4062 55.4375 38.5625H50.7676C50.8457 39.0117 51.0527 39.3828 51.3887 39.6758C51.7246 39.9688 52.1348 40.1133 52.6191 40.1094C53.3145 40.1094 53.8457 39.8496 54.2129 39.3301L55.0332 39.957C54.7676 40.332 54.4199 40.625 53.9902 40.8359C53.5605 41.0469 53.1035 41.1543 52.6191 41.1582C51.7832 41.1543 51.0762 40.8672 50.498 40.2969ZM60.4707 36.6523C60.1426 36.3828 59.7598 36.248 59.3223 36.248C58.8848 36.248 58.5098 36.3789 58.1973 36.6406C57.8809 36.9023 57.6719 37.2402 57.5703 37.6543H61.0508C60.9922 37.2559 60.7988 36.9219 60.4707 36.6523ZM57.2598 40.2969C56.6816 39.7266 56.3926 39.0273 56.3926 38.1992C56.3926 37.3711 56.6699 36.6621 57.2246 36.0723C57.7793 35.4824 58.4746 35.1875 59.3105 35.1875C60.1465 35.1875 60.8398 35.4805 61.3906 36.0664C61.9453 36.6523 62.2227 37.3535 62.2227 38.1699C62.2227 38.2754 62.2148 38.4062 62.1992 38.5625H57.5293C57.6074 39.0117 57.8145 39.3828 58.1504 39.6758C58.4863 39.9688 58.8965 40.1133 59.3809 40.1094C60.0762 40.1094 60.6074 39.8496 60.9746 39.3301L61.7949 39.957C61.5293 40.332 61.1816 40.625 60.752 40.8359C60.3223 41.0469 59.8652 41.1543 59.3809 41.1582C58.5449 41.1543 57.8379 40.8672 57.2598 40.2969ZM71.0352 41V38.0117C71.0352 37.4258 70.9473 36.9922 70.7715 36.7109C70.5957 36.4297 70.293 36.2871 69.8633 36.2832C68.9531 36.2832 68.4961 36.8867 68.4922 38.0938V41H67.332V38.0117C67.332 37.418 67.2441 36.9805 67.0684 36.6992C66.8926 36.418 66.5879 36.2793 66.1543 36.2832C65.2441 36.2832 64.7871 36.8867 64.7832 38.0938V41H63.6348V35.2988H64.7832V35.9141C65.2168 35.4336 65.7383 35.1934 66.3477 35.1934C67.2344 35.1934 67.8418 35.5449 68.1699 36.248C68.6348 35.5449 69.2676 35.1934 70.0684 35.1934C70.7324 35.1895 71.252 35.4023 71.627 35.832C72.002 36.2617 72.1895 36.9082 72.1895 37.7715V41H71.0352Z" fill="white"/>
<path d="M78.957 36.8398C78.5977 37.207 78.418 37.6543 78.418 38.1816C78.418 38.709 78.5918 39.1562 78.9395 39.5234C79.2871 39.8906 79.7305 40.0742 80.2695 40.0742C80.8086 40.0742 81.2578 39.8926 81.6172 39.5293C81.9805 39.166 82.1621 38.7188 82.1621 38.1875C82.1621 37.6562 81.9824 37.207 81.623 36.8398C81.2637 36.4727 80.8184 36.2871 80.2871 36.2832C79.7598 36.2871 79.3164 36.4727 78.957 36.8398ZM77.2285 44.0352V35.2988H78.377V36.0312C78.8574 35.4727 79.5059 35.1934 80.3223 35.1934C81.1387 35.1934 81.8398 35.4805 82.4258 36.0547C83.0078 36.6328 83.2988 37.3398 83.2988 38.1758C83.2988 39.0117 83.0098 39.7168 82.4316 40.291C81.8535 40.8652 81.1504 41.1523 80.3223 41.1523C79.4941 41.1523 78.8457 40.877 78.377 40.3262V44.0352H77.2285ZM88.5781 39.5117C88.9375 39.1367 89.1172 38.6895 89.1172 38.1699C89.1172 37.6504 88.9355 37.207 88.5723 36.8398C88.209 36.4727 87.7676 36.2871 87.248 36.2832C86.7285 36.2832 86.291 36.4727 85.9355 36.8516C85.5762 37.2266 85.3965 37.6719 85.3965 38.1875C85.3965 38.7031 85.5762 39.1465 85.9355 39.5176C86.2949 39.8887 86.7363 40.0742 87.2598 40.0742C87.7793 40.0742 88.2188 39.8867 88.5781 39.5117ZM89.3809 36.0664C89.9668 36.6523 90.2598 37.3555 90.2598 38.1758C90.2598 38.9961 89.9629 39.6992 89.3691 40.2852C88.7754 40.8711 88.0684 41.1621 87.248 41.1582C86.4277 41.1543 85.7227 40.8633 85.1328 40.2852C84.5469 39.707 84.2559 39.0059 84.2598 38.1816C84.2598 37.3574 84.5488 36.6523 85.127 36.0664C85.7051 35.4805 86.4121 35.1875 87.248 35.1875C88.084 35.1875 88.7949 35.4805 89.3809 36.0664ZM93.3535 40.1094C93.6582 40.1094 93.8926 40.0508 94.0566 39.9336C94.2207 39.8164 94.3027 39.6602 94.3027 39.4648C94.3027 39.2656 94.2012 39.1035 93.998 38.9785C93.7949 38.8535 93.5488 38.7559 93.2598 38.6855C92.9707 38.6152 92.6816 38.5293 92.3926 38.4277C92.1035 38.3262 91.8555 38.1543 91.6484 37.9121C91.4453 37.6699 91.3418 37.3594 91.3379 36.9805C91.3379 36.4531 91.5176 36.0234 91.877 35.6914C92.2363 35.3594 92.709 35.1934 93.2949 35.1934C94.0566 35.1934 94.7012 35.4082 95.2285 35.8379L94.6191 36.6934C94.2207 36.3965 93.7832 36.248 93.3066 36.248C93.0332 36.248 92.8262 36.3066 92.6855 36.4238C92.5449 36.5371 92.4766 36.6836 92.4805 36.8633C92.4805 37.1758 92.8281 37.4316 93.5234 37.6309C93.8125 37.709 94.1016 37.8047 94.3906 37.918C94.6797 38.0312 94.9258 38.2109 95.1289 38.457C95.332 38.7031 95.4336 39.0156 95.4336 39.3945C95.4375 39.9375 95.248 40.3672 94.8652 40.6836C94.4824 41 93.9277 41.1582 93.2012 41.1582C92.4746 41.1582 91.7871 40.9102 91.1387 40.4141L91.7598 39.5234C92.2402 39.9141 92.7715 40.1094 93.3535 40.1094ZM98.6328 41.1582C97.9922 41.1582 97.5566 40.9863 97.3262 40.6426C97.0957 40.2988 96.9785 39.834 96.9746 39.248V36.3945H96.0781V35.2988H96.9746V33.3652H98.1406V35.2988H99.6875V36.3945H98.1406V39.1133C98.1406 39.457 98.1934 39.7031 98.2988 39.8516C98.4082 40 98.6074 40.0742 98.8965 40.0742C99.1855 40.0742 99.3984 40.0469 99.5352 39.9922V41.0234C99.3203 41.1133 99.0195 41.1582 98.6328 41.1582Z" fill="#00FFF9"/>
</svg>
