<svg width="139" height="46" viewBox="0 0 139 46" fill="none" xmlns="http://www.w3.org/2000/svg">
<path d="M73.1561 20.0937C72.4585 20.0937 71.8489 19.9322 71.3283 19.6093C70.9218 19.3696 70.6514 19.0572 70.516 18.6718C70.3697 18.2968 70.2971 17.4008 70.2971 15.9839V9.82782H75.9843V6.06229H70.297V0H66.8749C66.7186 1.22905 66.4376 2.24976 66.0313 3.06267C65.625 3.86469 65.0886 4.55222 64.4219 5.12504C63.7552 5.68774 62.9479 6.12523 62 6.43761V9.8282H64.6562V18.25C64.6562 19.3645 64.7709 20.2032 64.9998 20.7657C65.2187 21.3284 65.6302 21.8751 66.2343 22.4064C66.8592 22.9271 67.5781 23.3177 68.3905 23.5779C69.2343 23.8592 70.203 24 71.2968 24C72.2968 24 73.1977 23.9008 73.9998 23.7029C74.7915 23.5258 75.7187 23.1872 76.7812 22.6871V18.9059C75.5831 19.6979 74.375 20.0937 73.1561 20.0937Z" fill="#2CFEFA"/>
<path d="M29.7559 42V34.2832H26.9258V33.1172H33.8164V34.2832H30.9922V42H29.7559ZM38.2168 36.2988H39.3652V39.5625C39.3652 40.4102 39.1367 41.0547 38.6797 41.4961C38.2227 41.9375 37.5879 42.1582 36.7754 42.1582C35.9629 42.1582 35.3262 41.9375 34.8652 41.4961C34.4082 41.0547 34.1797 40.4102 34.1797 39.5625V36.2988H35.3457V39.4805C35.3457 40.543 35.8242 41.0742 36.7812 41.0742C37.7383 41.0742 38.2168 40.543 38.2168 39.4805V36.2988ZM48.5938 42V39.0117C48.5938 38.4258 48.5059 37.9922 48.3301 37.7109C48.1543 37.4297 47.8516 37.2871 47.4219 37.2832C46.5117 37.2832 46.0547 37.8867 46.0508 39.0938V42H44.8906V39.0117C44.8906 38.418 44.8027 37.9805 44.627 37.6992C44.4512 37.418 44.1465 37.2793 43.7129 37.2832C42.8027 37.2832 42.3457 37.8867 42.3418 39.0938V42H41.1934V36.2988H42.3418V36.9141C42.7754 36.4336 43.2969 36.1934 43.9062 36.1934C44.793 36.1934 45.4004 36.5449 45.7285 37.248C46.1934 36.5449 46.8262 36.1934 47.627 36.1934C48.291 36.1895 48.8105 36.4023 49.1855 36.832C49.5605 37.2617 49.748 37.9082 49.748 38.7715V42H48.5938ZM53.2812 37.8398C52.9219 38.207 52.7422 38.6543 52.7422 39.1816C52.7422 39.709 52.916 40.1562 53.2637 40.5234C53.6113 40.8906 54.0547 41.0742 54.5938 41.0742C55.1328 41.0742 55.582 40.8926 55.9414 40.5293C56.3047 40.166 56.4863 39.7188 56.4863 39.1875C56.4863 38.6562 56.3066 38.207 55.9473 37.8398C55.5879 37.4727 55.1426 37.2871 54.6113 37.2832C54.084 37.2871 53.6406 37.4727 53.2812 37.8398ZM51.5527 42V33.1172H52.7012V37.0312C53.1816 36.4727 53.8301 36.1934 54.6465 36.1934C55.4629 36.1934 56.1641 36.4805 56.75 37.0547C57.332 37.6328 57.623 38.3398 57.623 39.1758C57.623 40.0117 57.334 40.7168 56.7559 41.291C56.1777 41.8652 55.4746 42.1523 54.6465 42.1523C53.8184 42.1523 53.1699 41.877 52.7012 41.3262V42H51.5527ZM59.0645 33.1172H60.2129V40.1895C60.2129 40.5137 60.2637 40.7422 60.3652 40.875C60.4668 41.0078 60.6523 41.0742 60.9219 41.0742C61.043 41.0742 61.1387 41.0703 61.209 41.0625V42.0703C60.9863 42.125 60.7754 42.1543 60.5762 42.1582C60.1035 42.1582 59.7324 42.0195 59.4629 41.7422C59.1934 41.4648 59.0605 41.0664 59.0645 40.5469V33.1172ZM62.2988 42V36.2988H63.4473V36.9844C63.7129 36.6641 64.0059 36.4512 64.3262 36.3457C64.6465 36.2402 65.0938 36.1895 65.668 36.1934V37.2949C64.7969 37.2949 64.209 37.4453 63.9043 37.7461C63.5996 38.0469 63.4473 38.4805 63.4473 39.0469V42H62.2988Z" fill="white"/>
<path d="M73.9473 40.5176C74.3066 40.1465 74.4863 39.7012 74.4863 39.1816C74.4863 38.6621 74.3066 38.2148 73.9473 37.8398C73.5879 37.4648 73.1406 37.2793 72.6055 37.2832C72.0742 37.2832 71.6289 37.4668 71.2695 37.834C70.9062 38.2051 70.7246 38.6562 70.7246 39.1875C70.7246 39.7188 70.9043 40.166 71.2637 40.5293C71.623 40.8926 72.0684 41.0742 72.5996 41.0742C73.1387 41.0742 73.5879 40.8887 73.9473 40.5176ZM70.4551 41.2969C69.877 40.7188 69.5879 40.0117 69.5879 39.1758C69.5879 38.3398 69.8789 37.6328 70.4609 37.0547C71.0469 36.4805 71.7461 36.1934 72.5586 36.1934C73.3711 36.1934 74.0215 36.4727 74.5098 37.0312V36.2988H75.6582V41.5312C75.6582 43.0391 75.1895 44.0684 74.252 44.6191C73.7832 44.8965 73.2539 45.0352 72.6641 45.0352C72.0781 45.0352 71.5586 44.9141 71.1055 44.6719C70.6523 44.4297 70.291 44.0879 70.0215 43.6465L71.0879 43.1895C71.4473 43.7012 71.9316 43.957 72.541 43.957C73.1504 43.957 73.6289 43.7832 73.9766 43.4355C74.3281 43.0879 74.5059 42.5215 74.5098 41.7363V41.3262C74.0371 41.877 73.3887 42.1523 72.5645 42.1523C71.7363 42.1523 71.0332 41.8672 70.4551 41.2969ZM77.5801 42V36.2988H78.7285V36.9844C78.9941 36.6641 79.2871 36.4512 79.6074 36.3457C79.9277 36.2402 80.375 36.1895 80.9492 36.1934V37.2949C80.0781 37.2949 79.4902 37.4453 79.1855 37.7461C78.8809 38.0469 78.7285 38.4805 78.7285 39.0469V42H77.5801ZM85.748 40.5176C86.1074 40.1465 86.2871 39.7012 86.2871 39.1816C86.2871 38.6621 86.1074 38.2148 85.748 37.8398C85.3887 37.4648 84.9414 37.2793 84.4062 37.2832C83.875 37.2832 83.4297 37.4668 83.0703 37.834C82.707 38.2051 82.5254 38.6562 82.5254 39.1875C82.5254 39.7188 82.7051 40.166 83.0645 40.5293C83.4238 40.8926 83.8691 41.0742 84.4004 41.0742C84.9395 41.0742 85.3887 40.8887 85.748 40.5176ZM86.3105 42V41.3262C85.8379 41.877 85.1895 42.1523 84.3652 42.1523C83.5371 42.1523 82.834 41.8672 82.2559 41.2969C81.6777 40.7188 81.3887 40.0117 81.3887 39.1758C81.3887 38.3398 81.6797 37.6328 82.2617 37.0547C82.8477 36.4805 83.5469 36.1934 84.3594 36.1934C85.1719 36.1934 85.8223 36.4727 86.3105 37.0312V36.2988H87.459V42H86.3105ZM91.1094 37.8398C90.75 38.207 90.5703 38.6543 90.5703 39.1816C90.5703 39.709 90.7441 40.1562 91.0918 40.5234C91.4395 40.8906 91.8828 41.0742 92.4219 41.0742C92.9609 41.0742 93.4102 40.8926 93.7695 40.5293C94.1328 40.166 94.3145 39.7188 94.3145 39.1875C94.3145 38.6562 94.1348 38.207 93.7754 37.8398C93.416 37.4727 92.9707 37.2871 92.4395 37.2832C91.9121 37.2871 91.4688 37.4727 91.1094 37.8398ZM89.3809 45.0352V36.2988H90.5293V37.0312C91.0098 36.4727 91.6582 36.1934 92.4746 36.1934C93.291 36.1934 93.9922 36.4805 94.5781 37.0547C95.1602 37.6328 95.4512 38.3398 95.4512 39.1758C95.4512 40.0117 95.1621 40.7168 94.584 41.291C94.0059 41.8652 93.3027 42.1523 92.4746 42.1523C91.6465 42.1523 90.998 41.877 90.5293 41.3262V45.0352H89.3809ZM100.889 42V39.0117C100.889 37.8594 100.424 37.2832 99.4941 37.2832C98.5254 37.2832 98.041 37.8867 98.041 39.0938V42H96.8926V33.1172H98.041V36.9141C98.4668 36.4336 99.0273 36.1934 99.7227 36.1934C100.418 36.1973 100.98 36.4141 101.41 36.8438C101.84 37.2734 102.053 37.916 102.049 38.7715V42H100.889ZM103.854 42V36.2988H105.014V42H103.854ZM104.984 35.0098C104.836 35.1582 104.652 35.2324 104.434 35.2324C104.215 35.2324 104.029 35.1582 103.877 35.0098C103.725 34.8613 103.648 34.6777 103.648 34.459C103.648 34.2402 103.725 34.0566 103.877 33.9082C104.029 33.7598 104.215 33.6855 104.434 33.6855C104.652 33.6855 104.836 33.7578 104.984 33.9023C105.133 34.0469 105.207 34.2305 105.207 34.4531C105.207 34.6758 105.133 34.8613 104.984 35.0098ZM109.443 42.1582C108.619 42.1543 107.914 41.8633 107.328 41.2852C106.742 40.707 106.451 40.0059 106.455 39.1816C106.455 38.3574 106.744 37.6523 107.322 37.0664C107.9 36.4805 108.607 36.1895 109.443 36.1934C109.971 36.1895 110.459 36.3164 110.908 36.5742C111.357 36.832 111.717 37.1719 111.986 37.5938L111.014 38.1504C110.846 37.8848 110.623 37.6738 110.346 37.5176C110.068 37.3613 109.768 37.2832 109.443 37.2832C108.932 37.2832 108.496 37.4707 108.137 37.8457C107.773 38.2246 107.592 38.6719 107.592 39.1875C107.592 39.7031 107.775 40.1465 108.143 40.5176C108.51 40.8887 108.951 41.0742 109.467 41.0742C110.162 41.0742 110.689 40.7754 111.049 40.1777L112.01 40.7402C111.744 41.1738 111.385 41.5195 110.932 41.7773C110.479 42.0352 109.982 42.1621 109.443 42.1582Z" fill="#00FFF9"/>
</svg>
