<svg width="193" height="43" viewBox="0 0 193 43" fill="none" xmlns="http://www.w3.org/2000/svg">
<path d="M108.622 2.36631C107.716 2.76787 106.743 3.0402 105.722 3.16178C106.765 2.5371 107.563 1.54627 107.942 0.369248C106.963 0.947741 105.883 1.3678 104.732 1.59551C103.811 0.612368 102.5 0 101.046 0C98.2564 0 95.9947 2.26171 95.9947 5.04962C95.9947 5.44501 96.0393 5.8312 96.1255 6.20049C91.9282 5.98967 88.2064 3.97877 85.7155 0.923119C85.2801 1.66781 85.0323 2.53553 85.0323 3.46179C85.0323 5.21424 85.9247 6.76051 87.2787 7.66517C86.4509 7.63749 85.6724 7.40978 84.9908 7.03127V7.09436C84.9908 9.54069 86.7325 11.5824 89.0419 12.0471C88.6188 12.1609 88.1726 12.224 87.711 12.224C87.3849 12.224 87.0694 12.1917 86.7602 12.1301C87.4033 14.138 89.2681 15.5981 91.4775 15.6381C89.7496 16.9921 87.571 17.7967 85.2047 17.7967C84.797 17.7967 84.3954 17.7721 84 17.7275C86.2356 19.163 88.8896 20 91.7421 20C101.034 20 106.112 12.304 106.112 5.62968L106.096 4.97579C107.088 4.26799 107.946 3.37871 108.622 2.36631Z" fill="#2CFEFA"/>
<path d="M66.4062 39V31.2832H63.5762V30.1172H70.4668V31.2832H67.6426V39H66.4062ZM76.4551 39L75.0195 34.8984L73.5898 39H72.3652L70.2266 33.2988H71.5039L72.9746 37.5L74.4746 33.2988H75.5469L77.0469 37.5L78.5234 33.2988H79.8066L77.6562 39H76.4551ZM80.8906 39V33.2988H82.0508V39H80.8906ZM82.0215 32.0098C81.873 32.1582 81.6895 32.2324 81.4707 32.2324C81.252 32.2324 81.0664 32.1582 80.9141 32.0098C80.7617 31.8613 80.6855 31.6777 80.6855 31.459C80.6855 31.2402 80.7617 31.0566 80.9141 30.9082C81.0664 30.7598 81.252 30.6855 81.4707 30.6855C81.6895 30.6855 81.873 30.7578 82.0215 30.9023C82.1699 31.0469 82.2441 31.2305 82.2441 31.4531C82.2441 31.6758 82.1699 31.8613 82.0215 32.0098ZM85.7715 39.1582C85.1309 39.1582 84.6953 38.9863 84.4648 38.6426C84.2344 38.2988 84.1172 37.834 84.1133 37.248V34.3945H83.2168V33.2988H84.1133V31.3652H85.2793V33.2988H86.8262V34.3945H85.2793V37.1133C85.2793 37.457 85.332 37.7031 85.4375 37.8516C85.5469 38 85.7461 38.0742 86.0352 38.0742C86.3242 38.0742 86.5371 38.0469 86.6738 37.9922V39.0234C86.459 39.1133 86.1582 39.1582 85.7715 39.1582ZM90.084 39.1582C89.4434 39.1582 89.0078 38.9863 88.7773 38.6426C88.5469 38.2988 88.4297 37.834 88.4258 37.248V34.3945H87.5293V33.2988H88.4258V31.3652H89.5918V33.2988H91.1387V34.3945H89.5918V37.1133C89.5918 37.457 89.6445 37.7031 89.75 37.8516C89.8594 38 90.0586 38.0742 90.3477 38.0742C90.6367 38.0742 90.8496 38.0469 90.9863 37.9922V39.0234C90.7715 39.1133 90.4707 39.1582 90.084 39.1582ZM95.8906 34.6523C95.5625 34.3828 95.1797 34.248 94.7422 34.248C94.3047 34.248 93.9297 34.3789 93.6172 34.6406C93.3008 34.9023 93.0918 35.2402 92.9902 35.6543H96.4707C96.4121 35.2559 96.2188 34.9219 95.8906 34.6523ZM92.6797 38.2969C92.1016 37.7266 91.8125 37.0273 91.8125 36.1992C91.8125 35.3711 92.0898 34.6621 92.6445 34.0723C93.1992 33.4824 93.8945 33.1875 94.7305 33.1875C95.5664 33.1875 96.2598 33.4805 96.8105 34.0664C97.3652 34.6523 97.6426 35.3535 97.6426 36.1699C97.6426 36.2754 97.6348 36.4062 97.6191 36.5625H92.9492C93.0273 37.0117 93.2344 37.3828 93.5703 37.6758C93.9062 37.9688 94.3164 38.1133 94.8008 38.1094C95.4961 38.1094 96.0273 37.8496 96.3945 37.3301L97.2148 37.957C96.9492 38.332 96.6016 38.625 96.1719 38.8359C95.7422 39.0469 95.2852 39.1543 94.8008 39.1582C93.9648 39.1543 93.2578 38.8672 92.6797 38.2969ZM99.0547 39V33.2988H100.203V33.9844C100.469 33.6641 100.762 33.4512 101.082 33.3457C101.402 33.2402 101.85 33.1895 102.424 33.1934V34.2949C101.553 34.2949 100.965 34.4453 100.66 34.7461C100.355 35.0469 100.203 35.4805 100.203 36.0469V39H99.0547Z" fill="white"/>
<path d="M108.553 34.8398C108.193 35.207 108.014 35.6543 108.014 36.1816C108.014 36.709 108.188 37.1562 108.535 37.5234C108.883 37.8906 109.326 38.0742 109.865 38.0742C110.404 38.0742 110.854 37.8926 111.213 37.5293C111.576 37.166 111.758 36.7188 111.758 36.1875C111.758 35.6562 111.578 35.207 111.219 34.8398C110.859 34.4727 110.414 34.2871 109.883 34.2832C109.355 34.2871 108.912 34.4727 108.553 34.8398ZM106.824 42.0352V33.2988H107.973V34.0312C108.453 33.4727 109.102 33.1934 109.918 33.1934C110.734 33.1934 111.436 33.4805 112.021 34.0547C112.604 34.6328 112.895 35.3398 112.895 36.1758C112.895 37.0117 112.605 37.7168 112.027 38.291C111.449 38.8652 110.746 39.1523 109.918 39.1523C109.09 39.1523 108.441 38.877 107.973 38.3262V42.0352H106.824ZM118.174 37.5117C118.533 37.1367 118.713 36.6895 118.713 36.1699C118.713 35.6504 118.531 35.207 118.168 34.8398C117.805 34.4727 117.363 34.2871 116.844 34.2832C116.324 34.2832 115.887 34.4727 115.531 34.8516C115.172 35.2266 114.992 35.6719 114.992 36.1875C114.992 36.7031 115.172 37.1465 115.531 37.5176C115.891 37.8887 116.332 38.0742 116.855 38.0742C117.375 38.0742 117.814 37.8867 118.174 37.5117ZM118.977 34.0664C119.562 34.6523 119.855 35.3555 119.855 36.1758C119.855 36.9961 119.559 37.6992 118.965 38.2852C118.371 38.8711 117.664 39.1621 116.844 39.1582C116.023 39.1543 115.318 38.8633 114.729 38.2852C114.143 37.707 113.852 37.0059 113.855 36.1816C113.855 35.3574 114.145 34.6523 114.723 34.0664C115.301 33.4805 116.008 33.1875 116.844 33.1875C117.68 33.1875 118.391 33.4805 118.977 34.0664ZM122.949 38.1094C123.254 38.1094 123.488 38.0508 123.652 37.9336C123.816 37.8164 123.898 37.6602 123.898 37.4648C123.898 37.2656 123.797 37.1035 123.594 36.9785C123.391 36.8535 123.145 36.7559 122.855 36.6855C122.566 36.6152 122.277 36.5293 121.988 36.4277C121.699 36.3262 121.451 36.1543 121.244 35.9121C121.041 35.6699 120.938 35.3594 120.934 34.9805C120.934 34.4531 121.113 34.0234 121.473 33.6914C121.832 33.3594 122.305 33.1934 122.891 33.1934C123.652 33.1934 124.297 33.4082 124.824 33.8379L124.215 34.6934C123.816 34.3965 123.379 34.248 122.902 34.248C122.629 34.248 122.422 34.3066 122.281 34.4238C122.141 34.5371 122.072 34.6836 122.076 34.8633C122.076 35.1758 122.424 35.4316 123.119 35.6309C123.408 35.709 123.697 35.8047 123.986 35.918C124.275 36.0312 124.521 36.2109 124.725 36.457C124.928 36.7031 125.029 37.0156 125.029 37.3945C125.033 37.9375 124.844 38.3672 124.461 38.6836C124.078 39 123.523 39.1582 122.797 39.1582C122.07 39.1582 121.383 38.9102 120.734 38.4141L121.355 37.5234C121.836 37.9141 122.367 38.1094 122.949 38.1094ZM128.229 39.1582C127.588 39.1582 127.152 38.9863 126.922 38.6426C126.691 38.2988 126.574 37.834 126.57 37.248V34.3945H125.674V33.2988H126.57V31.3652H127.736V33.2988H129.283V34.3945H127.736V37.1133C127.736 37.457 127.789 37.7031 127.895 37.8516C128.004 38 128.203 38.0742 128.492 38.0742C128.781 38.0742 128.994 38.0469 129.131 37.9922V39.0234C128.916 39.1133 128.615 39.1582 128.229 39.1582Z" fill="#00FFF9"/>
</svg>
