<svg width="193" height="37" viewBox="0 0 193 37" fill="none" xmlns="http://www.w3.org/2000/svg">
<path d="M107.022 1.52375C106.399 0.414 105.722 0.209875 104.343 0.13225C102.966 0.0388125 99.5029 0 96.5029 0C93.4971 0 90.0327 0.0388126 88.657 0.130813C87.2813 0.209875 86.6028 0.412562 85.9732 1.52375C85.3306 2.63206 85 4.54106 85 7.90194C85 7.90481 85 7.90625 85 7.90625C85 7.90912 85 7.91056 85 7.91056V7.91344C85 11.2599 85.3306 13.1833 85.9732 14.2801C86.6028 15.3899 87.2799 15.5911 88.6556 15.6846C90.0327 15.7651 93.4971 15.8125 96.5029 15.8125C99.5029 15.8125 102.966 15.7651 104.344 15.686C105.723 15.5926 106.4 15.3913 107.024 14.2816C107.672 13.1848 108 11.2614 108 7.91487C108 7.91487 108 7.91056 108 7.90769C108 7.90769 108 7.90481 108 7.90338C108 4.54106 107.672 2.63206 107.022 1.52375ZM93.625 12.2188V3.59375L100.812 7.90625L93.625 12.2188Z" fill="#2CFEFA"/>
<path d="M55.2266 36V32.0039L52.0684 27.1172H53.4863L55.8359 30.791L58.2266 27.1172H59.6211L56.4512 31.9922V36H55.2266ZM63.3008 34.5117C63.6602 34.1367 63.8398 33.6895 63.8398 33.1699C63.8398 32.6504 63.6582 32.207 63.2949 31.8398C62.9316 31.4727 62.4902 31.2871 61.9707 31.2832C61.4512 31.2832 61.0137 31.4727 60.6582 31.8516C60.2988 32.2266 60.1191 32.6719 60.1191 33.1875C60.1191 33.7031 60.2988 34.1465 60.6582 34.5176C61.0176 34.8887 61.459 35.0742 61.9824 35.0742C62.502 35.0742 62.9414 34.8867 63.3008 34.5117ZM64.1035 31.0664C64.6895 31.6523 64.9824 32.3555 64.9824 33.1758C64.9824 33.9961 64.6855 34.6992 64.0918 35.2852C63.498 35.8711 62.791 36.1621 61.9707 36.1582C61.1504 36.1543 60.4453 35.8633 59.8555 35.2852C59.2695 34.707 58.9785 34.0059 58.9824 33.1816C58.9824 32.3574 59.2715 31.6523 59.8496 31.0664C60.4277 30.4805 61.1348 30.1875 61.9707 30.1875C62.8066 30.1875 63.5176 30.4805 64.1035 31.0664ZM70.3496 30.2988H71.498V33.5625C71.498 34.4102 71.2695 35.0547 70.8125 35.4961C70.3555 35.9375 69.7207 36.1582 68.9082 36.1582C68.0957 36.1582 67.459 35.9375 66.998 35.4961C66.541 35.0547 66.3125 34.4102 66.3125 33.5625V30.2988H67.4785V33.4805C67.4785 34.543 67.957 35.0742 68.9141 35.0742C69.8711 35.0742 70.3496 34.543 70.3496 33.4805V30.2988ZM75.125 36.1582C74.4844 36.1582 74.0488 35.9863 73.8184 35.6426C73.5879 35.2988 73.4707 34.834 73.4668 34.248V31.3945H72.5703V30.2988H73.4668V28.3652H74.6328V30.2988H76.1797V31.3945H74.6328V34.1133C74.6328 34.457 74.6855 34.7031 74.791 34.8516C74.9004 35 75.0996 35.0742 75.3887 35.0742C75.6777 35.0742 75.8906 35.0469 76.0273 34.9922V36.0234C75.8125 36.1133 75.5117 36.1582 75.125 36.1582ZM81.4473 30.2988H82.5957V33.5625C82.5957 34.4102 82.3672 35.0547 81.9102 35.4961C81.4531 35.9375 80.8184 36.1582 80.0059 36.1582C79.1934 36.1582 78.5566 35.9375 78.0957 35.4961C77.6387 35.0547 77.4102 34.4102 77.4102 33.5625V30.2988H78.5762V33.4805C78.5762 34.543 79.0547 35.0742 80.0117 35.0742C80.9688 35.0742 81.4473 34.543 81.4473 33.4805V30.2988ZM86.1523 31.8398C85.793 32.207 85.6133 32.6543 85.6133 33.1816C85.6133 33.709 85.7871 34.1562 86.1348 34.5234C86.4824 34.8906 86.9258 35.0742 87.4648 35.0742C88.0039 35.0742 88.4531 34.8926 88.8125 34.5293C89.1758 34.166 89.3574 33.7188 89.3574 33.1875C89.3574 32.6562 89.1777 32.207 88.8184 31.8398C88.459 31.4727 88.0137 31.2871 87.4824 31.2832C86.9551 31.2871 86.5117 31.4727 86.1523 31.8398ZM84.4238 36V27.1172H85.5723V31.0312C86.0527 30.4727 86.7012 30.1934 87.5176 30.1934C88.334 30.1934 89.0352 30.4805 89.6211 31.0547C90.2031 31.6328 90.4941 32.3398 90.4941 33.1758C90.4941 34.0117 90.2051 34.7168 89.627 35.291C89.0488 35.8652 88.3457 36.1523 87.5176 36.1523C86.6895 36.1523 86.041 35.877 85.5723 35.3262V36H84.4238ZM95.5332 31.6523C95.2051 31.3828 94.8223 31.248 94.3848 31.248C93.9473 31.248 93.5723 31.3789 93.2598 31.6406C92.9434 31.9023 92.7344 32.2402 92.6328 32.6543H96.1133C96.0547 32.2559 95.8613 31.9219 95.5332 31.6523ZM92.3223 35.2969C91.7441 34.7266 91.4551 34.0273 91.4551 33.1992C91.4551 32.3711 91.7324 31.6621 92.2871 31.0723C92.8418 30.4824 93.5371 30.1875 94.373 30.1875C95.209 30.1875 95.9023 30.4805 96.4531 31.0664C97.0078 31.6523 97.2852 32.3535 97.2852 33.1699C97.2852 33.2754 97.2773 33.4062 97.2617 33.5625H92.5918C92.6699 34.0117 92.877 34.3828 93.2129 34.6758C93.5488 34.9688 93.959 35.1133 94.4434 35.1094C95.1387 35.1094 95.6699 34.8496 96.0371 34.3301L96.8574 34.957C96.5918 35.332 96.2441 35.625 95.8145 35.8359C95.3848 36.0469 94.9277 36.1543 94.4434 36.1582C93.6074 36.1543 92.9004 35.8672 92.3223 35.2969Z" fill="white"/>
<path d="M105.928 36V33.0117C105.928 31.8594 105.463 31.2832 104.533 31.2832C103.564 31.2832 103.08 31.8867 103.08 33.0938V36H101.932V27.1172H103.08V30.9141C103.506 30.4336 104.066 30.1934 104.762 30.1934C105.457 30.1973 106.02 30.4141 106.449 30.8438C106.879 31.2734 107.092 31.916 107.088 32.7715V36H105.928ZM112.49 31.6523C112.162 31.3828 111.779 31.248 111.342 31.248C110.904 31.248 110.529 31.3789 110.217 31.6406C109.9 31.9023 109.691 32.2402 109.59 32.6543H113.07C113.012 32.2559 112.818 31.9219 112.49 31.6523ZM109.279 35.2969C108.701 34.7266 108.412 34.0273 108.412 33.1992C108.412 32.3711 108.689 31.6621 109.244 31.0723C109.799 30.4824 110.494 30.1875 111.33 30.1875C112.166 30.1875 112.859 30.4805 113.41 31.0664C113.965 31.6523 114.242 32.3535 114.242 33.1699C114.242 33.2754 114.234 33.4062 114.219 33.5625H109.549C109.627 34.0117 109.834 34.3828 110.17 34.6758C110.506 34.9688 110.916 35.1133 111.4 35.1094C112.096 35.1094 112.627 34.8496 112.994 34.3301L113.814 34.957C113.549 35.332 113.201 35.625 112.771 35.8359C112.342 36.0469 111.885 36.1543 111.4 36.1582C110.564 36.1543 109.857 35.8672 109.279 35.2969ZM119.533 34.5176C119.893 34.1465 120.072 33.7012 120.072 33.1816C120.072 32.6621 119.893 32.2148 119.533 31.8398C119.174 31.4648 118.727 31.2793 118.191 31.2832C117.66 31.2832 117.215 31.4668 116.855 31.834C116.492 32.2051 116.311 32.6562 116.311 33.1875C116.311 33.7188 116.49 34.166 116.85 34.5293C117.209 34.8926 117.654 35.0742 118.186 35.0742C118.725 35.0742 119.174 34.8887 119.533 34.5176ZM120.096 36V35.3262C119.623 35.877 118.975 36.1523 118.15 36.1523C117.322 36.1523 116.619 35.8672 116.041 35.2969C115.463 34.7188 115.174 34.0117 115.174 33.1758C115.174 32.3398 115.465 31.6328 116.047 31.0547C116.633 30.4805 117.332 30.1934 118.145 30.1934C118.957 30.1934 119.607 30.4727 120.096 31.0312V30.2988H121.244V36H120.096ZM127.045 34.5176C127.404 34.1465 127.584 33.7012 127.584 33.1816C127.584 32.6621 127.404 32.2148 127.045 31.8398C126.686 31.4648 126.238 31.2793 125.703 31.2832C125.172 31.2832 124.727 31.4668 124.367 31.834C124.004 32.2051 123.822 32.6562 123.822 33.1875C123.822 33.7188 124.002 34.166 124.361 34.5293C124.721 34.8926 125.166 35.0742 125.697 35.0742C126.236 35.0742 126.686 34.8887 127.045 34.5176ZM127.607 36V35.3262C127.135 35.877 126.486 36.1523 125.662 36.1523C124.834 36.1523 124.131 35.8672 123.553 35.2969C122.975 34.7188 122.686 34.0117 122.686 33.1758C122.686 32.3398 122.977 31.6328 123.559 31.0547C124.145 30.4805 124.844 30.1934 125.656 30.1934C126.469 30.1934 127.119 30.4727 127.607 31.0312V27.1172H128.756V36H127.607ZM134.275 31.6523C133.947 31.3828 133.564 31.248 133.127 31.248C132.689 31.248 132.314 31.3789 132.002 31.6406C131.686 31.9023 131.477 32.2402 131.375 32.6543H134.855C134.797 32.2559 134.604 31.9219 134.275 31.6523ZM131.064 35.2969C130.486 34.7266 130.197 34.0273 130.197 33.1992C130.197 32.3711 130.475 31.6621 131.029 31.0723C131.584 30.4824 132.279 30.1875 133.115 30.1875C133.951 30.1875 134.645 30.4805 135.195 31.0664C135.75 31.6523 136.027 32.3535 136.027 33.1699C136.027 33.2754 136.02 33.4062 136.004 33.5625H131.334C131.412 34.0117 131.619 34.3828 131.955 34.6758C132.291 34.9688 132.701 35.1133 133.186 35.1094C133.881 35.1094 134.412 34.8496 134.779 34.3301L135.6 34.957C135.334 35.332 134.986 35.625 134.557 35.8359C134.127 36.0469 133.67 36.1543 133.186 36.1582C132.35 36.1543 131.643 35.8672 131.064 35.2969ZM137.439 36V30.2988H138.588V30.9844C138.854 30.6641 139.146 30.4512 139.467 30.3457C139.787 30.2402 140.234 30.1895 140.809 30.1934V31.2949C139.938 31.2949 139.35 31.4453 139.045 31.7461C138.74 32.0469 138.588 32.4805 138.588 33.0469V36H137.439Z" fill="#00FFF9"/>
</svg>
