<svg width="139" height="38" viewBox="0 0 139 38" fill="none" xmlns="http://www.w3.org/2000/svg">
<path d="M80.0225 1.52375C79.3986 0.414 78.7216 0.209875 77.343 0.13225C75.9659 0.0388125 72.5029 0 69.5029 0C66.4971 0 63.0327 0.0388126 61.657 0.130813C60.2813 0.209875 59.6028 0.412562 58.9732 1.52375C58.3306 2.63206 58 4.54106 58 7.90194C58 7.90481 58 7.90625 58 7.90625C58 7.90912 58 7.91056 58 7.91056V7.91344C58 11.2599 58.3306 13.1833 58.9732 14.2801C59.6028 15.3899 60.2799 15.5911 61.6556 15.6846C63.0327 15.7651 66.4971 15.8125 69.5029 15.8125C72.5029 15.8125 75.9659 15.7651 77.3444 15.686C78.723 15.5926 79.4001 15.3913 80.0239 14.2816C80.6723 13.1848 81 11.2614 81 7.91487C81 7.91487 81 7.91056 81 7.90769C81 7.90769 81 7.90481 81 7.90338C81 4.54106 80.6722 2.63206 80.0225 1.52375ZM66.625 12.2188V3.59375L73.8125 7.90625L66.625 12.2188Z" fill="#2CFEFA"/>
<path d="M29.6562 37V33.0039L26.498 28.1172H27.916L30.2656 31.791L32.6562 28.1172H34.0508L30.8809 32.9922V37H29.6562ZM37.7305 35.5117C38.0898 35.1367 38.2695 34.6895 38.2695 34.1699C38.2695 33.6504 38.0879 33.207 37.7246 32.8398C37.3613 32.4727 36.9199 32.2871 36.4004 32.2832C35.8809 32.2832 35.4434 32.4727 35.0879 32.8516C34.7285 33.2266 34.5488 33.6719 34.5488 34.1875C34.5488 34.7031 34.7285 35.1465 35.0879 35.5176C35.4473 35.8887 35.8887 36.0742 36.4121 36.0742C36.9316 36.0742 37.3711 35.8867 37.7305 35.5117ZM38.5332 32.0664C39.1191 32.6523 39.4121 33.3555 39.4121 34.1758C39.4121 34.9961 39.1152 35.6992 38.5215 36.2852C37.9277 36.8711 37.2207 37.1621 36.4004 37.1582C35.5801 37.1543 34.875 36.8633 34.2852 36.2852C33.6992 35.707 33.4082 35.0059 33.4121 34.1816C33.4121 33.3574 33.7012 32.6523 34.2793 32.0664C34.8574 31.4805 35.5645 31.1875 36.4004 31.1875C37.2363 31.1875 37.9473 31.4805 38.5332 32.0664ZM44.7793 31.2988H45.9277V34.5625C45.9277 35.4102 45.6992 36.0547 45.2422 36.4961C44.7852 36.9375 44.1504 37.1582 43.3379 37.1582C42.5254 37.1582 41.8887 36.9375 41.4277 36.4961C40.9707 36.0547 40.7422 35.4102 40.7422 34.5625V31.2988H41.9082V34.4805C41.9082 35.543 42.3867 36.0742 43.3438 36.0742C44.3008 36.0742 44.7793 35.543 44.7793 34.4805V31.2988ZM49.5547 37.1582C48.9141 37.1582 48.4785 36.9863 48.248 36.6426C48.0176 36.2988 47.9004 35.834 47.8965 35.248V32.3945H47V31.2988H47.8965V29.3652H49.0625V31.2988H50.6094V32.3945H49.0625V35.1133C49.0625 35.457 49.1152 35.7031 49.2207 35.8516C49.3301 36 49.5293 36.0742 49.8184 36.0742C50.1074 36.0742 50.3203 36.0469 50.457 35.9922V37.0234C50.2422 37.1133 49.9414 37.1582 49.5547 37.1582ZM55.877 31.2988H57.0254V34.5625C57.0254 35.4102 56.7969 36.0547 56.3398 36.4961C55.8828 36.9375 55.248 37.1582 54.4355 37.1582C53.623 37.1582 52.9863 36.9375 52.5254 36.4961C52.0684 36.0547 51.8398 35.4102 51.8398 34.5625V31.2988H53.0059V34.4805C53.0059 35.543 53.4844 36.0742 54.4414 36.0742C55.3984 36.0742 55.877 35.543 55.877 34.4805V31.2988ZM60.582 32.8398C60.2227 33.207 60.043 33.6543 60.043 34.1816C60.043 34.709 60.2168 35.1562 60.5645 35.5234C60.9121 35.8906 61.3555 36.0742 61.8945 36.0742C62.4336 36.0742 62.8828 35.8926 63.2422 35.5293C63.6055 35.166 63.7871 34.7188 63.7871 34.1875C63.7871 33.6562 63.6074 33.207 63.248 32.8398C62.8887 32.4727 62.4434 32.2871 61.9121 32.2832C61.3848 32.2871 60.9414 32.4727 60.582 32.8398ZM58.8535 37V28.1172H60.002V32.0312C60.4824 31.4727 61.1309 31.1934 61.9473 31.1934C62.7637 31.1934 63.4648 31.4805 64.0508 32.0547C64.6328 32.6328 64.9238 33.3398 64.9238 34.1758C64.9238 35.0117 64.6348 35.7168 64.0566 36.291C63.4785 36.8652 62.7754 37.1523 61.9473 37.1523C61.1191 37.1523 60.4707 36.877 60.002 36.3262V37H58.8535ZM69.9629 32.6523C69.6348 32.3828 69.252 32.248 68.8145 32.248C68.377 32.248 68.002 32.3789 67.6895 32.6406C67.373 32.9023 67.1641 33.2402 67.0625 33.6543H70.543C70.4844 33.2559 70.291 32.9219 69.9629 32.6523ZM66.752 36.2969C66.1738 35.7266 65.8848 35.0273 65.8848 34.1992C65.8848 33.3711 66.1621 32.6621 66.7168 32.0723C67.2715 31.4824 67.9668 31.1875 68.8027 31.1875C69.6387 31.1875 70.332 31.4805 70.8828 32.0664C71.4375 32.6523 71.7148 33.3535 71.7148 34.1699C71.7148 34.2754 71.707 34.4062 71.6914 34.5625H67.0215C67.0996 35.0117 67.3066 35.3828 67.6426 35.6758C67.9785 35.9688 68.3887 36.1133 68.873 36.1094C69.5684 36.1094 70.0996 35.8496 70.4668 35.3301L71.2871 35.957C71.0215 36.332 70.6738 36.625 70.2441 36.8359C69.8145 37.0469 69.3574 37.1543 68.873 37.1582C68.0371 37.1543 67.3301 36.8672 66.752 36.2969Z" fill="white"/>
<path d="M80.2402 35.5176C80.5996 35.1465 80.7793 34.7012 80.7793 34.1816C80.7793 33.6621 80.5996 33.2148 80.2402 32.8398C79.8809 32.4648 79.4336 32.2793 78.8984 32.2832C78.3672 32.2832 77.9219 32.4668 77.5625 32.834C77.1992 33.2051 77.0176 33.6562 77.0176 34.1875C77.0176 34.7188 77.1973 35.166 77.5566 35.5293C77.916 35.8926 78.3613 36.0742 78.8926 36.0742C79.4316 36.0742 79.8809 35.8887 80.2402 35.5176ZM80.8027 37V36.3262C80.3301 36.877 79.6816 37.1523 78.8574 37.1523C78.0293 37.1523 77.3262 36.8672 76.748 36.2969C76.1699 35.7188 75.8809 35.0117 75.8809 34.1758C75.8809 33.3398 76.1719 32.6328 76.7539 32.0547C77.3398 31.4805 78.0391 31.1934 78.8516 31.1934C79.6641 31.1934 80.3145 31.4727 80.8027 32.0312V31.2988H81.9512V37H80.8027ZM85.3848 37L83.0293 31.2988H84.2773L85.9824 35.5586L87.7109 31.2988H88.959L86.6211 37H85.3848ZM93.8574 35.5176C94.2168 35.1465 94.3965 34.7012 94.3965 34.1816C94.3965 33.6621 94.2168 33.2148 93.8574 32.8398C93.498 32.4648 93.0508 32.2793 92.5156 32.2832C91.9844 32.2832 91.5391 32.4668 91.1797 32.834C90.8164 33.2051 90.6348 33.6562 90.6348 34.1875C90.6348 34.7188 90.8145 35.166 91.1738 35.5293C91.5332 35.8926 91.9785 36.0742 92.5098 36.0742C93.0488 36.0742 93.498 35.8887 93.8574 35.5176ZM94.4199 37V36.3262C93.9473 36.877 93.2988 37.1523 92.4746 37.1523C91.6465 37.1523 90.9434 36.8672 90.3652 36.2969C89.7871 35.7188 89.498 35.0117 89.498 34.1758C89.498 33.3398 89.7891 32.6328 90.3711 32.0547C90.957 31.4805 91.6562 31.1934 92.4688 31.1934C93.2812 31.1934 93.9316 31.4727 94.4199 32.0312V31.2988H95.5684V37H94.4199ZM99.2891 37.1582C98.6484 37.1582 98.2129 36.9863 97.9824 36.6426C97.752 36.2988 97.6348 35.834 97.6309 35.248V32.3945H96.7344V31.2988H97.6309V29.3652H98.7969V31.2988H100.344V32.3945H98.7969V35.1133C98.7969 35.457 98.8496 35.7031 98.9551 35.8516C99.0645 36 99.2637 36.0742 99.5527 36.0742C99.8418 36.0742 100.055 36.0469 100.191 35.9922V37.0234C99.9766 37.1133 99.6758 37.1582 99.2891 37.1582ZM105.377 35.5176C105.736 35.1465 105.916 34.7012 105.916 34.1816C105.916 33.6621 105.736 33.2148 105.377 32.8398C105.018 32.4648 104.57 32.2793 104.035 32.2832C103.504 32.2832 103.059 32.4668 102.699 32.834C102.336 33.2051 102.154 33.6562 102.154 34.1875C102.154 34.7188 102.334 35.166 102.693 35.5293C103.053 35.8926 103.498 36.0742 104.029 36.0742C104.568 36.0742 105.018 35.8887 105.377 35.5176ZM105.939 37V36.3262C105.467 36.877 104.818 37.1523 103.994 37.1523C103.166 37.1523 102.463 36.8672 101.885 36.2969C101.307 35.7188 101.018 35.0117 101.018 34.1758C101.018 33.3398 101.309 32.6328 101.891 32.0547C102.477 31.4805 103.176 31.1934 103.988 31.1934C104.801 31.1934 105.451 31.4727 105.939 32.0312V31.2988H107.088V37H105.939ZM109.01 37V31.2988H110.158V31.9844C110.424 31.6641 110.717 31.4512 111.037 31.3457C111.357 31.2402 111.805 31.1895 112.379 31.1934V32.2949C111.508 32.2949 110.92 32.4453 110.615 32.7461C110.311 33.0469 110.158 33.4805 110.158 34.0469V37H109.01Z" fill="#00FFF9"/>
</svg>
